<?xml version="1.0" standalone="no"?>
<!DOCTYPE svg PUBLIC "-//W3C//DTD SVG 1.1//EN" "http://www.w3.org/Graphics/SVG/1.1/DTD/svg11.dtd" >
<svg xmlns="http://www.w3.org/2000/svg">
<metadata></metadata>
<defs>
<font id="pf_din_text_cond_proitalic" horiz-adv-x="946" >
<font-face units-per-em="2048" ascent="1536" descent="-512" />
<missing-glyph horiz-adv-x="451" />
<glyph unicode="&#xfb01;" horiz-adv-x="926" d="M6 -322l239 1243h-118l27 144h119l39 193q34 178 131 249t232 71q109 0 187 -36t121 -99l-129 -120q-27 39 -73 64.5t-112 25.5q-82 0 -127 -46.5t-60 -119.5l-35 -182h476l-207 -1065h-172l178 921h-303l-241 -1243h-172z" />
<glyph unicode="&#xfb02;" horiz-adv-x="977" d="M8 -322l237 1243h-118l27 144h119l39 193q34 174 129 249t238 75q43 0 132.5 -11.5t199.5 -54.5l-241 -1232q-5 -13 -5 -23.5v-22.5q0 -38 21.5 -61t69.5 -23h34l-32 -160h-27q-108 0 -178 42t-70 142q0 41 6 80l224 1131q-31 15 -69 22t-67 7q-86 0 -132 -42t-61 -124 l-37 -187h196l-28 -144h-196l-238 -1243h-173z" />
<glyph horiz-adv-x="2048" />
<glyph horiz-adv-x="2048" />
<glyph unicode="&#xd;" horiz-adv-x="2048" />
<glyph unicode=" "  horiz-adv-x="451" />
<glyph unicode="&#x09;" horiz-adv-x="451" />
<glyph unicode="&#xa0;" horiz-adv-x="451" />
<glyph unicode="!" horiz-adv-x="505" d="M76 0l38 191h183l-39 -191h-182zM172 380l200 1116h170l-234 -1116h-136z" />
<glyph unicode="&#x22;" horiz-adv-x="601" d="M228 1071l84 425h133l-84 -425h-133zM482 1071l84 425h133l-84 -425h-133z" />
<glyph unicode="#" d="M26 0l167 474h-165l23 117h185l115 325h-166l24 118h185l165 464h122l-164 -464h214l166 464h123l-168 -464h174l-24 -118h-191l-116 -325h173l-23 -117h-193l-166 -474h-123l166 474h-215l-166 -474h-122zM357 591h215l116 325h-214z" />
<glyph unicode="$" d="M33 260l145 78q22 -62 66 -117t124 -67q28 136 53.5 268t52.5 268q-119 56 -195 131.5t-76 200.5q0 105 32 190t87.5 146.5t134.5 96.5t173 41l35 172h94q-10 -43 -18 -88t-17 -88q65 -6 113.5 -30t84 -59t57 -77t27.5 -87q-37 -19 -73 -39t-71 -39q-8 27 -19.5 54.5 t-32 50t-49 38.5t-69.5 23l-97 -490q64 -31 119.5 -60.5t94 -68.5t60 -89.5t21.5 -119.5q0 -117 -33.5 -210.5t-93 -159t-145 -101.5t-188.5 -41l-20 -106t-20 -107h-95l43 218q-133 12 -202.5 89t-102.5 179zM385 1041q0 -56 34.5 -95t89.5 -68q21 114 43 225.5t45 225.5 q-49 -8 -89 -36.5t-67.5 -68.5t-41.5 -88t-14 -95zM462 152q117 17 180.5 103t63.5 209q0 72 -44.5 115t-99.5 73q-26 -127 -50 -250t-50 -250z" />
<glyph unicode="%" horiz-adv-x="1375" d="M111 -37l1102 1570h133l-1103 -1570h-132zM121 845l82 428q21 105 88.5 168t170.5 63q54 0 100.5 -18.5t76.5 -53t43 -81t2 -101.5l-80 -429q-21 -107 -81.5 -168.5t-176.5 -61.5q-49 0 -95 17.5t-79.5 49.5t-49 79.5t-1.5 107.5zM256 835q-10 -50 13.5 -85.5t83.5 -35.5 q55 0 81 32t34 75l84 441q11 45 -18 81t-80 36q-50 0 -79 -30.5t-37 -75.5zM772 243l82 428q21 105 89 167.5t171 62.5q54 0 100 -18.5t76 -52.5t43 -80t3 -103l-80 -428q-21 -107 -81.5 -168t-176.5 -61q-50 0 -96 17t-79 49t-48.5 79.5t-2.5 107.5zM907 232 q-10 -49 13.5 -85t83.5 -36q55 0 81.5 32.5t34.5 75.5l84 441q11 46 -18 81t-80 35q-50 0 -79 -30t-38 -75z" />
<glyph unicode="&#x26;" horiz-adv-x="1079" d="M69 303q0 153 87 279t244 229q-19 64 -51.5 149t-32.5 193q0 73 26 138.5t74 113.5t116 76.5t152 28.5q94 0 169.5 -38t116.5 -122l-137 -86q-25 54 -67 74.5t-99 20.5q-45 0 -79 -18t-56.5 -47.5t-33 -65.5t-10.5 -73q0 -95 50 -226q18 -51 47.5 -118t60.5 -135.5 t60 -134t49 -118.5q37 54 58.5 112t40.5 114l152 -6q-24 -89 -70 -191.5t-109 -191.5l121 -260h-191l-60 129q-90 -82 -166.5 -112t-167.5 -30q-133 0 -213.5 86.5t-80.5 229.5zM236 316q0 -76 39 -126t121 -50q62 0 130.5 35.5t113.5 82.5l-178 413q-119 -86 -172.5 -174.5 t-53.5 -180.5z" />
<glyph unicode="'" horiz-adv-x="444" d="M275 1071l82 425h133l-82 -425h-133z" />
<glyph unicode="(" horiz-adv-x="530" d="M109 413q0 163 43 323.5t117.5 308t170.5 277t203 235.5l79 -49q-98 -119 -180 -254.5t-141 -281t-91.5 -298.5t-32.5 -309q0 -148 29 -289.5t86 -264.5l-93 -59q-86 142 -138 309t-52 352z" />
<glyph unicode=")" horiz-adv-x="530" d="M-84 -189q94 111 176 246.5t141.5 283t92.5 302.5t33 307q0 146 -30 289.5t-86 266.5q24 12 48.5 25t50.5 24q84 -140 134.5 -302.5t50.5 -347.5q0 -166 -43 -327t-117 -309t-172 -279.5t-208 -237.5z" />
<glyph unicode="*" horiz-adv-x="765" d="M205 1209q4 8 12.5 26.5t19.5 39t20.5 38.5t13.5 29l211 -97q2 15 6 52t9.5 76.5t8.5 75t5 53.5h138l-70 -257q14 7 50 20t73.5 27.5t71.5 29t51 20.5q0 -11 4 -29t7 -38.5t6 -39t3 -26.5l-254 -62l127 -197q-8 -6 -26.5 -17.5t-38 -23.5t-38 -24t-26.5 -19l-90 220 q-11 -13 -35.5 -44t-51.5 -65.5t-52 -65.5t-36 -47q-6 6 -20 18.5t-29 25.5t-29 23.5t-20 16.5l204 199q-14 4 -45.5 12.5t-67.5 17.5t-68 18t-44 14z" />
<glyph unicode="+" d="M64 566l26 133h366l75 380h132l-74 -380h365l-25 -133h-365l-76 -383h-131l73 383h-366z" />
<glyph unicode="," horiz-adv-x="478" d="M-13 -250l107 242h-53l43 223h204l-43 -219l-157 -246h-101z" />
<glyph unicode="-" horiz-adv-x="792" d="M123 519l29 152h590l-30 -152h-589z" />
<glyph unicode="." horiz-adv-x="468" d="M45 0l41 217h204l-40 -217h-205z" />
<glyph unicode="/" horiz-adv-x="616" d="M-123 -90l788 1649h135l-792 -1649h-131z" />
<glyph unicode="0" d="M72 220.5q-18 76.5 2 173.5l145 759q35 172 137 264.5t261 92.5q72 0 136 -24.5t109 -73.5t65.5 -120t3.5 -163l-149 -787q-30 -159 -122 -257t-270 -98q-78 0 -145 27t-111 78.5t-62 128zM245 385q-21 -114 22 -172.5t133 -58.5q47 0 84 17.5t61.5 44.5t39.5 60.5 t22 65.5l154 791q17 88 -31.5 148.5t-132.5 60.5t-136.5 -49.5t-68.5 -139.5z" />
<glyph unicode="1" d="M324 0l257 1314l-235 -157l37 185l230 154h175l-291 -1496h-173z" />
<glyph unicode="2" d="M-8 0l29 164l633 752q56 71 86 141t30 127q0 64 -40 111t-126 47q-76 0 -139 -59.5t-87 -168.5l-171 33q41 170 151 265.5t270 95.5q140 0 230 -75.5t90 -226.5q2 -111 -46 -200.5t-114 -170.5l-558 -669h507l-31 -166h-714z" />
<glyph unicode="3" d="M-8 273v30l176 26v-23q0 -76 38.5 -118t113.5 -42q76 0 126.5 32.5t81.5 84t44 116t13 128.5q0 84 -41 139t-144 55h-71l30 153h80q60 0 108 26.5t83 72t52 104.5t17 125q0 62 -35.5 112t-117.5 50q-69 0 -131 -46t-86 -151l-167 29q19 84 56.5 146.5t91 103.5 t119.5 61.5t137 20.5q154 0 233 -81t79 -200q0 -57 -10 -120.5t-37 -124.5t-73 -115t-120 -93q72 -37 96.5 -103.5t24.5 -122.5q0 -80 -17.5 -177.5t-66.5 -183.5t-137.5 -144t-229.5 -58q-62 0 -120.5 16t-101.5 50.5t-68.5 89t-25.5 132.5z" />
<glyph unicode="4" d="M24 232l32 164l621 1100h179l-622 -1104h357l82 427h170l-82 -427h112l-30 -160h-114l-45 -232h-167l42 232h-535z" />
<glyph unicode="5" d="M60 303l176 26q0 -89 32.5 -136t129.5 -47q94 0 144.5 61.5t74.5 157.5q17 70 35.5 153.5t18.5 152.5q0 71 -32 113.5t-118 42.5q-54 0 -105 -28.5t-87 -78.5h-161l150 776h682l-32 -162h-523l-84 -433h4q56 45 115.5 63.5t116.5 18.5q67 0 115.5 -20.5t77.5 -56.5 t43 -84t14 -104q0 -64 -8 -127.5t-20 -126.5q-47 -286 -181 -400q-92 -80 -262 -79q-72 0 -130.5 19.5t-100.5 58t-65.5 99t-19.5 141.5z" />
<glyph unicode="6" d="M78 290q0 45 7 102t23.5 118.5t41 121.5t57.5 112l488 752h183q-155 -250 -254.5 -405t-165.5 -254l4 -4q30 16 70 25.5t72 9.5q64 0 108.5 -21.5t72.5 -58.5t41 -86.5t13 -104.5q0 -18 -3 -54t-11 -81t-20.5 -96.5t-30.5 -100.5q-97 -278 -384 -278q-80 0 -138.5 24 t-96.5 65t-57.5 95.5t-19.5 118.5zM258 322q0 -34 6.5 -66t24 -56t45 -39t72.5 -15q76 0 124.5 39t71.5 101q30 86 44 161.5t14 111.5q0 66 -34.5 110.5t-116.5 44.5q-80 0 -129 -45t-72 -105q-21 -52 -35.5 -118t-14.5 -124z" />
<glyph unicode="7" d="M69 0l703 1334h-376l-39 -203h-162l72 365h718l-31 -160l-706 -1336h-179z" />
<glyph unicode="8" d="M56 299q0 29 6.5 96t31.5 143.5t73 144.5t132 97q-47 35 -73 89t-26 116q0 43 9.5 97.5t38.5 142.5q43 138 143.5 211.5t242.5 73.5q148 0 229 -87t81 -223q-2 -41 -12.5 -104.5t-37 -128t-69.5 -117t-107 -72.5q33 -17 54.5 -43.5t34 -59t18.5 -64.5t6 -59q0 -26 -4 -62 t-12.5 -79t-20.5 -87.5t-29 -85.5q-45 -109 -135 -180t-240 -71q-67 0 -127 19.5t-107 59t-73.5 98t-26.5 135.5zM228 342q0 -28 5 -62.5t22.5 -63.5t51 -49.5t89.5 -20.5q39 0 67.5 11t51.5 27t39 34t27 36q16 28 30.5 63.5t23 70.5t14 67.5t7.5 53.5q0 82 -36.5 139.5 t-127.5 57.5q-77 0 -128.5 -41t-81.5 -99.5t-42 -120.5t-12 -103zM374 989q0 -62 44 -98.5t107 -36.5q90 0 144.5 58t79.5 139q10 33 15.5 67.5t5.5 67.5q0 72 -42.5 117t-118.5 45q-56 0 -93.5 -21.5t-63.5 -56.5q-19 -26 -29 -55t-21 -60q-12 -43 -20 -87t-8 -79z" />
<glyph unicode="9" d="M114 0q78 125 140 224.5t112.5 180.5t91.5 143.5t75 111.5l-4 5q-30 -17 -70 -27t-72 -10q-64 0 -108.5 21.5t-72.5 59.5t-41 86t-13 104q0 19 4 54.5t11 80.5t20 96.5t30 102.5q97 277 385 277q79 0 137.5 -23.5t97.5 -64.5t58 -96.5t19 -119.5q0 -45 -8.5 -102 t-25 -118t-40 -121.5t-55.5 -111.5l-488 -753h-183zM331 938q0 -66 34.5 -111t116.5 -45q80 0 129 45.5t73 105.5q21 52 35 117.5t14 123.5q0 35 -6.5 67t-23.5 55.5t-45 38.5t-73 15q-76 0 -124 -38.5t-71 -100.5q-31 -86 -45 -161.5t-14 -111.5z" />
<glyph unicode=":" horiz-adv-x="464" d="M39 0l41 217h204l-41 -217h-204zM162 628l41 219h203l-41 -219h-203z" />
<glyph unicode=";" horiz-adv-x="464" d="M-15 -250l107 242h-51l43 223h204l-43 -219l-157 -246h-103zM164 628l43 219h204l-43 -219h-204z" />
<glyph unicode="&#x3c;" d="M84 572l23 123l902 415l-26 -156l-733 -328l606 -329l-33 -137z" />
<glyph unicode="=" d="M28 378l28 141h865l-29 -141h-864zM101 751l26 139h864l-25 -139h-865z" />
<glyph unicode="&#x3e;" d="M4 160l31 154l730 326l-603 330l27 140l742 -415l-24 -123z" />
<glyph unicode="?" horiz-adv-x="932" d="M207 1137q49 193 154 282t284 89q154 0 252 -86t98 -238q0 -69 -11.5 -119t-34 -92t-55 -79.5t-71.5 -80.5q-30 -35 -64.5 -69t-66.5 -70t-56.5 -74t-38.5 -83l-25 -130h-178q17 103 44.5 190.5t105.5 164.5q53 64 102 114.5t85.5 96t58 90.5t21.5 101q0 82 -42 138 t-143 56q-107 0 -168.5 -70t-72.5 -167q-45 11 -89 19.5t-89 16.5zM316 0l39 191h181l-39 -191h-181z" />
<glyph unicode="@" horiz-adv-x="1697" d="M160 540q0 209 64 387.5t181.5 308t280.5 204t359 74.5q144 0 258.5 -43t193.5 -119.5t121 -182.5t42 -233q0 -179 -42 -304t-108.5 -204t-146 -115t-157.5 -36q-24 0 -55 5.5t-61 19.5t-52.5 36.5t-28.5 57.5h-7q-37 -45 -97 -76.5t-129 -31.5q-90 0 -157 55t-67 164 q0 60 9 136.5t28 160.5q37 150 114 242.5t220 92.5q43 0 92.5 -21.5t80.5 -66.5l3 3q5 19 8 38.5t7 38.5h142l-117 -604q-10 -49 10.5 -84t67.5 -35q51 0 105.5 29t98.5 91.5t71.5 163t27.5 239.5q0 110 -37.5 195t-102 144t-152 89t-185.5 30q-175 0 -312.5 -66.5 t-232 -180.5t-145 -263.5t-50.5 -314.5q0 -241 125.5 -383t386.5 -142q103 0 201 22.5t211 73.5q11 -30 21 -61t20 -61q-109 -43 -226 -70t-236 -27q-150 0 -269.5 41t-203 121t-128.5 196t-45 266zM701 568q0 -60 24.5 -100t99.5 -40q64 0 109 47.5t71.5 117.5t37.5 147 t11 136q0 57 -29.5 91.5t-91.5 34.5q-43 0 -81.5 -17t-66.5 -62q-69 -115 -84 -355z" />
<glyph unicode="A" horiz-adv-x="1055" d="M-69 0l721 1496h161l139 -1496h-178l-23 340h-476l-156 -340h-188zM346 501h394l-30 387l-24 342h-7l-148 -338z" />
<glyph unicode="B" horiz-adv-x="1075" d="M49 0l293 1496h400q168 0 261 -76t93 -238q0 -166 -68 -264.5t-197 -139.5q0 -2 -2 -3t-2 -3q91 -31 128.5 -106t37.5 -178q-8 -139 -54.5 -232.5t-120.5 -151t-171 -81t-206 -23.5h-392zM258 164h267q71 0 127 29t92 76t55.5 109.5t19.5 128.5q0 93 -55.5 142.5 t-156.5 49.5h-244q-26 -135 -51.5 -267.5t-53.5 -267.5zM394 854h172q71 0 135 15t113.5 50t79 93.5t29.5 142.5q0 92 -60.5 136.5t-156.5 44.5h-218z" />
<glyph unicode="C" horiz-adv-x="1008" d="M99 344q0 41 11 115t23 143q17 90 36.5 183t37.5 183q19 101 51 197.5t89 173t145.5 123t219.5 46.5q185 0 277.5 -90.5t100.5 -239.5l-181 -53q0 96 -51.5 154.5t-147.5 58.5q-72 0 -120 -20.5t-81 -55.5t-54.5 -78t-37.5 -88q-37 -123 -59.5 -254.5t-47.5 -260.5 q-11 -52 -21 -108t-10 -103q0 -48 10 -86.5t33.5 -67.5t62 -45.5t99.5 -16.5q101 0 176 57.5t112 166.5l172 -66q-56 -158 -174 -241.5t-292 -83.5q-193 0 -286 100t-93 257z" />
<glyph unicode="D" horiz-adv-x="1106" d="M49 0l291 1496h393q174 0 278.5 -79t104.5 -249q0 -67 -15 -183.5t-38 -244.5q-13 -77 -29.5 -155t-33.5 -145.5t-34.5 -120t-32.5 -83.5q-79 -142 -189 -189t-245 -47h-450zM258 164h222q90 0 150 22.5t101 64.5t63.5 102t38.5 135l70 368q6 32 13 71t12 74t9.5 65 t4.5 46q1 10 1 20q-1 87 -49 140q-54 59 -186 59h-222q-56 -295 -113 -584t-115 -583z" />
<glyph unicode="E" horiz-adv-x="964" d="M51 0l291 1496h785l-35 -165h-606l-94 -492h519l-29 -162h-521l-101 -511h606l-29 -166h-786z" />
<glyph unicode="F" d="M51 0l291 1496h785l-35 -165h-606l-94 -498h519l-31 -162h-521l-129 -671h-179z" />
<glyph unicode="G" horiz-adv-x="1075" d="M82 344q0 41 10.5 115t24.5 143q16 90 35.5 183t36.5 183q19 101 51.5 197.5t89.5 173t145.5 123t219.5 46.5q185 0 277.5 -90.5t100.5 -239.5l-181 -53q0 96 -51 154.5t-149 58.5q-71 0 -119 -20.5t-81.5 -55.5t-55 -78t-36.5 -88q-37 -123 -59.5 -254.5t-47.5 -260.5 q-11 -52 -21 -108t-10 -103q0 -48 9.5 -87.5t33.5 -68.5t66 -45.5t105 -16.5q86 0 143.5 33.5t95.5 87.5t59.5 122.5t33.5 140.5l23 109h-242l31 159h423l-58 -291q-24 -111 -60.5 -207.5t-96.5 -168t-149.5 -111t-218.5 -39.5q-193 0 -285.5 100t-92.5 257z" />
<glyph unicode="H" horiz-adv-x="1128" d="M51 0l291 1496h179l-129 -657h498l130 657h176l-291 -1496h-176l131 681h-499l-131 -681h-179z" />
<glyph unicode="I" horiz-adv-x="459" d="M54 0l292 1496h179l-291 -1496h-180z" />
<glyph unicode="J" horiz-adv-x="862" d="M-45 140l137 103q27 -41 74 -67t96 -26q99 0 170 54t101 196l214 1096h178l-215 -1104q-24 -115 -63.5 -192t-98 -124.5t-131.5 -68t-159 -20.5q-103 0 -181.5 39.5t-121.5 113.5z" />
<glyph unicode="K" horiz-adv-x="1096" d="M49 0l293 1496h177l-145 -756h4l265 314l381 442h201l-496 -593l262 -903h-187q-51 187 -105 371.5t-106 372.5l-283 -323l-82 -421h-179z" />
<glyph unicode="L" horiz-adv-x="936" d="M51 0l291 1496h179l-261 -1330h589l-30 -166h-768z" />
<glyph unicode="M" horiz-adv-x="1395" d="M51 0l291 1496h177l128 -578l75 -346h7l211 351l353 573h182l-293 -1496h-176l203 1043h-9l-172 -288l-295 -462h-120l-114 470l-60 280h-6l-203 -1043h-179z" />
<glyph unicode="N" horiz-adv-x="1192" d="M47 0l293 1496h171l261 -795l98 -305h8l212 1100h176l-290 -1496h-170l-266 813l-95 299h-6l-213 -1112h-179z" />
<glyph unicode="O" horiz-adv-x="1067" d="M101 287q-6 38 -6 77q0 51 10 104l117 595q14 75 45.5 154.5t88.5 144t142 105.5t206 41q116 0 195.5 -41t125.5 -105.5t61 -145.5q8 -40 8 -81t-8 -81l-110 -617q-40 -218 -160.5 -334t-316.5 -116q-123 0 -206.5 39.5t-131 106.5t-60.5 154zM275 348q4 -56 28 -99.5 t72 -70t126 -26.5q114 0 190.5 71.5t100.5 195.5l122 635q4 23 4 52q0 14 -1 30q-3 48 -27 93.5t-74.5 77t-138.5 31.5q-73 0 -122.5 -29t-82.5 -71t-50.5 -92t-25.5 -90l-112 -592q-10 -46 -10 -89q0 -14 1 -27z" />
<glyph unicode="P" horiz-adv-x="1026" d="M51 0l291 1496h413q172 0 267.5 -83.5t95.5 -244.5q0 -121 -32 -224t-96.5 -179.5t-160.5 -119.5t-220 -43h-263l-116 -602h-179zM378 770h239q80 0 140 27.5t100 76.5t59.5 113t19.5 140q0 96 -55.5 150t-166.5 54h-228z" />
<glyph unicode="Q" horiz-adv-x="1075" d="M94 357q0 56 10 124.5t24 143t30 149.5t29 142q26 127 61.5 235.5t93.5 187.5t144 124t215 45q95 0 168 -28.5t122.5 -78t74 -118t24.5 -152.5q0 -56 -9.5 -122.5t-22.5 -137.5t-29 -144t-29 -140q-15 -64 -27 -125.5t-31 -121.5q-26 -84 -64 -149l115 -111l-113 -117 l-112 106q-56 -41 -127 -61.5t-165 -20.5q-103 0 -175.5 28t-117.5 78.5t-67 118t-22 145.5zM269 392q0 -52 8.5 -96t33 -76.5t66.5 -51t109 -18.5q47 0 90.5 11t66.5 28l-153 149l119 114l138 -134q26 54 42.5 116.5t29.5 124.5q13 66 29 138.5t30 143t23.5 137.5t9.5 123 q0 103 -52.5 172t-179.5 69q-100 0 -157.5 -50.5t-86.5 -121.5q-19 -50 -40 -119.5t-39 -149.5t-34 -159t-28.5 -150t-18.5 -124t-6 -76z" />
<glyph unicode="R" horiz-adv-x="1075" d="M51 0l291 1496h446q168 0 254 -94q77 -84 77 -228q0 -18 -1 -37q-10 -183 -95 -293.5t-241 -159.5l156 -684h-194l-140 658h-247l-127 -658h-179zM387 815h258q125 0 206.5 85t88.5 225q1 13 1 25q1 86 -49 133q-56 53 -170 53h-234z" />
<glyph unicode="S" horiz-adv-x="1014" d="M37 258l168 84q30 -75 91 -128.5t178 -53.5q77 0 131.5 26.5t90 69.5t52.5 95.5t17 106.5q0 49 -14 83.5t-40.5 58.5t-66.5 42t-92 35q-94 31 -158.5 64t-105 75t-59 93.5t-18.5 120.5q0 109 33 198.5t96.5 152t152 96t197.5 33.5q75 0 136.5 -19.5t108 -53t77.5 -75.5 t46 -87l-161 -97q-29 76 -91 117t-141 41q-64 0 -114 -23t-83 -60.5t-50.5 -88t-17.5 -106.5q0 -53 21.5 -87.5t59.5 -59.5t90.5 -43.5t114.5 -40.5q154 -53 216 -135.5t62 -209.5q0 -105 -33.5 -197t-99.5 -158.5t-161.5 -104t-217.5 -37.5q-175 0 -278 75t-137 198z" />
<glyph unicode="T" horiz-adv-x="855" d="M174 1336l33 160h851l-32 -160h-336l-260 -1336h-176l257 1336h-337z" />
<glyph unicode="U" horiz-adv-x="1102" d="M119 285q-3 28 -3 57q0 58 11 118q21 116 48.5 255t54 279.5t51.5 270.5t43 231h177q-19 -96 -45 -230.5t-54 -279.5t-55 -283.5t-46 -244.5q-11 -55 -11 -107q0 -51 20 -92q20 -42 61.5 -67.5t112.5 -25.5q84 0 142 29t96.5 78t61 115t35.5 137l190 971h177 q-49 -250 -96 -494.5t-95 -492.5q-19 -111 -57.5 -206.5t-100 -166t-148.5 -110t-205 -39.5q-127 0 -203 39.5t-115 106.5t-47 152z" />
<glyph unicode="V" horiz-adv-x="997" d="M232 1496h181l34 -745l17 -424h12q12 26 38 87.5t53.5 131t53.5 132t39 87.5l316 731h196l-682 -1496h-168z" />
<glyph unicode="W" horiz-adv-x="1492" d="M243 0v1496h180l-12 -569l-17 -540h8l189 454l273 655h162l17 -669l13 -444h9l141 421l257 692h189l-583 -1496h-162l-17 675l-12 469h-8l-186 -463l-280 -681h-161z" />
<glyph unicode="X" horiz-adv-x="956" d="M-74 0l528 776l-209 720h185l142 -554l359 554h198l-493 -720l228 -776h-185l-158 607l-396 -607h-199z" />
<glyph unicode="Y" horiz-adv-x="938" d="M219 1496h175l103 -505q8 -30 18 -76.5t18 -81.5l11 -2l155 263q58 103 117.5 202t116.5 200h192l-536 -870l-123 -626h-171l122 626q-49 219 -98.5 435.5t-99.5 434.5z" />
<glyph unicode="Z" horiz-adv-x="876" d="M-30 0l32 166l804 1170h-552l32 160h742l-30 -154l-805 -1178h575l-31 -164h-767z" />
<glyph unicode="[" horiz-adv-x="500" d="M15 -222l336 1724h322l-24 -115h-169l-291 -1494h170l-21 -115h-323z" />
<glyph unicode="\" horiz-adv-x="567" d="M193 1533h134l110 -1584h-134z" />
<glyph unicode="]" horiz-adv-x="500" d="M-84 -224l20 117h169l291 1494h-170l24 115h320l-336 -1726h-318z" />
<glyph unicode="^" d="M90 714l534 778h120l232 -778h-141l-179 622l-418 -622h-148z" />
<glyph unicode="_" horiz-adv-x="1063" d="M-140 -279l26 131h1062l-25 -131h-1063z" />
<glyph unicode="`" horiz-adv-x="911" d="M464 1551l145 60l154 -388l-92 -41z" />
<glyph unicode="a" horiz-adv-x="960" d="M78 306q0 57 8 123t19 121q21 107 53.5 203t82 167t121 113t167.5 42q72 0 131.5 -29t92.5 -85q2 0 2 1.5t2 1.5l21 101h168l-206 -1065h-170l19 99q-2 0 -3 1t-3 1q-54 -60 -107 -87t-141 -27q-131 0 -194 86.5t-63 232.5zM256 342q0 -36 6.5 -70t23.5 -59.5t46 -40 t76 -14.5q76 0 126.5 50t74.5 110q19 50 36.5 107t29 111.5t19 106.5t7.5 92q0 80 -37.5 125t-115.5 45q-51 0 -95.5 -22.5t-78.5 -76.5q-26 -38 -48.5 -109t-39.5 -149q-13 -62 -21.5 -115t-8.5 -91z" />
<glyph unicode="b" horiz-adv-x="921" d="M19 0l303 1561h170l-118 -609h4q51 56 122.5 88.5t148.5 32.5q133 0 188 -77.5t55 -197.5q0 -26 -3 -64.5t-9.5 -85t-15 -95t-17.5 -93.5q-19 -90 -50.5 -175t-79.5 -150.5t-118 -106.5t-164 -41q-82 0 -134.5 28t-87.5 86q-2 0 -2 -1t-2 -1l-22 -99h-168zM265 303 q0 -61 35 -106t111 -45q66 0 111.5 30.5t75.5 82t50.5 119.5t37.5 143q12 56 20 114t8 94q0 86 -35.5 128t-122.5 42q-84 0 -136 -55.5t-78 -127.5q-34 -96 -55.5 -207t-21.5 -212z" />
<glyph unicode="c" horiz-adv-x="819" d="M62 318q0 62 9 124.5t19 125.5q19 101 55 193.5t94 162t139.5 111.5t191.5 42q115 0 196 -58t98 -167l-158 -78q-11 71 -52 105.5t-104 34.5q-66 0 -114.5 -30t-83 -80.5t-57 -116t-35.5 -135.5q-10 -49 -17 -99.5t-7 -95.5q0 -107 39 -157t136 -50q61 0 116.5 37 t83.5 99l146 -81q-53 -93 -148 -155.5t-226 -62.5q-98 0 -160.5 29t-98.5 76.5t-49 106.5t-13 119z" />
<glyph unicode="d" horiz-adv-x="919" d="M66 284q0 75 11 155t22 135q19 105 52.5 196.5t84 159.5t120.5 106.5t161 38.5q73 0 131 -30t94 -84h5l117 600h170q-75 -393 -151.5 -780t-153.5 -781h-170q4 24 8.5 49t8.5 50q-2 0 -2 1t-2 1q-53 -54 -113.5 -84t-146.5 -30q-69 0 -115.5 21.5t-75.5 60t-42 93.5 t-13 122zM248 331q0 -76 31 -124.5t123 -48.5q41 0 74 14.5t59.5 38t44 53t29.5 58.5q19 52 32 108t24 112q10 49 17.5 96.5t7.5 90.5q0 75 -35 124.5t-117 49.5q-70 0 -115 -31t-75 -81.5t-47 -115t-30 -131.5q-11 -58 -17 -113t-6 -100z" />
<glyph unicode="e" horiz-adv-x="889" d="M71 340q0 112 23 242t78.5 239.5t148 182.5t233.5 73q148 0 232 -69.5t84 -192.5q0 -86 -31 -156t-95.5 -120.5t-163 -77t-234.5 -26.5q-24 0 -52.5 1t-55.5 3q-6 -45 -6 -90q0 -39 8 -76t24.5 -63.5t48 -43t79.5 -16.5q28 0 60 10t63 26.5t58 39t44 47.5l142 -78 q-62 -92 -157 -150t-228 -58q-88 0 -147 29t-93.5 77.5t-48.5 113t-14 133.5zM267 589q24 -2 49.5 -3t48.5 -1q183 0 259.5 59.5t76.5 147.5q0 55 -43 90.5t-118 35.5q-112 0 -177.5 -88t-95.5 -241z" />
<glyph unicode="f" horiz-adv-x="554" d="M-166 -281l24 160q21 -4 35.5 -5t35.5 -1q38 0 62 12t39 30.5t22.5 41t11.5 43.5l179 914h-126l29 149h127l39 195q12 62 32.5 119t56.5 100t91.5 68t139.5 25q19 0 42 -2t46 -7q-4 -30 -11.5 -80.5t-13.5 -80.5q-35 8 -71 8q-41 0 -67 -15.5t-40 -40.5t-21.5 -55.5 t-13.5 -55.5l-37 -178h175l-29 -149h-174l-174 -890q-13 -62 -33.5 -119t-55.5 -100t-90.5 -69t-137.5 -26q-20 0 -44 2t-48 7z" />
<glyph unicode="g" horiz-adv-x="936" d="M-8 -254l141 96q25 -53 66 -84t111 -31q90 0 141.5 45t75.5 114q17 53 31 110.5t25 114.5h-4q-56 -64 -125 -91.5t-138 -27.5q-71 0 -118.5 21.5t-76.5 59.5t-40.5 91t-11.5 115q0 58 7.5 128.5t22.5 145.5t38 149t50 141q28 66 67 110.5t82.5 72.5t92.5 39.5t94 11.5 q71 0 130 -28.5t91 -84.5q3 0 3 1t2 1l21 99h170l-207 -1065q-17 -88 -42.5 -168t-72 -140t-122 -94.5t-190.5 -34.5q-112 0 -199.5 48.5t-114.5 134.5zM248 351v-18q0 -70 27 -117q31 -54 125 -54q84 0 138.5 55.5t81.5 126.5q28 80 43.5 165.5t24.5 165.5q1 26 1 53v28 q-1 42 -13.5 75t-44 54.5t-85.5 21.5q-64 0 -108 -25.5t-75.5 -73t-53 -114t-36.5 -150.5q-19 -107 -25 -193z" />
<glyph unicode="h" horiz-adv-x="954" d="M28 0l301 1563h172l-121 -619h7q62 69 132 100t141 31q121 0 191 -77q54 -60 54 -161q0 -29 -4 -61q0 -11 -12.5 -81.5t-33 -179.5t-47 -243t-51.5 -272h-174q24 121 48.5 243t44 224.5t32 170.5t12.5 76q3 21 3 41q0 53 -21 93q-29 56 -126 55q-92 0 -158.5 -61.5 t-86.5 -162.5l-134 -679h-169z" />
<glyph unicode="i" horiz-adv-x="418" d="M37 0l206 1065h172l-206 -1065h-172zM293 1323l34 173h172l-35 -173h-171z" />
<glyph unicode="j" horiz-adv-x="444" d="M-195 -428l29 161q6 0 24.5 -1t22.5 1q70 2 102 46.5t47 117.5l228 1168h175l-238 -1207q-10 -58 -33.5 -111t-62.5 -91.5t-92.5 -62t-125.5 -23.5h-39t-37 2zM308 1323l34 173h175l-35 -173h-174z" />
<glyph unicode="k" horiz-adv-x="934" d="M33 0l302 1563h170l-197 -1007h6l468 509h203l-381 -418l239 -647h-189l-180 523l-218 -242l-53 -281h-170z" />
<glyph unicode="l" horiz-adv-x="480" d="M78 178q0 41 6 80l258 1303h171q-61 -320 -123.5 -638.5t-124.5 -638.5q-5 -13 -5 -23.5v-22.5q0 -38 21.5 -61t69.5 -23h34l-32 -160h-29q-107 0 -176.5 42t-69.5 142z" />
<glyph unicode="m" horiz-adv-x="1521" d="M43 0l207 1063h171l-23 -115h6q56 62 123.5 92.5t141.5 30.5q94 0 150.5 -34.5t83.5 -96.5h2q69 64 140 99.5t161 35.5q91 0 145.5 -33t80.5 -86q26 -54 28 -120q0 -10 1 -20q0 -56 -12 -110l-140 -706h-172l138 706q6 30 4.5 63t-15.5 60t-43 44t-74 17q-54 0 -97.5 -19 t-76.5 -54t-55.5 -78.5t-31.5 -95.5l-123 -643h-174q28 148 51 258t39 194t27.5 145t20.5 111q2 21 2 40q1 17 -1 34q-4 35 -20 61.5t-47 43t-82 16.5q-99 0 -158.5 -74t-82.5 -195q-4 -19 -13 -68t-22 -112.5t-27 -136t-27 -135.5t-22.5 -113t-13.5 -69h-170z" />
<glyph unicode="n" d="M21 0l207 1065h172l-24 -119h7q60 69 130 99t141 30q60 0 108.5 -20.5t81.5 -56.5q34 -38 48 -90q9 -34 10 -73q0 -22 -3 -45q0 -11 -13 -84.5t-34 -184t-48.5 -247t-52.5 -274.5h-175q25 121 49 243t43.5 224.5t32.5 170.5t13 76q4 26 4 50q0 12 -1 23q-3 34 -20.5 61.5 t-50.5 42t-87 14.5q-93 0 -154 -64.5t-81 -161.5l-133 -679h-170z" />
<glyph unicode="o" horiz-adv-x="921" d="M78 299q0 84 10.5 161.5t25.5 146.5q21 101 56 187t80 142q115 139 304 139q84 0 145.5 -25.5t101.5 -69.5t59.5 -103.5t19.5 -125.5q0 -64 -12 -139.5t-25 -140.5q-24 -116 -58 -205.5t-86 -152t-126 -94.5t-177 -32q-88 0 -148.5 26t-98.5 70t-54.5 99.5t-16.5 116.5z M240 353v-19q0 -29 4 -58q6 -38 24 -66.5t52.5 -47t90.5 -18.5q90 0 135 46t76 122q18 47 34.5 104.5t28.5 115t18.5 111.5t6.5 97q0 91 -46.5 136t-121.5 45q-90 0 -148 -65q-35 -37 -63 -99t-50 -142q-16 -62 -26 -134.5t-15 -127.5z" />
<glyph unicode="p" horiz-adv-x="930" d="M-66 -423q71 374 143.5 743.5t146.5 744.5h170l-20 -99q2 0 2 -1t2 -1q54 53 115 83t147 30q112 0 179 -68.5t67 -208.5q0 -71 -9 -153.5t-21 -151.5q-19 -105 -49.5 -196.5t-80 -160.5t-122.5 -108.5t-178 -39.5q-64 0 -122.5 28.5t-94.5 84.5q-2 0 -2 -1t-2 -1 q-24 -131 -50 -262.5t-52 -261.5h-169zM265 327q0 -76 37.5 -121.5t110.5 -45.5q51 0 96 20t80 70q31 43 54.5 122.5t40.5 167.5q10 49 15 93t7 81q0 39 -5.5 74t-23 62.5t-47.5 42t-80 14.5q-82 0 -134.5 -54.5t-73.5 -119.5q-26 -82 -45.5 -165.5t-27.5 -161.5 q-2 -19 -3 -39.5t-1 -39.5z" />
<glyph unicode="q" horiz-adv-x="943" d="M86 306q0 69 14 165.5t38 195.5q18 84 52 159t82 131t115 88t155 32q71 0 133 -32t86 -86q2 0 2 1t2 1l20 104h172l-284 -1488h-178q26 135 52.5 267t54.5 265q-2 0 -2 1t-3 1q-109 -121 -250 -121h-5q-75 0 -124.5 25.5t-79 68.5t-41 99.5t-11.5 122.5zM267 333 q0 -76 31 -124.5t121 -48.5q58 0 101.5 32t75.5 83.5t53.5 117t34.5 132t18.5 127t5.5 103.5q0 62 -32 108t-110 46q-62 0 -107.5 -25.5t-76.5 -74t-52.5 -115t-36.5 -150.5q-11 -62 -18.5 -115t-7.5 -96z" />
<glyph unicode="r" horiz-adv-x="665" d="M39 0l206 1065h174l-29 -144h6q56 90 131 124q71 32 151 32h10q26 -2 49.5 -7t34.5 -14l-68 -190q-22 13 -51 18.5t-51 5.5q-99 0 -170 -62.5t-94 -184.5l-127 -643h-172z" />
<glyph unicode="s" horiz-adv-x="862" d="M15 211l145 77q26 -64 76 -102t136 -38q41 0 82 12t70.5 35.5t49 59t19.5 80.5q0 37 -18.5 58.5t-49 36.5t-71.5 24.5t-89 23.5q-109 36 -165 89t-56 153q0 82 30.5 149t82 113t122 70.5t154.5 24.5q125 0 207.5 -54.5t113.5 -152.5l-150 -78q-19 60 -64 91t-127 31 q-88 0 -142.5 -48.5t-54.5 -121.5q0 -51 51.5 -76t141.5 -48q58 -15 106 -34.5t82 -50t53.5 -73.5t19.5 -101q0 -90 -31 -160t-86.5 -117t-130.5 -72t-165 -25q-129 0 -221.5 57t-120.5 167z" />
<glyph unicode="t" horiz-adv-x="537" d="M105 149q-2 16 -2 34q0 29 6 60l131 678h-117q6 37 12.5 71t14.5 71h119l53 275h173l-54 -275h150q-8 -37 -14.5 -71.5t-12.5 -70.5h-151l-123 -631q-6 -29 -7 -52t7.5 -41.5t28 -27.5t55.5 -9h56l-32 -162h-82q-69 0 -112.5 20.5t-68 53.5t-30.5 77z" />
<glyph unicode="u" horiz-adv-x="954" d="M82 273q0 11 12.5 84t34 184t49 247.5t52.5 276.5h172q-24 -121 -47.5 -244.5t-42.5 -226t-32 -170t-13 -75.5q-5 -29 -5 -55v-19q2 -35 16.5 -61.5t45.5 -43t87 -16.5q45 0 86 21.5t74 57.5t55.5 82t33.5 96l130 654h169l-206 -1065h-172l23 114h-7q-59 -69 -129 -98 t-139 -29q-133 -1 -199 77q-51 61 -52 155q0 26 4 54z" />
<glyph unicode="v" horiz-adv-x="823" d="M88 1063h177l38 -441q9 -90 14 -184q4 -67 4 -146q0 -31 -1 -64h7q61 96 113 193.5t98.5 199t88.5 210.5t85 232h187q-54 -146 -111 -283t-120.5 -267t-136.5 -257t-161 -256h-167z" />
<glyph unicode="w" horiz-adv-x="1350" d="M94 1065h179l24 -517q2 -37 3 -71t2 -69.5t1 -76.5t-2 -88h9q101 182 183.5 390t162.5 432h193l29 -456q4 -80 5 -164v-35q0 -71 -3 -158h6q54 97 99 188t87 187.5t81 203.5t82 234h178q-49 -153 -102 -289t-114.5 -263.5t-131.5 -254.5t-149 -258h-169l-29 511 q-2 56 -4 137q-1 27 -1 54q0 54 3 106h-10q-41 -124 -80 -227t-82 -197t-91.5 -186.5t-106.5 -197.5h-172z" />
<glyph unicode="x" horiz-adv-x="837" d="M-60 0l415 546q-11 21 -26 62t-33.5 92t-38 105.5t-37 105t-34 91.5t-24.5 63h191l115 -375q17 24 54 76.5t75.5 112t75.5 111t54 75.5h206l-400 -523q15 -33 43 -109t59.5 -162t59 -162t42.5 -109h-191l-123 390q-19 -25 -57.5 -79.5t-80.5 -116t-80.5 -116t-58.5 -78.5 h-206z" />
<glyph unicode="y" horiz-adv-x="806" d="M-140 -281q112 14 201 71.5t154 164.5l-121 1110h179l39 -478q8 -92 14 -211q3 -70 3 -134q0 -47 -2 -92h6q51 95 101 208t96 232.5t89.5 240.5t79.5 234h179q-64 -191 -123.5 -353t-120 -304.5t-123 -271t-135.5 -247.5q-97 -158 -222 -242q-123 -82 -280 -82h-7z" />
<glyph unicode="z" horiz-adv-x="786" d="M-41 0l31 152l617 757h-441l27 154h638l-29 -149l-611 -750h465l-32 -164h-665z" />
<glyph unicode="{" horiz-adv-x="521" d="M64 597l22 111q43 6 76 30.5t59.5 62.5t43 86.5t28.5 99.5l58 293q17 97 80.5 156.5t157.5 59.5h112l-22 -113h-55q-35 0 -58.5 -15.5t-39 -39t-23.5 -52.5t-15 -57l-53 -279q-13 -70 -40 -120t-57 -84.5t-58 -52.5t-46 -25l-2 -6q15 -6 36.5 -24.5t37.5 -53t24 -84 t-6 -116.5l-57 -305q-13 -73 -2.5 -124.5t66.5 -51.5h59l-22 -115h-91q-96 0 -143.5 66t-28.5 171l59 307q21 115 1.5 190t-101.5 85z" />
<glyph unicode="|" horiz-adv-x="444" d="M154 -346v1899h139v-1899h-139z" />
<glyph unicode="}" horiz-adv-x="521" d="M-90 -222l21 115h54q62 0 92 53.5t46 133.5l51 273q13 66 39.5 117t56 85t58.5 52.5t46 24.5l2 6q-17 7 -37.5 25t-36.5 52t-22.5 84t6.5 119l54 278q9 41 12 75t-2.5 58.5t-22.5 39t-50 14.5h-60l21 109h100q105 0 145 -65.5t20 -166.5l-58 -292q-10 -53 -11 -102 t9.5 -86.5t34 -61t64.5 -28.5l-21 -109q-84 -11 -133.5 -90.5t-71.5 -187.5l-60 -307q-17 -97 -79.5 -157.5t-166.5 -60.5h-100z" />
<glyph unicode="~" d="M62 531q60 86 131.5 132.5t150.5 46.5q52 0 94 -18.5t81.5 -41t78 -41t81.5 -18.5t81 22.5t81 81.5l99 -67q-54 -90 -120.5 -138.5t-154.5 -48.5q-43 0 -85 18.5t-85 40t-86.5 39t-88.5 17.5q-49 0 -81 -25.5t-81 -74.5z" />
<glyph unicode="&#xa1;" horiz-adv-x="505" d="M56 -435l234 1116h136l-200 -1116h-170zM301 870l39 193h183l-39 -193h-183z" />
<glyph unicode="&#xa2;" horiz-adv-x="862" d="M62 318q0 62 9 124.5t19 125.5q17 97 51.5 186t87 159t128.5 113t176 49l43 218h93l-43 -220q94 -15 157.5 -71t80.5 -150l-158 -78q-9 56 -38.5 89.5t-74.5 43.5l-146 -755q52 11 96 46.5t68 87.5l146 -81q-49 -88 -136.5 -147.5t-205.5 -67.5l-45 -242h-93l47 244 q-79 8 -130.5 39t-80.5 76t-40 100t-11 111zM236 357q0 -90 27 -139.5t94 -63.5l144 753q-54 -10 -93.5 -43t-68.5 -82t-48.5 -108t-30.5 -122q-10 -49 -17 -99.5t-7 -95.5z" />
<glyph unicode="&#xa3;" d="M-6 0q4 37 11.5 72t13.5 72q94 111 160 228.5t94 267.5h-162l29 140h141q0 76 -12.5 155.5t-12.5 143.5q0 93 29 171.5t81.5 135.5t127 89.5t164.5 32.5q160 0 241.5 -78t98.5 -230l-161 -49q-9 41 -21 77t-32.5 62t-53.5 41t-83 15q-56 0 -95 -23.5t-63.5 -64.5 t-36 -92.5t-11.5 -107.5q0 -57 10.5 -124.5t10.5 -129.5q0 -6 -1 -11t-1 -13h264l-29 -140h-250q-30 -150 -79.5 -261.5t-129.5 -216.5h554l-31 -162h-765z" />
<glyph unicode="&#xa5;" d="M69 355l21 111h286l22 115v55h-273q4 29 9.5 55.5t11.5 55.5h232q-41 189 -78.5 374.5t-77.5 374.5h174l121 -700h2q19 37 43.5 79.5t66.5 118t109.5 194.5t175.5 308h178l-449 -749h237q-4 -29 -10 -55.5t-12 -55.5h-275l-24 -55q-5 -29 -10 -56.5t-11 -58.5h287 l-21 -111h-287l-72 -355h-161l71 355h-286z" />
<glyph unicode="&#xa7;" horiz-adv-x="956" d="M26 -13l103 107q52 -61 112 -85t133 -24q111 0 185.5 54.5t74.5 151.5q0 62 -52.5 116t-162.5 110q-121 62 -186 122.5t-65 159.5q0 101 47 170t134 124q-31 39 -47 77t-16 93q0 82 32.5 146.5t87 109t126.5 68t154 23.5q105 0 191.5 -33.5t142.5 -95.5l-111 -117 q-55 58 -113.5 78.5t-116.5 20.5q-94 0 -156.5 -54.5t-62.5 -130.5q0 -32 17.5 -58t45 -49.5t64.5 -45t76 -40.5q45 -24 92 -53t87 -65t64.5 -84t24.5 -108q0 -99 -48 -170.5t-124 -126.5q21 -35 33 -75.5t12 -85.5q0 -82 -31 -150.5t-87 -119t-137 -80t-177 -29.5 q-105 0 -200.5 42t-145.5 107zM333 733q0 -47 34.5 -83.5t84 -66t105.5 -55t99 -50.5q54 24 83 74t29 104q0 60 -50.5 102t-145.5 85q-26 13 -51.5 28t-56.5 32q-51 -19 -91 -68.5t-40 -101.5z" />
<glyph unicode="&#xa8;" horiz-adv-x="907" d="M353 1275l37 180h164l-33 -180h-168zM708 1275l36 180h165l-33 -180h-168z" />
<glyph unicode="&#xa9;" horiz-adv-x="1619" d="M109 733q0 162 50 300.5t141.5 239.5t221.5 158t289 57q157 0 285.5 -57t221 -158t142.5 -239.5t50 -300.5t-50 -298t-142.5 -237t-221 -158t-285.5 -57q-162 0 -291.5 57t-221 158t-140.5 237.5t-49 297.5zM238 733q0 -133 41 -247t116.5 -200t180.5 -134.5t235 -48.5 q131 0 236.5 48.5t179.5 134.5t114 200t40 247t-41 249.5t-115 201t-179.5 134.5t-234.5 50q-134 0 -239.5 -50t-179.5 -134.5t-114 -201t-40 -249.5zM529 550v336q0 127 76 209.5t212 82.5q109 0 184.5 -57.5t92.5 -163.5l-122 -41q-10 62 -51 102t-104 40 q-78 0 -118.5 -53t-40.5 -117v-340q0 -66 42 -118t117 -52q125 0 155 145l122 -41q-19 -111 -93 -168.5t-184 -57.5q-133 0 -210.5 81.5t-77.5 212.5z" />
<glyph unicode="&#xaa;" horiz-adv-x="663" d="M127 788q0 47 6.5 96t14.5 92q15 70 38 130t57 105t84.5 71.5t119.5 26.5q43 0 81 -14.5t61 -47.5l11 58h137l-140 -705h-135l14 60q-64 -69 -168 -69q-82 0 -131.5 53t-49.5 144zM269 831q0 -50 19.5 -79.5t74.5 -29.5q50 0 81.5 31.5t43.5 65.5q24 58 39 121.5 t21 119.5q4 46 -15.5 83t-78.5 37q-70 0 -108 -58q-16 -28 -33.5 -81.5t-28.5 -104.5q-7 -33 -11 -62t-4 -43z" />
<glyph unicode="&#xab;" horiz-adv-x="960" d="M105 499l325 400h172l-327 -402l168 -398h-166zM464 499l326 400h171l-325 -402l166 -398h-166z" />
<glyph unicode="&#xac;" d="M64 566l26 133h862l-100 -516h-146l72 383h-714z" />
<glyph unicode="&#xae;" horiz-adv-x="1124" d="M129 1056q0 99 30 184t87 146t136.5 96.5t179.5 35.5q96 0 174.5 -35.5t135.5 -96.5t87 -146t30 -184q0 -98 -30 -182t-87 -145.5t-135.5 -96.5t-174.5 -35q-99 0 -179 35t-137 96.5t-87 145t-30 182.5zM217 1058q0 -82 25 -151.5t70 -120.5t108.5 -79t141.5 -28 q80 0 143 29t106 80t66.5 119.5t23.5 150.5q0 80 -23.5 150t-69 121.5t-107.5 81.5t-139 30q-82 0 -145.5 -30t-107.5 -81.5t-68 -122t-24 -149.5zM400 778v549h183q71 0 114 -42t43 -119q0 -106 -91 -149q26 -59 54 -118.5t54 -120.5h-101q-24 56 -47.5 113t-46.5 113h-72 v-226h-90zM490 1084h76q35 0 59 19t24 63q0 38 -21 58.5t-54 20.5h-84v-161z" />
<glyph unicode="&#xaf;" horiz-adv-x="919" d="M344 1278l30 152h547l-33 -152h-544z" />
<glyph unicode="&#xb0;" horiz-adv-x="715" d="M109 1256q0 51 19.5 97.5t54 81t81 55t97.5 20.5q56 0 102 -20.5t81 -55t53 -81t18 -97.5q0 -52 -20.5 -98t-55 -80.5t-80.5 -55t-98 -20.5q-51 0 -97.5 20.5t-81 55t-54 80.5t-19.5 98zM215 1256q0 -62 42 -105t104 -43t104 43t42 105t-42 104t-104 42q-60 0 -103 -42 t-43 -104z" />
<glyph unicode="&#xb1;" d="M-37 0l27 133h853l-26 -133h-854zM80 597l25 134h361l72 363h131l-69 -363h359l-26 -134h-359l-71 -363h-133l71 363h-361z" />
<glyph unicode="&#xb4;" horiz-adv-x="911" d="M554 1230l224 372l153 -53l-279 -359z" />
<glyph unicode="&#xb6;" horiz-adv-x="1034" d="M174 981q0 88 28 182.5t82 173t132.5 129t178.5 50.5h568l-30 -157h-95l-298 -1535h-153l299 1535h-159l-297 -1535h-155l168 873h-53q-56 0 -96 22.5t-67 61t-40 90.5t-13 110z" />
<glyph unicode="&#xb7;" horiz-adv-x="464" d="M162 464l41 217h203l-41 -217h-203z" />
<glyph unicode="&#xb8;" horiz-adv-x="926" d="M90 -413l43 91q37 -19 74.5 -25t65.5 -6q43 0 77.5 22.5t34.5 65.5q0 80 -99 80h-21l-33 33l106 218l85 -4l-74 -163q47 -4 79 -18t50.5 -34.5t25.5 -44.5t7 -47q0 -32 -12.5 -68t-41.5 -64.5t-74 -48t-108 -19.5h-30.5t-47.5 3t-55 9.5t-52 19.5z" />
<glyph unicode="&#xba;" horiz-adv-x="636" d="M123 804q0 56 7.5 105.5t17.5 92.5q17 66 40 123t52 94q35 43 86.5 67.5t120.5 24.5q121 0 181 -63.5t60 -153.5q0 -43 -7.5 -92.5t-17.5 -90.5q-33 -148 -103 -233t-211 -85q-62 0 -105.5 17.5t-70.5 46.5t-38.5 67.5t-11.5 79.5zM254 827q0 -21 3 -40t15 -35.5t32 -26 t55 -9.5q49 0 82 28t49 73q24 62 43 139.5t19 131.5q0 51 -31 77.5t-76 26.5q-49 0 -90 -37q-24 -24 -40 -60.5t-29 -79.5q-13 -47 -22.5 -100t-9.5 -88z" />
<glyph unicode="&#xbb;" horiz-adv-x="960" d="M28 99l331 404l-174 396h166l176 -400l-332 -400h-167zM387 99l329 404l-172 396h166l176 -400l-332 -400h-167z" />
<glyph unicode="&#xbf;" horiz-adv-x="932" d="M76 -119q0 67 13.5 120t37 96t55 81.5t66.5 75.5q32 35 67.5 69t67.5 72t56.5 76t34.5 79l25 129h178q-6 -36 -13.5 -71.5t-16.5 -71.5q-11 -58 -45 -112t-77 -104.5t-90.5 -100t-86 -99t-64.5 -100t-26 -104.5q0 -74 43 -130.5t144 -56.5q54 0 96 19.5t72 51.5t48 75 t25 90l178 -36q-43 -198 -152 -283t-286 -85q-154 0 -252 86t-98 234zM536 876l38 191h181l-39 -191h-180z" />
<glyph unicode="&#xc0;" horiz-adv-x="1055" d="M-69 0l721 1496h161l139 -1496h-178l-23 340h-476l-156 -340h-188zM346 501h394l-30 387l-24 342h-7l-148 -338zM387 1770l87 130l337 -244l-54 -86z" />
<glyph unicode="&#xc1;" horiz-adv-x="1055" d="M-69 0l721 1496h161l139 -1496h-178l-23 340h-476l-156 -340h-188zM346 501h394l-30 387l-24 342h-7l-148 -338zM654 1650l361 250l93 -126l-398 -208z" />
<glyph unicode="&#xc2;" horiz-adv-x="1055" d="M-69 0l721 1496h161l139 -1496h-178l-23 340h-476l-156 -340h-188zM346 501h394l-30 387l-24 342h-7l-148 -338zM376 1647l355 269h108l234 -264l-75 -72l-237 172l-326 -176z" />
<glyph unicode="&#xc3;" horiz-adv-x="1055" d="M-69 0l721 1496h161l139 -1496h-178l-23 340h-476l-156 -340h-188zM346 501h394l-30 387l-24 342h-7l-148 -338zM396 1662q49 84 111.5 129t124.5 45q35 0 68 -14t65.5 -29.5t62.5 -30t58 -14.5q31 0 60.5 19.5t68.5 68.5l93 -59q-52 -99 -114.5 -138t-117.5 -39 q-37 0 -70.5 12.5t-65.5 29t-62.5 30.5t-57.5 14q-33 0 -60 -22.5t-68 -65.5z" />
<glyph unicode="&#xc4;" horiz-adv-x="1055" d="M-69 0l721 1496h161l139 -1496h-178l-23 340h-476l-156 -340h-188zM346 501h394l-30 387l-24 342h-7l-148 -338zM488 1609l35 180h167l-34 -180h-168zM847 1609l35 180h167l-34 -180h-168z" />
<glyph unicode="&#xc5;" horiz-adv-x="1055" d="M-69 0l721 1496h161l139 -1496h-178l-23 340h-476l-156 -340h-188zM346 501h394l-30 387l-24 342h-7l-148 -338zM581 1697q0 47 19.5 90t52.5 76t77 52.5t95 19.5q76 0 123 -47t47 -118q0 -51 -21.5 -95.5t-55.5 -76.5t-78 -49.5t-89 -17.5q-76 0 -123 47t-47 119z M675 1712q0 -41 24.5 -66t65.5 -25q52 0 93 39t41 95q0 36 -26 62t-67 26q-51 0 -91 -40t-40 -91z" />
<glyph unicode="&#xc6;" horiz-adv-x="1722" d="M-39 0q236 376 473 748t473 748h893l-23 -167h-614l-71 -490h527l-21 -162h-527l-71 -505h615l-23 -172h-796l58 415h-446l-262 -415h-185zM511 576h365l111 755h-4z" />
<glyph unicode="&#xc7;" horiz-adv-x="1008" d="M99 344q0 41 11 115t23 143q17 90 36.5 183t37.5 183q19 101 51 197.5t89 173t145.5 123t219.5 46.5q185 0 277.5 -90.5t100.5 -239.5l-181 -53q0 96 -51.5 154.5t-147.5 58.5q-72 0 -120 -20.5t-81 -55.5t-54.5 -78t-37.5 -88q-37 -123 -59.5 -254.5t-47.5 -260.5 q-11 -52 -21 -108t-10 -103q0 -48 10 -86.5t33.5 -67.5t62 -45.5t99.5 -16.5q101 0 176 57.5t112 166.5l172 -66q-56 -154 -168.5 -237t-278.5 -88l-41 -88q47 -4 79.5 -18t50.5 -34.5t26 -44.5t8 -47q0 -32 -13.5 -68t-42 -64.5t-74 -48t-107.5 -19.5h-31t-48 3t-54.5 9.5 t-52.5 19.5l43 91q37 -19 75 -25t65 -6q43 0 77.5 22.5t34.5 65.5q0 80 -98 80h-22l-32 33l68 144q-159 16 -234 113.5t-75 238.5z" />
<glyph unicode="&#xc8;" horiz-adv-x="964" d="M51 0l291 1496h785l-35 -165h-606l-94 -492h519l-29 -162h-521l-101 -511h606l-29 -166h-786zM415 1770l86 130l338 -244l-54 -86z" />
<glyph unicode="&#xc9;" horiz-adv-x="964" d="M51 0l291 1496h785l-35 -165h-606l-94 -492h519l-29 -162h-521l-101 -511h606l-29 -166h-786zM632 1650l361 250l93 -126l-398 -208z" />
<glyph unicode="&#xca;" horiz-adv-x="964" d="M51 0l291 1496h785l-35 -165h-606l-94 -492h519l-29 -162h-521l-101 -511h606l-29 -166h-786zM394 1647l355 269h107l234 -264l-75 -72l-237 172l-326 -176z" />
<glyph unicode="&#xcb;" horiz-adv-x="964" d="M51 0l291 1496h785l-35 -165h-606l-94 -492h519l-29 -162h-521l-101 -511h606l-29 -166h-786zM474 1609l33 180h168l-35 -180h-166zM833 1609l33 180h168l-34 -180h-167z" />
<glyph unicode="&#xcc;" horiz-adv-x="459" d="M54 0l292 1496h179l-291 -1496h-180zM97 1770l86 130l338 -244l-55 -86z" />
<glyph unicode="&#xcd;" horiz-adv-x="459" d="M54 0l292 1496h179l-291 -1496h-180zM398 1650l361 250l93 -126l-398 -208z" />
<glyph unicode="&#xce;" horiz-adv-x="459" d="M54 0l292 1496h179l-291 -1496h-180zM99 1647l355 269h108l234 -264l-76 -72l-236 172l-326 -176z" />
<glyph unicode="&#xcf;" horiz-adv-x="459" d="M54 0l292 1496h179l-291 -1496h-180zM195 1628l35 180h166l-35 -180h-166zM550 1628l35 180h166l-35 -180h-166z" />
<glyph unicode="&#xd0;" horiz-adv-x="1106" d="M49 0l138 708h-138l27 133h137l127 655h393q174 0 278.5 -79t104.5 -249q0 -67 -15 -183.5t-38 -244.5q-13 -77 -29.5 -155t-33.5 -145.5t-34.5 -120t-32.5 -83.5q-79 -142 -189 -189t-245 -47h-450zM258 164h222q90 0 150 22.5t101 64.5t63.5 102t38.5 135l70 368 q6 32 13 71t12 74t9.5 65t4.5 46q6 101 -47.5 160t-186.5 59h-222l-94 -490h176l-28 -133h-175z" />
<glyph unicode="&#xd1;" horiz-adv-x="1192" d="M47 0l293 1496h171l261 -795l98 -305h8l212 1100h176l-290 -1496h-170l-266 813l-95 299h-6l-213 -1112h-179zM478 1652q49 84 111.5 129t124.5 45q35 0 68 -14t65.5 -30.5t62.5 -30t58 -13.5q31 0 60.5 19.5t67.5 68.5l94 -61q-52 -99 -114.5 -137.5t-118.5 -38.5 q-37 0 -70 13t-65 29t-62.5 30t-58.5 14q-32 0 -59 -22.5t-68 -65.5z" />
<glyph unicode="&#xd2;" horiz-adv-x="1067" d="M101 287q-13 87 4 181l117 595q14 75 45.5 154.5t88.5 144t142 105.5t206 41q116 0 195.5 -41t125.5 -105.5t61 -145.5t0 -162l-110 -617q-40 -218 -160.5 -334t-316.5 -116q-123 0 -206.5 39.5t-131 106.5t-60.5 154zM275 348.5q4 -55.5 28 -99.5t72 -70.5t126 -26.5 q114 0 190.5 71.5t100.5 195.5l122 635q6 35 3 82.5t-27 93t-74.5 77t-138.5 31.5q-73 0 -122.5 -29t-82.5 -71t-50.5 -92t-25.5 -90l-112 -592q-13 -60 -9 -115.5zM495 1770l86 130l337 -244l-54 -86z" />
<glyph unicode="&#xd3;" horiz-adv-x="1067" d="M101 287q-13 87 4 181l117 595q14 75 45.5 154.5t88.5 144t142 105.5t206 41q116 0 195.5 -41t125.5 -105.5t61 -145.5t0 -162l-110 -617q-40 -218 -160.5 -334t-316.5 -116q-123 0 -206.5 39.5t-131 106.5t-60.5 154zM275 348.5q4 -55.5 28 -99.5t72 -70.5t126 -26.5 q114 0 190.5 71.5t100.5 195.5l122 635q6 35 3 82.5t-27 93t-74.5 77t-138.5 31.5q-73 0 -122.5 -29t-82.5 -71t-50.5 -92t-25.5 -90l-112 -592q-13 -60 -9 -115.5zM654 1647q90 65 180.5 127t180.5 126l91 -126q-99 -53 -198.5 -105t-199.5 -106z" />
<glyph unicode="&#xd4;" horiz-adv-x="1067" d="M101 287q-13 87 4 181l117 595q14 75 45.5 154.5t88.5 144t142 105.5t206 41q116 0 195.5 -41t125.5 -105.5t61 -145.5t0 -162l-110 -617q-40 -218 -160.5 -334t-316.5 -116q-123 0 -206.5 39.5t-131 106.5t-60.5 154zM275 348.5q4 -55.5 28 -99.5t72 -70.5t126 -26.5 q114 0 190.5 71.5t100.5 195.5l122 635q6 35 3 82.5t-27 93t-74.5 77t-138.5 31.5q-73 0 -122.5 -29t-82.5 -71t-50.5 -92t-25.5 -90l-112 -592q-13 -60 -9 -115.5zM404 1647l355 269h107l235 -264l-75 -72l-236 172l-328 -176z" />
<glyph unicode="&#xd5;" horiz-adv-x="1067" d="M101 287q-13 87 4 181l117 595q14 75 45.5 154.5t88.5 144t142 105.5t206 41q116 0 195.5 -41t125.5 -105.5t61 -145.5t0 -162l-110 -617q-40 -218 -160.5 -334t-316.5 -116q-123 0 -206.5 39.5t-131 106.5t-60.5 154zM275 348.5q4 -55.5 28 -99.5t72 -70.5t126 -26.5 q114 0 190.5 71.5t100.5 195.5l122 635q6 35 3 82.5t-27 93t-74.5 77t-138.5 31.5q-73 0 -122.5 -29t-82.5 -71t-50.5 -92t-25.5 -90l-112 -592q-13 -60 -9 -115.5zM433 1662q49 84 111.5 129t124.5 45q35 0 68 -14t65.5 -29.5t62.5 -30t58 -14.5q30 0 60 19.5t68 68.5 l93 -59q-51 -99 -113.5 -138t-119.5 -39q-36 0 -69.5 12.5t-65.5 29t-62 30.5t-58 14q-32 0 -59 -22.5t-68 -65.5z" />
<glyph unicode="&#xd6;" horiz-adv-x="1067" d="M101 287q-13 87 4 181l117 595q14 75 45.5 154.5t88.5 144t142 105.5t206 41q116 0 195.5 -41t125.5 -105.5t61 -145.5t0 -162l-110 -617q-40 -218 -160.5 -334t-316.5 -116q-123 0 -206.5 39.5t-131 106.5t-60.5 154zM275 348.5q4 -55.5 28 -99.5t72 -70.5t126 -26.5 q114 0 190.5 71.5t100.5 195.5l122 635q6 35 3 82.5t-27 93t-74.5 77t-138.5 31.5q-73 0 -122.5 -29t-82.5 -71t-50.5 -92t-25.5 -90l-112 -592q-13 -60 -9 -115.5zM501 1609l35 180h168l-35 -180h-168zM860 1609l35 180h168l-35 -180h-168z" />
<glyph unicode="&#xd8;" horiz-adv-x="1067" d="M58 39l84 123q-37 64 -45.5 142.5t8.5 163.5l117 595q14 75 45.5 154.5t88.5 144t142 105.5t206 41q100 0 173 -31.5t121 -83.5l81 117l78 -55l-101 -146q29 -57 34.5 -123t-4.5 -132l-110 -617q-40 -218 -160.5 -334t-316.5 -116q-101 0 -175 26t-124 73l-71 -101z M275 351l613 884q-24 43 -74.5 73t-136.5 30q-73 0 -122.5 -29t-82.5 -71t-50.5 -92t-25.5 -90l-112 -592q-13 -53 -9 -113zM308 238q24 -38 71 -62t122 -24q114 0 190.5 71.5t100.5 195.5l122 635q2 13 4.5 27.5t-0.5 32.5z" />
<glyph unicode="&#xd9;" horiz-adv-x="1102" d="M119 285q-8 85 8 175q21 116 48.5 255t54 279.5t51.5 270.5t43 231h177q-19 -96 -45 -230.5t-54 -279.5t-55 -283.5t-46 -244.5q-10 -52 -10.5 -104.5t19 -94.5t61.5 -67.5t113 -25.5q84 0 142 29t96.5 78t61 115t35.5 137l190 971h177q-49 -250 -96 -494.5t-95 -492.5 q-19 -111 -57.5 -206.5t-100 -166t-148.5 -110t-205 -39.5q-127 0 -203 39.5t-115 106.5t-47 152zM476 1770l86 130l337 -244l-54 -86z" />
<glyph unicode="&#xda;" horiz-adv-x="1102" d="M119 285q-8 85 8 175q21 116 48.5 255t54 279.5t51.5 270.5t43 231h177q-19 -96 -45 -230.5t-54 -279.5t-55 -283.5t-46 -244.5q-10 -52 -10.5 -104.5t19 -94.5t61.5 -67.5t113 -25.5q84 0 142 29t96.5 78t61 115t35.5 137l190 971h177q-49 -250 -96 -494.5t-95 -492.5 q-19 -111 -57.5 -206.5t-100 -166t-148.5 -110t-205 -39.5q-127 0 -203 39.5t-115 106.5t-47 152zM663 1647q90 65 180 127t181 126l90 -126q-99 -53 -198 -105t-200 -106z" />
<glyph unicode="&#xdb;" horiz-adv-x="1102" d="M119 285q-8 85 8 175q21 116 48.5 255t54 279.5t51.5 270.5t43 231h177q-19 -96 -45 -230.5t-54 -279.5t-55 -283.5t-46 -244.5q-10 -52 -10.5 -104.5t19 -94.5t61.5 -67.5t113 -25.5q84 0 142 29t96.5 78t61 115t35.5 137l190 971h177q-49 -250 -96 -494.5t-95 -492.5 q-19 -111 -57.5 -206.5t-100 -166t-148.5 -110t-205 -39.5q-127 0 -203 39.5t-115 106.5t-47 152zM435 1647l355 269h107l234 -264l-75 -72l-237 172l-327 -176z" />
<glyph unicode="&#xdc;" horiz-adv-x="1102" d="M119 285q-8 85 8 175q21 116 48.5 255t54 279.5t51.5 270.5t43 231h177q-19 -96 -45 -230.5t-54 -279.5t-55 -283.5t-46 -244.5q-10 -52 -10.5 -104.5t19 -94.5t61.5 -67.5t113 -25.5q84 0 142 29t96.5 78t61 115t35.5 137l190 971h177q-49 -250 -96 -494.5t-95 -492.5 q-19 -111 -57.5 -206.5t-100 -166t-148.5 -110t-205 -39.5q-127 0 -203 39.5t-115 106.5t-47 152zM501 1609l35 180h168l-35 -180h-168zM860 1609l35 180h168l-35 -180h-168z" />
<glyph unicode="&#xdd;" horiz-adv-x="938" d="M219 1496h175l103 -505q8 -30 18 -76.5t18 -81.5l11 -2l155 263q58 103 117.5 202t116.5 200h192l-536 -870l-123 -626h-171l122 626q-49 219 -98.5 435.5t-99.5 434.5zM550 1647q90 65 180.5 127t180.5 126l91 -126q-99 -53 -197.5 -105t-200.5 -106z" />
<glyph unicode="&#xde;" horiz-adv-x="1040" d="M51 0l289 1492h179q-13 -69 -26 -139.5t-29 -139.5h250q170 0 261.5 -86t91.5 -243q0 -96 -25 -196.5t-85 -183.5t-159 -134.5t-250 -51.5h-255l-61 -318h-181zM324 484h246q84 0 143 32t96.5 84t55 115t17.5 126q0 84 -48.5 144t-158.5 60h-240z" />
<glyph unicode="&#xdf;" horiz-adv-x="948" d="M26 0l222 1141q17 93 46.5 168.5t76 130t113 85t156.5 30.5q173 0 250.5 -87t77.5 -233q0 -121 -52 -206t-151 -128q70 -31 94.5 -87.5t24.5 -129.5q0 -48 -8 -99.5t-14 -102.5q-13 -97 -39.5 -186t-76 -157t-126 -108.5t-190.5 -40.5h-79l27 148h28q78 0 128.5 33.5 t80.5 87t47 123.5t28 143q6 41 10 91.5t-6 95.5t-37 75t-83 30h-51l29 151h41q56 0 93.5 26t61.5 64t34 85t10 87q0 75 -40 121.5t-124 46.5q-52 0 -87.5 -22t-59 -57t-37.5 -79t-23 -89l-226 -1151h-169z" />
<glyph unicode="&#xe0;" horiz-adv-x="960" d="M78 306q0 57 8 123t19 121q21 107 53.5 203t82 167t121 113t167.5 42q72 0 131.5 -29t92.5 -85q2 0 2 1.5t2 1.5l21 101h168l-206 -1065h-170l19 99q-2 0 -3 1t-3 1q-54 -60 -107 -87t-141 -27q-131 0 -194 86.5t-63 232.5zM256 342q0 -36 6.5 -70t23.5 -59.5t46 -40 t76 -14.5q76 0 126.5 50t74.5 110q19 50 36.5 107t29 111.5t19 106.5t7.5 92q0 80 -37.5 125t-115.5 45q-51 0 -95.5 -22.5t-78.5 -76.5q-26 -38 -48.5 -109t-39.5 -149q-13 -62 -21.5 -115t-8.5 -91zM421 1551l145 60l154 -388l-92 -41z" />
<glyph unicode="&#xe1;" horiz-adv-x="960" d="M78 306q0 57 8 123t19 121q21 107 53.5 203t82 167t121 113t167.5 42q72 0 131.5 -29t92.5 -85q2 0 2 1.5t2 1.5l21 101h168l-206 -1065h-170l19 99q-2 0 -3 1t-3 1q-54 -60 -107 -87t-141 -27q-131 0 -194 86.5t-63 232.5zM256 342q0 -36 6.5 -70t23.5 -59.5t46 -40 t76 -14.5q76 0 126.5 50t74.5 110q19 50 36.5 107t29 111.5t19 106.5t7.5 92q0 80 -37.5 125t-115.5 45q-51 0 -95.5 -22.5t-78.5 -76.5q-26 -38 -48.5 -109t-39.5 -149q-13 -62 -21.5 -115t-8.5 -91zM523 1230l224 372l152 -53l-279 -359z" />
<glyph unicode="&#xe2;" horiz-adv-x="960" d="M78 306q0 57 8 123t19 121q21 107 53.5 203t82 167t121 113t167.5 42q72 0 131.5 -29t92.5 -85q2 0 2 1.5t2 1.5l21 101h168l-206 -1065h-170l19 99q-2 0 -3 1t-3 1q-54 -60 -107 -87t-141 -27q-131 0 -194 86.5t-63 232.5zM256 342q0 -36 6.5 -70t23.5 -59.5t46 -40 t76 -14.5q76 0 126.5 50t74.5 110q19 50 36.5 107t29 111.5t19 106.5t7.5 92q0 80 -37.5 125t-115.5 45q-51 0 -95.5 -22.5t-78.5 -76.5q-26 -38 -48.5 -109t-39.5 -149q-13 -62 -21.5 -115t-8.5 -91zM290 1258l362 314h107l228 -310l-92 -72l-211 220l-325 -224z" />
<glyph unicode="&#xe3;" horiz-adv-x="960" d="M78 306q0 57 8 123t19 121q21 107 53.5 203t82 167t121 113t167.5 42q72 0 131.5 -29t92.5 -85q2 0 2 1.5t2 1.5l21 101h168l-206 -1065h-170l19 99q-2 0 -3 1t-3 1q-54 -60 -107 -87t-141 -27q-131 0 -194 86.5t-63 232.5zM256 342q0 -36 6.5 -70t23.5 -59.5t46 -40 t76 -14.5q76 0 126.5 50t74.5 110q19 50 36.5 107t29 111.5t19 106.5t7.5 92q0 80 -37.5 125t-115.5 45q-51 0 -95.5 -22.5t-78.5 -76.5q-26 -38 -48.5 -109t-39.5 -149q-13 -62 -21.5 -115t-8.5 -91zM316 1307q49 84 111.5 129.5t124.5 45.5q35 0 68.5 -14.5t65.5 -30 t62 -30t58 -14.5q31 0 61 19.5t69 69.5l92 -60q-52 -99 -114 -138t-118 -39q-37 0 -70.5 12.5t-65.5 29t-62 30.5t-58 14q-33 0 -59.5 -22.5t-67.5 -65.5z" />
<glyph unicode="&#xe4;" horiz-adv-x="960" d="M78 306q0 57 8 123t19 121q21 107 53.5 203t82 167t121 113t167.5 42q72 0 131.5 -29t92.5 -85q2 0 2 1.5t2 1.5l21 101h168l-206 -1065h-170l19 99q-2 0 -3 1t-3 1q-54 -60 -107 -87t-141 -27q-131 0 -194 86.5t-63 232.5zM256 342q0 -36 6.5 -70t23.5 -59.5t46 -40 t76 -14.5q76 0 126.5 50t74.5 110q19 50 36.5 107t29 111.5t19 106.5t7.5 92q0 80 -37.5 125t-115.5 45q-51 0 -95.5 -22.5t-78.5 -76.5q-26 -38 -48.5 -109t-39.5 -149q-13 -62 -21.5 -115t-8.5 -91zM372 1275l36 180h166l-34 -180h-168zM727 1275l36 180h166l-34 -180 h-168z" />
<glyph unicode="&#xe5;" horiz-adv-x="960" d="M78 306q0 57 8 123t19 121q21 107 53.5 203t82 167t121 113t167.5 42q72 0 131.5 -29t92.5 -85q2 0 2 1.5t2 1.5l21 101h168l-206 -1065h-170l19 99q-2 0 -3 1t-3 1q-54 -60 -107 -87t-141 -27q-131 0 -194 86.5t-63 232.5zM256 342q0 -36 6.5 -70t23.5 -59.5t46 -40 t76 -14.5q76 0 126.5 50t74.5 110q19 50 36.5 107t29 111.5t19 106.5t7.5 92q0 80 -37.5 125t-115.5 45q-51 0 -95.5 -22.5t-78.5 -76.5q-26 -38 -48.5 -109t-39.5 -149q-13 -62 -21.5 -115t-8.5 -91zM460 1336q0 47 19.5 90t53 76t77.5 52.5t96 19.5q75 0 122.5 -47.5 t47.5 -118.5q0 -51 -21.5 -95.5t-56.5 -76.5t-79 -49t-89 -17q-76 0 -123 47t-47 119zM554 1350q0 -41 25 -65.5t66 -24.5q51 0 92 39t41 94q0 37 -25.5 63t-66.5 26q-52 0 -92 -40t-40 -92z" />
<glyph unicode="&#xe6;" horiz-adv-x="1457" d="M45 240q0 183 117 285.5t322 102.5q45 -2 88 -6.5t105 -12.5l27 150q12 76 -28 115.5t-134 39.5q-74 0 -130.5 -25t-84.5 -76l-127 82q49 86 145 134t217 48q39 0 81.5 -6t82 -20.5t72.5 -37t51 -52.5q52 49 123 82.5t159 33.5q152 0 234 -72t82 -194q0 -166 -118 -268 t-363 -108q-33 0 -68.5 1t-72.5 3q-4 -31 -8 -58.5t-4 -51.5q0 -97 37.5 -140t125.5 -43q65 0 127.5 36.5t92.5 90.5l129 -78q-53 -96 -147 -152t-226 -56q-111 0 -177.5 41t-97.5 118q-62 -90 -161 -124.5t-202 -34.5q-71 0 -122.5 20.5t-83.5 55t-47.5 80.5t-15.5 97z M213 277q0 -58 40 -92.5t123 -34.5q86 0 157 50t89 133l25 135q-52 7 -88 11.5t-75 6.5q-54 0 -103.5 -12t-86 -36.5t-59 -64.5t-22.5 -96zM854 589q28 -2 53.5 -3t51.5 -1q161 0 237.5 52.5t76.5 150.5q0 55 -42.5 89t-116.5 34q-62 0 -104 -21.5t-72.5 -63t-50 -101.5 t-33.5 -136z" />
<glyph unicode="&#xe7;" horiz-adv-x="819" d="M62 318q0 62 9 124.5t19 125.5q19 101 55 193.5t94 162t139.5 111.5t191.5 42q115 0 196 -58t98 -167l-158 -78q-11 71 -52 105.5t-104 34.5q-66 0 -114.5 -30t-83 -80.5t-57 -116t-35.5 -135.5q-10 -49 -17 -99.5t-7 -95.5q0 -107 39 -157t136 -50q61 0 116.5 37 t83.5 99l146 -81q-53 -93 -145.5 -154t-221.5 -64l-41 -88q47 -4 79 -18t50.5 -34.5t25.5 -44.5t7 -47q0 -32 -12.5 -68t-41.5 -64.5t-74 -48t-108 -19.5h-30.5t-47.5 3t-55 9.5t-52 19.5l43 91q37 -19 74.5 -25t65.5 -6q43 0 77.5 22.5t34.5 65.5q0 80 -99 80h-21l-33 33 l69 146q-73 12 -119.5 44.5t-73 77t-36.5 97t-10 105.5z" />
<glyph unicode="&#xe8;" horiz-adv-x="889" d="M71 340q0 112 23 242t78.5 239.5t148 182.5t233.5 73q148 0 232 -69.5t84 -192.5q0 -86 -31 -156t-95.5 -120.5t-163 -77t-234.5 -26.5q-24 0 -52.5 1t-55.5 3q-6 -45 -6 -90q0 -39 8 -76t24.5 -63.5t48 -43t79.5 -16.5q28 0 60 10t63 26.5t58 39t44 47.5l142 -78 q-62 -92 -157 -150t-228 -58q-88 0 -147 29t-93.5 77.5t-48.5 113t-14 133.5zM267 589q24 -2 49.5 -3t48.5 -1q183 0 259.5 59.5t76.5 147.5q0 55 -43 90.5t-118 35.5q-112 0 -177.5 -88t-95.5 -241zM365 1551l144 60l156 -388l-93 -41z" />
<glyph unicode="&#xe9;" horiz-adv-x="889" d="M71 340q0 112 23 242t78.5 239.5t148 182.5t233.5 73q148 0 232 -69.5t84 -192.5q0 -86 -31 -156t-95.5 -120.5t-163 -77t-234.5 -26.5q-24 0 -52.5 1t-55.5 3q-6 -45 -6 -90q0 -39 8 -76t24.5 -63.5t48 -43t79.5 -16.5q28 0 60 10t63 26.5t58 39t44 47.5l142 -78 q-62 -92 -157 -150t-228 -58q-88 0 -147 29t-93.5 77.5t-48.5 113t-14 133.5zM267 589q24 -2 49.5 -3t48.5 -1q183 0 259.5 59.5t76.5 147.5q0 55 -43 90.5t-118 35.5q-112 0 -177.5 -88t-95.5 -241zM492 1230l224 372l152 -53l-279 -359z" />
<glyph unicode="&#xea;" horiz-adv-x="889" d="M71 340q0 112 23 242t78.5 239.5t148 182.5t233.5 73q148 0 232 -69.5t84 -192.5q0 -86 -31 -156t-95.5 -120.5t-163 -77t-234.5 -26.5q-24 0 -52.5 1t-55.5 3q-6 -45 -6 -90q0 -39 8 -76t24.5 -63.5t48 -43t79.5 -16.5q28 0 60 10t63 26.5t58 39t44 47.5l142 -78 q-62 -92 -157 -150t-228 -58q-88 0 -147 29t-93.5 77.5t-48.5 113t-14 133.5zM252 1258l361 314h107l228 -310l-92 -72l-211 220l-325 -224zM267 589q24 -2 49.5 -3t48.5 -1q183 0 259.5 59.5t76.5 147.5q0 55 -43 90.5t-118 35.5q-112 0 -177.5 -88t-95.5 -241z" />
<glyph unicode="&#xeb;" horiz-adv-x="889" d="M71 340q0 112 23 242t78.5 239.5t148 182.5t233.5 73q148 0 232 -69.5t84 -192.5q0 -86 -31 -156t-95.5 -120.5t-163 -77t-234.5 -26.5q-24 0 -52.5 1t-55.5 3q-6 -45 -6 -90q0 -39 8 -76t24.5 -63.5t48 -43t79.5 -16.5q28 0 60 10t63 26.5t58 39t44 47.5l142 -78 q-62 -92 -157 -150t-228 -58q-88 0 -147 29t-93.5 77.5t-48.5 113t-14 133.5zM267 589q24 -2 49.5 -3t48.5 -1q183 0 259.5 59.5t76.5 147.5q0 55 -43 90.5t-118 35.5q-112 0 -177.5 -88t-95.5 -241zM353 1275l37 180h164l-33 -180h-168zM708 1275l36 180h165l-33 -180h-168 z" />
<glyph unicode="&#xec;" horiz-adv-x="418" d="M80 0l206 1065h172l-206 -1065h-172zM148 1551l145 60l154 -388l-92 -41z" />
<glyph unicode="&#xed;" horiz-adv-x="418" d="M37 0l206 1065h172l-206 -1065h-172zM288 1230l223 372l154 -53l-280 -359z" />
<glyph unicode="&#xee;" horiz-adv-x="550" d="M88 1258l361 314h107l229 -310l-93 -72l-210 220l-324 -224zM111 0l207 1065h172l-206 -1065h-173z" />
<glyph unicode="&#xef;" horiz-adv-x="494" d="M82 0l206 1065h172l-206 -1065h-172zM146 1275l37 180h166l-35 -180h-168zM501 1275l37 180h166l-35 -180h-168z" />
<glyph unicode="&#xf0;" horiz-adv-x="948" d="M76 284q0 61 6 128.5t17 125.5q17 111 55.5 206t83.5 153q54 69 127.5 100t157.5 31q32 0 66.5 -8.5t66.5 -24.5t59 -39t42 -53h6q9 39 11 74.5t2 71.5q0 45 -5.5 87t-17.5 79l-151 -97l-43 68l159 104q-39 60 -100.5 91.5t-137.5 40.5q12 36 22.5 70.5t24.5 70.5 q71 -6 125 -23.5t95 -42t69.5 -53.5t47.5 -59l179 113l43 -70l-185 -119q35 -88 35 -223q0 -110 -18.5 -279t-68.5 -362q-26 -103 -64 -188t-93.5 -145.5t-129.5 -92.5t-175 -32q-84 0 -143 25t-97 66t-54.5 94.5t-16.5 111.5zM238 329q0 -89 41 -137t132 -48q59 0 102 24.5 t76 69.5q19 29 38.5 80.5t35.5 114t27 132t11 132.5q0 86 -48 131t-122 45q-101 0 -161 -71q-25 -28 -48 -81.5t-41.5 -119t-30.5 -137.5t-12 -135z" />
<glyph unicode="&#xf1;" d="M21 0l207 1065h172l-24 -119h7q60 69 130 99t141 30q60 0 108.5 -20.5t82 -57t48 -89t6.5 -118.5q0 -11 -13 -84.5t-34 -184t-48.5 -247t-52.5 -274.5h-175q25 121 49 243t43.5 224.5t32.5 170.5t13 76q6 39 3 73t-20.5 61.5t-50.5 42t-87 14.5q-93 0 -154 -64.5 t-81 -161.5l-133 -679h-170zM269 1307q49 84 111.5 129.5t124.5 45.5q35 0 68.5 -14.5t65.5 -30t62 -30t58 -14.5q31 0 60.5 19.5t68.5 69.5l93 -60q-52 -99 -114.5 -138t-117.5 -39q-37 0 -70.5 12.5t-65.5 29t-62 30.5t-59 14q-32 0 -59 -22.5t-68 -65.5z" />
<glyph unicode="&#xf2;" horiz-adv-x="921" d="M78 299q0 84 10.5 161.5t25.5 146.5q21 101 56 187t80 142q115 139 304 139q84 0 145.5 -25.5t101.5 -69.5t59.5 -103.5t19.5 -125.5q0 -64 -12 -139.5t-25 -140.5q-24 -116 -58 -205.5t-86 -152t-126 -94.5t-177 -32q-88 0 -148.5 26t-98.5 70t-54.5 99.5t-16.5 116.5z M240 353q-2 -39 4 -77t24 -66.5t52.5 -47t90.5 -18.5q90 0 135 46t76 122q18 47 34.5 104.5t28.5 115t18.5 111.5t6.5 97q0 91 -46.5 136t-121.5 45q-90 0 -148 -65q-35 -37 -63 -99t-50 -142q-16 -62 -26 -134.5t-15 -127.5zM396 1551l144 60l155 -388l-93 -41z" />
<glyph unicode="&#xf3;" horiz-adv-x="921" d="M78 299q0 84 10.5 161.5t25.5 146.5q21 101 56 187t80 142q115 139 304 139q84 0 145.5 -25.5t101.5 -69.5t59.5 -103.5t19.5 -125.5q0 -64 -12 -139.5t-25 -140.5q-24 -116 -58 -205.5t-86 -152t-126 -94.5t-177 -32q-88 0 -148.5 26t-98.5 70t-54.5 99.5t-16.5 116.5z M240 353q-2 -39 4 -77t24 -66.5t52.5 -47t90.5 -18.5q90 0 135 46t76 122q18 47 34.5 104.5t28.5 115t18.5 111.5t6.5 97q0 91 -46.5 136t-121.5 45q-90 0 -148 -65q-35 -37 -63 -99t-50 -142q-16 -62 -26 -134.5t-15 -127.5zM548 1230l224 372l153 -53l-280 -359z" />
<glyph unicode="&#xf4;" horiz-adv-x="921" d="M78 299q0 84 10.5 161.5t25.5 146.5q21 101 56 187t80 142q115 139 304 139q84 0 145.5 -25.5t101.5 -69.5t59.5 -103.5t19.5 -125.5q0 -64 -12 -139.5t-25 -140.5q-24 -116 -58 -205.5t-86 -152t-126 -94.5t-177 -32q-88 0 -148.5 26t-98.5 70t-54.5 99.5t-16.5 116.5z M240 353q-2 -39 4 -77t24 -66.5t52.5 -47t90.5 -18.5q90 0 135 46t76 122q18 47 34.5 104.5t28.5 115t18.5 111.5t6.5 97q0 91 -46.5 136t-121.5 45q-90 0 -148 -65q-35 -37 -63 -99t-50 -142q-16 -62 -26 -134.5t-15 -127.5zM273 1258l361 314h108l228 -310l-92 -72 l-211 220l-325 -224z" />
<glyph unicode="&#xf5;" horiz-adv-x="921" d="M78 299q0 84 10.5 161.5t25.5 146.5q21 101 56 187t80 142q115 139 304 139q84 0 145.5 -25.5t101.5 -69.5t59.5 -103.5t19.5 -125.5q0 -64 -12 -139.5t-25 -140.5q-24 -116 -58 -205.5t-86 -152t-126 -94.5t-177 -32q-88 0 -148.5 26t-98.5 70t-54.5 99.5t-16.5 116.5z M240 353q-2 -39 4 -77t24 -66.5t52.5 -47t90.5 -18.5q90 0 135 46t76 122q18 47 34.5 104.5t28.5 115t18.5 111.5t6.5 97q0 91 -46.5 136t-121.5 45q-90 0 -148 -65q-35 -37 -63 -99t-50 -142q-16 -62 -26 -134.5t-15 -127.5zM252 1307q49 84 111.5 129.5t124.5 45.5 q35 0 68 -14.5t65.5 -30t62.5 -30t58 -14.5q31 0 61 19.5t67 69.5l94 -60q-52 -99 -114 -138t-119 -39q-37 0 -70 12.5t-65 29t-62.5 30.5t-57.5 14q-33 0 -59.5 -22.5t-67.5 -65.5z" />
<glyph unicode="&#xf6;" horiz-adv-x="921" d="M78 299q0 84 10.5 161.5t25.5 146.5q21 101 56 187t80 142q115 139 304 139q84 0 145.5 -25.5t101.5 -69.5t59.5 -103.5t19.5 -125.5q0 -64 -12 -139.5t-25 -140.5q-24 -116 -58 -205.5t-86 -152t-126 -94.5t-177 -32q-88 0 -148.5 26t-98.5 70t-54.5 99.5t-16.5 116.5z M240 353q-2 -39 4 -77t24 -66.5t52.5 -47t90.5 -18.5q90 0 135 46t76 122q18 47 34.5 104.5t28.5 115t18.5 111.5t6.5 97q0 91 -46.5 136t-121.5 45q-90 0 -148 -65q-35 -37 -63 -99t-50 -142q-16 -62 -26 -134.5t-15 -127.5zM355 1275l37 180h164l-33 -180h-168zM710 1275 l37 180h164l-33 -180h-168z" />
<glyph unicode="&#xf7;" d="M62 566l28 133h874l-26 -133h-876zM324 245q0 28 12.5 53.5t31.5 45t44.5 30.5t53.5 11q43 0 70.5 -27t27.5 -68q0 -29 -13 -54t-32.5 -44.5t-45.5 -30.5t-52 -11q-43 0 -70 27.5t-27 67.5zM464 974q0 56 44.5 98t100.5 42q43 0 70 -27t27 -70q0 -55 -45.5 -97t-98.5 -42 q-43 0 -70.5 27.5t-27.5 68.5z" />
<glyph unicode="&#xf8;" horiz-adv-x="921" d="M45 6l80 108q-26 39 -36.5 87.5t-10.5 97.5q0 84 10.5 161.5t25.5 146.5q21 101 56 187t80 142q115 139 304 139q76 0 131 -19.5t95 -55.5l76 104l73 -50l-92 -125q24 -39 33.5 -84t9.5 -94q0 -64 -12 -139.5t-25 -140.5q-24 -116 -58 -205.5t-86 -152t-126 -94.5 t-177 -32q-72 0 -124.5 16t-88.5 46l-69 -92zM240 353q-4 -45 3 -78l432 585q-45 61 -133 61q-90 0 -148 -65q-35 -37 -63 -99t-50 -142q-16 -62 -26 -134.5t-15 -127.5zM284 187q38 -43 127 -43q90 0 135 46t76 122q18 47 34.5 104.5t28.5 115t18.5 111.5t6.5 97v17z" />
<glyph unicode="&#xf9;" horiz-adv-x="954" d="M82 273q0 11 12.5 84t34 184t49 247.5t52.5 276.5h172q-24 -121 -47.5 -244.5t-42.5 -226t-32 -170t-13 -75.5q-7 -39 -4.5 -74t16.5 -61.5t45 -43t87 -16.5q45 0 86 21.5t74 57.5t55.5 82t33.5 96l130 654h169l-206 -1065h-172l23 114h-7q-59 -69 -129 -98t-139 -29 q-134 0 -199.5 77.5t-47.5 208.5zM387 1551l144 60l155 -388l-93 -41z" />
<glyph unicode="&#xfa;" horiz-adv-x="954" d="M82 273q0 11 12.5 84t34 184t49 247.5t52.5 276.5h172q-24 -121 -47.5 -244.5t-42.5 -226t-32 -170t-13 -75.5q-7 -39 -4.5 -74t16.5 -61.5t45 -43t87 -16.5q45 0 86 21.5t74 57.5t55.5 82t33.5 96l130 654h169l-206 -1065h-172l23 114h-7q-59 -69 -129 -98t-139 -29 q-134 0 -199.5 77.5t-47.5 208.5zM529 1230l224 372l152 -53l-279 -359z" />
<glyph unicode="&#xfb;" horiz-adv-x="954" d="M82 273q0 11 12.5 84t34 184t49 247.5t52.5 276.5h172q-24 -121 -47.5 -244.5t-42.5 -226t-32 -170t-13 -75.5q-7 -39 -4.5 -74t16.5 -61.5t45 -43t87 -16.5q45 0 86 21.5t74 57.5t55.5 82t33.5 96l130 654h169l-206 -1065h-172l23 114h-7q-59 -69 -129 -98t-139 -29 q-134 0 -199.5 77.5t-47.5 208.5zM271 1258l361 314h108l228 -310l-92 -72l-211 220l-325 -224z" />
<glyph unicode="&#xfc;" horiz-adv-x="954" d="M82 273q0 11 12.5 84t34 184t49 247.5t52.5 276.5h172q-24 -121 -47.5 -244.5t-42.5 -226t-32 -170t-13 -75.5q-7 -39 -4.5 -74t16.5 -61.5t45 -43t87 -16.5q45 0 86 21.5t74 57.5t55.5 82t33.5 96l130 654h169l-206 -1065h-172l23 114h-7q-59 -69 -129 -98t-139 -29 q-134 0 -199.5 77.5t-47.5 208.5zM370 1275l36 180h166l-34 -180h-168zM724 1275l37 180h166l-35 -180h-168z" />
<glyph unicode="&#xfd;" horiz-adv-x="806" d="M-140 -281q112 14 201 71.5t154 164.5l-121 1110h179l39 -478q8 -92 13.5 -211.5t1.5 -225.5h6q51 95 101 208t96 232.5t89.5 240.5t79.5 234h179q-64 -191 -123.5 -353t-120 -304.5t-123 -271t-135.5 -247.5q-97 -158 -222.5 -242t-286.5 -82zM435 1230l223 372l153 -53 l-280 -359z" />
<glyph unicode="&#xfe;" horiz-adv-x="930" d="M-66 -423q24 123 53.5 278t63 327.5t68.5 353t69 352.5t65 328t55 280h170l-104 -530q2 0 2 -1t2 -1q54 53 115 83t147 30q112 0 179 -68.5t67 -208.5q0 -71 -9 -153.5t-21 -151.5q-19 -105 -49.5 -196.5t-80 -160.5t-122.5 -108.5t-178 -39.5q-64 0 -122.5 28.5 t-94.5 84.5q-2 0 -2 -1t-2 -1q-24 -131 -50 -262.5t-52 -261.5h-169zM265 327q0 -76 37.5 -121.5t110.5 -45.5q51 0 96 20t80 70q31 43 54.5 122.5t40.5 167.5q10 49 15 93t7 81q0 39 -5.5 74t-23 62.5t-47.5 42t-80 14.5q-82 0 -134.5 -54.5t-73.5 -119.5 q-26 -82 -45.5 -165.5t-27.5 -161.5q-2 -19 -3 -39.5t-1 -39.5z" />
<glyph unicode="&#xff;" horiz-adv-x="806" d="M-140 -281q112 14 201 71.5t154 164.5l-121 1110h179l39 -478q8 -92 13.5 -211.5t1.5 -225.5h6q51 95 101 208t96 232.5t89.5 240.5t79.5 234h179q-64 -191 -123.5 -353t-120 -304.5t-123 -271t-135.5 -247.5q-97 -158 -222.5 -242t-286.5 -82zM236 1275l37 180h166 l-35 -180h-168zM591 1275l37 180h166l-35 -180h-168z" />
<glyph unicode="&#x131;" horiz-adv-x="418" d="M37 0l206 1065h172l-206 -1065h-172z" />
<glyph unicode="&#x152;" horiz-adv-x="1498" d="M109 417l113 639q16 95 56 177.5t100.5 145t142 98t185.5 35.5q82 0 156 -18q200 0 385 1t385 1l-32 -165h-580q-25 -125 -48.5 -247.5t-46.5 -244.5h520l-32 -162h-521q-24 -129 -49.5 -256.5t-50.5 -256.5h606l-14 -82t-16 -82h-755q-62 -13 -135 -13q-107 0 -185 34.5 t-123 92.5t-60.5 136.5t-0.5 166.5zM279.5 367.5q-2.5 -64.5 17 -112.5t67 -76.5t135.5 -28.5q32 0 62 6t56 18l222 1140q-51 34 -131 34t-134.5 -26.5t-92.5 -75t-60.5 -114t-37.5 -143.5l-88 -484q-13 -73 -15.5 -137.5z" />
<glyph unicode="&#x153;" horiz-adv-x="1481" d="M74 299q0 84 10 161.5t25 146.5q21 101 56 187t80 142q116 139 305 139q109 0 178.5 -41t106.5 -109q55 69 135 110.5t187 41.5q148 0 232 -69.5t84 -192.5q0 -86 -31.5 -156t-95.5 -120.5t-163 -77t-235 -26.5q-24 0 -53 1t-54 3q-6 -52 -6 -102.5t14.5 -92t48 -68 t95.5 -26.5q29 0 61 10t63.5 26.5t58 39t43.5 47.5l142 -78q-62 -92 -156.5 -150t-228.5 -58q-109 0 -171.5 41t-92.5 110q-54 -74 -130.5 -112.5t-189.5 -38.5q-89 0 -149 26t-98 70t-54.5 99.5t-16.5 116.5zM236 353q-2 -39 3.5 -77t23.5 -66.5t53 -47t90 -18.5 q91 0 136 46t75 122q19 47 35.5 104.5t28 115t18.5 111.5t7 97q0 91 -46.5 136t-121.5 45q-91 0 -148 -65q-35 -37 -63 -99t-50 -142q-17 -62 -27 -134.5t-14 -127.5zM868 589q24 -2 50 -3t50 -1q183 0 259 59.5t76 147.5q0 55 -43 90.5t-119 35.5q-111 0 -176.5 -88 t-96.5 -241z" />
<glyph unicode="&#x178;" horiz-adv-x="938" d="M219 1496h175l103 -505q8 -30 18 -76.5t18 -81.5l11 -2l155 263q58 103 117.5 202t116.5 200h192l-536 -870l-123 -626h-171l122 626q-49 219 -98.5 435.5t-99.5 434.5zM419 1609l35 180h168l-35 -180h-168zM778 1609l35 180h168l-35 -180h-168z" />
<glyph unicode="&#x192;" d="M-30 -154q4 10 12 29.5t16 40t17 38.5t13 29q31 -12 60 -18t52 -6q82 0 124 74t71 210l112 510h-168l14 152h189l39 170q15 74 42.5 150t72.5 137.5t113 100.5t162 39q89 0 152 -29q-5 -10 -12.5 -31.5t-15 -46.5t-15 -46.5t-9.5 -32.5q-26 10 -60.5 16t-62.5 6 q-43 0 -75.5 -20.5t-56 -54t-39.5 -80t-27 -97.5l-41 -181h203l-13 -152h-224l-110 -508q-21 -103 -50 -183.5t-71 -137.5t-100 -87t-138 -30q-41 0 -90.5 10.5t-85.5 28.5z" />
<glyph unicode="&#x2c6;" horiz-adv-x="926" d="M281 1258l362 314h108l228 -310l-93 -72l-211 220l-324 -224z" />
<glyph unicode="&#x2c7;" horiz-adv-x="926" d="M331 1504l90 70l224 -220l314 220l65 -76l-347 -308h-107z" />
<glyph unicode="&#x2d8;" horiz-adv-x="948" d="M368 1504h143q-2 -21 4 -46.5t20.5 -47t39.5 -35.5t61 -14q37 0 67 13t52.5 33.5t37.5 46t20 50.5h157q-12 -50 -38.5 -100t-68.5 -89.5t-99.5 -64.5t-135.5 -25q-80 0 -132.5 22.5t-84 61.5t-41 89.5t-2.5 105.5z" />
<glyph unicode="&#x2d9;" horiz-adv-x="889" d="M482 1262l35 181h167l-35 -181h-167z" />
<glyph unicode="&#x2da;" horiz-adv-x="919" d="M460 1336q0 47 19.5 90t53 76t77.5 52.5t96 19.5q75 0 122.5 -47.5t47.5 -118.5q0 -51 -21.5 -95.5t-56.5 -76.5t-79 -49t-89 -17q-76 0 -123 47t-47 119zM554 1350q0 -41 25 -65.5t66 -24.5q51 0 92 39t41 94q0 37 -25.5 63t-66.5 26q-52 0 -92 -40t-40 -92z" />
<glyph unicode="&#x2db;" horiz-adv-x="726" d="M290 -234q0 51 27 107t94 131h114l2 -4q-99 -114 -99 -195q0 -70 79 -70q45 0 121 39l19 -107q-43 -24 -94.5 -39t-100.5 -15q-76 0 -119 44t-43 109z" />
<glyph unicode="&#x2dc;" horiz-adv-x="917" d="M295 1307q49 84 111.5 129.5t124.5 45.5q35 0 68 -14.5t65.5 -30t62.5 -30t58 -14.5q31 0 61 19.5t68 69.5l92 -60q-52 -99 -113.5 -138t-118.5 -39q-37 0 -70 12.5t-65 29t-62.5 30.5t-57.5 14q-33 0 -59.5 -22.5t-67.5 -65.5z" />
<glyph unicode="&#x2dd;" horiz-adv-x="919" d="M394 1230l223 372l153 -53l-282 -359zM640 1230l224 372l153 -53l-280 -359z" />
<glyph unicode="&#x3a9;" horiz-adv-x="1055" d="M-19 0q9 41 15 83t14 85h166q-47 37 -65.5 89.5t-18.5 116.5q0 34 5.5 85.5t19.5 125.5l66 346q10 62 27.5 124.5t41.5 128.5q54 148 170 237t288 89q94 0 164 -28.5t116 -76.5t69 -117t23 -149q0 -21 -4.5 -73.5t-14.5 -104.5q-13 -74 -29.5 -154t-33.5 -171 q-11 -62 -26 -127.5t-36 -134.5q-24 -66 -59.5 -116.5t-84.5 -87.5v-2h144l-33 -168h-369l40 197q56 17 97 56.5t64 90.5q28 72 47.5 140t32.5 136l67 339q11 43 14 77.5t3 71.5q0 98 -50.5 168t-169.5 70q-90 0 -153.5 -46t-94.5 -116q-48 -122 -70 -234l-79 -410 q-11 -43 -14 -76.5t-3 -57.5q0 -66 25.5 -125t94.5 -84l-38 -197h-368z" />
<glyph unicode="&#x3c0;" horiz-adv-x="973" d="M39 0l206 1065h727l-207 -1065h-172l179 909h-387l-176 -909h-170z" />
<glyph unicode="&#x401;" horiz-adv-x="964" d="M51 0l291 1496h785l-35 -165h-606l-94 -492h519l-29 -162h-521l-101 -511h606l-29 -166h-786zM490 1609l35 180h167l-34 -180h-168zM849 1609l35 180h167l-34 -180h-168z" />
<glyph unicode="&#x402;" horiz-adv-x="1223" d="M135 1336l31 158h946l-30 -158h-435l-93 -448h8q58 56 142 89.5t162 33.5q155 0 234.5 -96t67.5 -275q-11 -157 -41.5 -281.5t-90.5 -210.5t-153 -132t-234 -46h-28.5t-31.5 2l31 151h16q105 0 169.5 41t101.5 109.5t53 157t27 184.5q4 50 -2 93t-26.5 74t-58.5 49 t-94 18q-100 0 -179 -68.5t-122 -165.5l-118 -615h-180l259 1336h-331z" />
<glyph unicode="&#x403;" horiz-adv-x="936" d="M51 0l291 1496h768l-35 -167h-589l-256 -1329h-179zM587 1650l361 250l93 -126l-398 -208z" />
<glyph unicode="&#x404;" horiz-adv-x="997" d="M99 344q0 41 11 115t23 143q17 90 36.5 183t37.5 183q19 101 51 197.5t89 173t145.5 123t219.5 46.5q185 0 277.5 -90.5t100.5 -239.5l-181 -53q0 96 -51.5 154.5t-147.5 58.5q-72 0 -120 -20.5t-81 -55.5t-54.5 -78t-37.5 -88q-19 -62 -34 -126.5t-26 -130.5h433 l-31 -166h-432q-5 -24 -9 -46.5t-8 -45.5q-11 -52 -21 -108t-10 -103q0 -48 10 -86.5t33.5 -67.5t62 -45.5t99.5 -16.5q101 0 176 57.5t112 166.5l172 -66q-56 -158 -174 -241.5t-292 -83.5q-193 0 -286 100t-93 257z" />
<glyph unicode="&#x405;" horiz-adv-x="1014" d="M37 258l168 84q30 -75 91 -128.5t178 -53.5q77 0 131.5 26.5t90 69.5t52.5 95.5t17 106.5q0 49 -14 83.5t-40.5 58.5t-66.5 42t-92 35q-94 31 -158.5 64t-105 75t-59 93.5t-18.5 120.5q0 109 33 198.5t96.5 152t152 96t197.5 33.5q75 0 136.5 -19.5t108 -53t77.5 -75.5 t46 -87l-161 -97q-29 76 -91 117t-141 41q-64 0 -114 -23t-83 -60.5t-50.5 -88t-17.5 -106.5q0 -53 21.5 -87.5t59.5 -59.5t90.5 -43.5t114.5 -40.5q154 -53 216 -135.5t62 -209.5q0 -105 -33.5 -197t-99.5 -158.5t-161.5 -104t-217.5 -37.5q-175 0 -278 75t-137 198z" />
<glyph unicode="&#x406;" horiz-adv-x="459" d="M54 0l292 1496h179l-291 -1496h-180z" />
<glyph unicode="&#x407;" horiz-adv-x="466" d="M54 0l292 1496h179l-291 -1496h-180zM195 1632l35 180h170l-37 -180h-168zM554 1632l35 180h168l-35 -180h-168z" />
<glyph unicode="&#x408;" horiz-adv-x="862" d="M-45 140l137 103q27 -41 74 -67t96 -26q99 0 170 54t101 196l214 1096h178l-215 -1104q-24 -115 -63.5 -192t-98 -124.5t-131.5 -68t-159 -20.5q-103 0 -181.5 39.5t-121.5 113.5z" />
<glyph unicode="&#x409;" horiz-adv-x="1617" d="M-64 107q56 26 107 61t94.5 94.5t80 151t63.5 233.5l166 849h661l-121 -626h224q182 0 279 -87.5t97 -242.5q0 -112 -33.5 -211t-97 -172t-155.5 -115t-211 -42h-450l259 1334h-316l-121 -628q-37 -192 -84 -320t-105 -212t-130 -131t-158 -78zM849 168h243q80 0 139 30 t99 78t59 110.5t19 126.5q0 93 -54.5 145t-163.5 52h-236z" />
<glyph unicode="&#x40a;" horiz-adv-x="1627" d="M21 0l291 1496h178l-125 -640h456l125 640h176l-124 -640h223q183 0 280 -88.5t97 -242.5q0 -111 -32.5 -207t-94 -167t-153 -111t-208.5 -40h-454l134 695h-457l-133 -695h-179zM864 168h242q79 0 138 27t98 73t58.5 106.5t19.5 124.5q0 90 -55.5 141.5t-164.5 51.5 h-234z" />
<glyph unicode="&#x40b;" horiz-adv-x="1266" d="M133 1338l31 158h954l-30 -158h-441l-85 -450h6q35 33 75.5 56.5t82.5 38.5t82.5 21.5t75.5 6.5q160 0 238 -88t48 -244l-132 -679h-180l121 622q8 45 8 86t-17.5 72t-54.5 48t-102 17q-52 0 -99 -18.5t-86 -48t-69 -68.5t-48 -82l-124 -628h-180l259 1338h-333z" />
<glyph unicode="&#x40c;" horiz-adv-x="1061" d="M45 0l288 1494h176l-124 -651h155q32 0 69.5 6.5t76 29t77.5 66.5t74 118l201 431h175l-202 -438q-49 -109 -112.5 -183.5t-137.5 -98.5q82 -31 114 -107t41 -187l30 -480h-172l-25 449q-5 76 -24 122t-50.5 71t-69 32t-78.5 7h-174l-131 -681h-177zM663 1650l361 250 l92 -126l-398 -208z" />
<glyph unicode="&#x40e;" horiz-adv-x="973" d="M41 -10q6 36 14.5 74.5t15.5 77.5h99q45 0 88 31.5t88 112.5l37 71q-41 286 -81 567.5t-78 569.5h178q17 -123 30 -244t30 -244q10 -107 21.5 -211.5t23.5 -211.5q2 0 4 1t6 1l173 348l271 561h186l-597 -1159q-58 -117 -107 -184t-96.5 -104t-92.5 -47t-92 -10h-121z M423 1798h145q-2 -21 3 -46t20.5 -46.5t40 -35.5t60.5 -14q37 0 67.5 13t53 33t37 46t18.5 50h158q-13 -50 -39 -99t-67.5 -89t-100 -65t-135.5 -25q-80 0 -132.5 23t-83.5 61.5t-41 89t-4 104.5z" />
<glyph unicode="&#x40f;" horiz-adv-x="1115" d="M51 0l289 1496h177l-257 -1328h487l255 1328h178l-288 -1496h-328l-63 -320h-181l63 320h-332z" />
<glyph unicode="&#x410;" horiz-adv-x="1055" d="M-69 0l721 1496h161l139 -1496h-178l-23 340h-476l-156 -340h-188zM346 501h394l-30 387l-24 342h-7l-148 -338z" />
<glyph unicode="&#x411;" horiz-adv-x="1061" d="M49 0l291 1496h705l-32 -167h-527l-88 -459h230q84 0 152.5 -23.5t116 -67.5t73 -103t25.5 -130q0 -111 -32 -210.5t-94.5 -173.5t-152.5 -118t-209 -44h-458zM260 168h241q157 0 234.5 94t81.5 251q0 84 -54.5 140.5t-165.5 56.5h-232z" />
<glyph unicode="&#x412;" horiz-adv-x="1075" d="M49 0l293 1496h400q168 0 261 -76t93 -238q0 -166 -68 -264.5t-197 -139.5q0 -2 -2 -3t-2 -3q91 -31 128.5 -106t37.5 -178q-8 -139 -54.5 -232.5t-120.5 -151t-171 -81t-206 -23.5h-392zM258 164h267q71 0 127 29t92 76t55.5 109.5t19.5 128.5q0 93 -55.5 142.5 t-156.5 49.5h-244q-26 -135 -51.5 -267.5t-53.5 -267.5zM394 854h172q71 0 135 15t113.5 50t79 93.5t29.5 142.5q0 92 -60.5 136.5t-156.5 44.5h-218z" />
<glyph unicode="&#x413;" horiz-adv-x="936" d="M51 0l291 1496h768l-35 -167h-589l-256 -1329h-179z" />
<glyph unicode="&#x414;" horiz-adv-x="1223" d="M-121 -303q19 111 41 221t41 220l88 20q48 30 82.5 67t63.5 92t52.5 129.5t47.5 175.5l200 874h787q-64 -338 -129 -671t-131 -671h103q-21 -116 -43 -228.5t-46 -228.5h-163q16 75 29.5 151t30.5 152h-834l-58 -303h-162zM269 154h576q56 300 114 593.5t116 592.5h-453 l-166 -727q-39 -161 -80 -272t-107 -187z" />
<glyph unicode="&#x415;" horiz-adv-x="964" d="M51 0l291 1496h785l-35 -165h-606l-94 -492h519l-29 -162h-521l-101 -511h606l-29 -166h-786z" />
<glyph unicode="&#x416;" horiz-adv-x="1638" d="M-47 0l211 480q49 111 110 187.5t156 106.5q-61 24 -98 98t-42 184l-32 438h165l37 -431q4 -76 25.5 -119t53 -65.5t66.5 -29t68 -6.5h133l123 653h177l-123 -653h82q30 0 72.5 1t90 20.5t95 64.5t87.5 134l199 431h168q-50 -107 -98.5 -223t-102.5 -218.5t-113 -178.5 t-129 -100q79 -31 110 -107t40 -187l32 -480h-178l-27 449q-4 76 -23.5 121t-49 70t-67.5 33t-77 8h-144l-129 -681h-176l129 681h-88q-50 0 -96 -4t-91 -25.5t-88 -68.5t-82 -134l-196 -449h-180z" />
<glyph unicode="&#x417;" horiz-adv-x="962" d="M-6 301l168 58q8 -109 66 -157t164 -48q43 0 94.5 20.5t96.5 65t75 114t30 169.5q0 80 -42 131.5t-133 51.5h-139q6 38 14 77.5t16 78.5h134q57 0 104.5 22.5t81 63.5t53 97t19.5 121q0 45 -17.5 77t-46 52.5t-65.5 30.5t-76 10q-96 0 -169 -49.5t-116 -139.5l-154 72 q64 154 185.5 221.5t269.5 67.5q178 0 277 -82t99 -228q0 -51 -8.5 -110.5t-33.5 -115.5t-70.5 -105.5t-117.5 -76.5q0 -2 1 -3.5t1 -6.5q76 -37 100.5 -102t24.5 -134q0 -105 -30.5 -205.5t-94 -178.5t-160 -125.5t-227.5 -47.5q-78 0 -143 18.5t-115 57t-80 97.5t-36 141z " />
<glyph unicode="&#x418;" horiz-adv-x="1188" d="M51 0l291 1496h177l-213 -1098q2 0 3 -1t3 -1q62 88 124.5 175t125.5 178q133 189 266 373.5t266 373.5h162l-290 -1496h-176l212 1092q-2 0 -3 1t-4 1q-43 -62 -89 -123.5t-89 -123.5l-595 -847h-171z" />
<glyph unicode="&#x419;" horiz-adv-x="1188" d="M51 0l291 1496h177l-213 -1098q2 0 3 -1t3 -1q62 88 124.5 175t125.5 178q133 189 266 373.5t266 373.5h162l-290 -1496h-176l212 1092q-2 0 -3 1t-4 1q-43 -62 -89 -123.5t-89 -123.5l-595 -847h-171zM564 1847h144q-2 -21 3 -45.5t20.5 -46t40 -36t61.5 -14.5 q36 0 66 13t52.5 33.5t37.5 46.5t20 49h157q-13 -49 -39 -98.5t-68 -89.5t-100 -64.5t-136 -24.5q-80 0 -132.5 22.5t-83.5 61.5t-41 89t-2 104z" />
<glyph unicode="&#x41a;" horiz-adv-x="1059" d="M45 0l288 1494h176l-124 -651h155q32 0 69.5 6.5t76 29t77.5 66.5t74 118l201 431h175l-202 -438q-49 -109 -112.5 -183.5t-137.5 -98.5q82 -31 114 -107t41 -187l30 -480h-172l-25 449q-5 76 -24 122t-50.5 71t-69 32t-78.5 7h-174l-131 -681h-177z" />
<glyph unicode="&#x41b;" horiz-adv-x="1132" d="M-74 105q56 26 106 57t92 87.5t77 144.5t61 230l173 872h759l-291 -1496h-176l258 1334h-417l-127 -650q-37 -192 -82 -316.5t-100.5 -203t-125 -122.5t-154.5 -75z" />
<glyph unicode="&#x41c;" horiz-adv-x="1395" d="M51 0l291 1496h177l128 -578l75 -346h7l211 351l353 573h182l-293 -1496h-176l203 1043h-9l-172 -288l-295 -462h-120l-114 470l-60 280h-6l-203 -1043h-179z" />
<glyph unicode="&#x41d;" horiz-adv-x="1128" d="M51 0l291 1496h179l-129 -657h498l130 657h176l-291 -1496h-176l131 681h-499l-131 -681h-179z" />
<glyph unicode="&#x41e;" horiz-adv-x="1067" d="M101 287q-13 87 4 181l117 595q14 75 45.5 154.5t88.5 144t142 105.5t206 41q116 0 195.5 -41t125.5 -105.5t61 -145.5t0 -162l-110 -617q-40 -218 -160.5 -334t-316.5 -116q-123 0 -206.5 39.5t-131 106.5t-60.5 154zM275 348.5q4 -55.5 28 -99.5t72 -70.5t126 -26.5 q114 0 190.5 71.5t100.5 195.5l122 635q6 35 3 82.5t-27 93t-74.5 77t-138.5 31.5q-73 0 -122.5 -29t-82.5 -71t-50.5 -92t-25.5 -90l-112 -592q-13 -60 -9 -115.5z" />
<glyph unicode="&#x41f;" horiz-adv-x="1115" d="M51 0l291 1496h840l-290 -1496h-176l258 1340h-486l-258 -1340h-179z" />
<glyph unicode="&#x420;" horiz-adv-x="1026" d="M51 0l291 1496h413q172 0 267.5 -83.5t95.5 -244.5q0 -121 -32 -224t-96.5 -179.5t-160.5 -119.5t-220 -43h-263l-116 -602h-179zM378 770h239q80 0 140 27.5t100 76.5t59.5 113t19.5 140q0 96 -55.5 150t-166.5 54h-228z" />
<glyph unicode="&#x421;" horiz-adv-x="1008" d="M99 344q0 41 11 115t23 143q17 90 36.5 183t37.5 183q19 101 51 197.5t89 173t145.5 123t219.5 46.5q185 0 277.5 -90.5t100.5 -239.5l-181 -53q0 96 -51.5 154.5t-147.5 58.5q-72 0 -120 -20.5t-81 -55.5t-54.5 -78t-37.5 -88q-37 -123 -59.5 -254.5t-47.5 -260.5 q-11 -52 -21 -108t-10 -103q0 -48 10 -86.5t33.5 -67.5t62 -45.5t99.5 -16.5q101 0 176 57.5t112 166.5l172 -66q-56 -158 -174 -241.5t-292 -83.5q-193 0 -286 100t-93 257z" />
<glyph unicode="&#x422;" horiz-adv-x="855" d="M174 1336l33 160h851l-32 -160h-336l-260 -1336h-176l257 1336h-337z" />
<glyph unicode="&#x423;" horiz-adv-x="973" d="M41 -10q6 36 14.5 74.5t15.5 77.5h99q45 0 88 31.5t88 112.5l37 71q-41 286 -81 567.5t-78 569.5h178q17 -123 30 -244t30 -244q10 -107 21.5 -211.5t23.5 -211.5q2 0 4 1t6 1l173 348l271 561h186l-597 -1159q-58 -117 -107 -184t-96.5 -104t-92.5 -47t-92 -10h-121z " />
<glyph unicode="&#x424;" horiz-adv-x="1303" d="M127 550q0 117 15.5 220t44.5 194q69 213 210 331t352 127l16 74h179l-15 -74q93 -7 162.5 -41.5t117 -92.5t71 -135.5t23.5 -165.5q0 -107 -10.5 -194t-32.5 -171q-62 -239 -216 -365t-367 -136l-23 -121h-178l23 121h-2q-196 26 -283 133t-87 296zM303 572 q0 -135 50.5 -207t173.5 -86l191 983q-90 -4 -166 -55.5t-131.5 -142t-86.5 -215.5t-31 -277zM712 279q90 7 167.5 48t134.5 123.5t88 208.5t31 305q0 140 -60 216t-170 82z" />
<glyph unicode="&#x425;" horiz-adv-x="956" d="M-74 0l528 776l-209 720h185l142 -554l359 554h198l-493 -720l228 -776h-185l-158 607l-396 -607h-199z" />
<glyph unicode="&#x426;" horiz-adv-x="1149" d="M51 0l289 1496h177l-257 -1328h487l255 1328h178l-255 -1330h116l-91 -469h-165l58 303h-792z" />
<glyph unicode="&#x427;" horiz-adv-x="1055" d="M180.5 845.5q-4.5 77.5 12.5 165.5l88 485h175l-82 -429q-13 -64 -18 -123.5t8.5 -104.5t54.5 -72t121 -27q60 0 144 21t143 60l134 675h176l-290 -1496h-176q30 164 63.5 327t63.5 327q-37 -17 -79 -31t-83 -24t-77 -15t-62 -5q-112 0 -179.5 34t-100 94.5t-37 138z" />
<glyph unicode="&#x428;" horiz-adv-x="1597" d="M43 0l290 1496h174l-257 -1326h404l257 1326h177l-257 -1326h406l257 1326h177l-290 -1496h-1338z" />
<glyph unicode="&#x429;" horiz-adv-x="1638" d="M43 0l286 1496h176l-255 -1328h404l255 1328h175l-257 -1328h408l257 1328h176l-258 -1330h119l-91 -467h-165l61 301h-1291z" />
<glyph unicode="&#x42a;" horiz-adv-x="1268" d="M168 1329l32 167h555l-121 -626h224q183 0 280 -88t97 -242q0 -112 -32.5 -211t-96 -172t-155 -115t-209.5 -42h-454l258 1329h-378zM497 168h243q80 0 139 30t97.5 78t58 110.5t19.5 126.5q0 93 -54 145t-163 52h-235z" />
<glyph unicode="&#x42b;" horiz-adv-x="1414" d="M51 0q3 13 16 79.5t33.5 166.5t44 225.5t49 257t50.5 259.5t45.5 233.5t34.5 178.5t18 96h177q-31 -157 -61 -312.5t-60 -313.5h222q184 0 281 -87.5t97 -242.5q0 -138 -41 -239t-115 -168t-180 -100t-232 -33h-379zM260 166h241q73 0 131 23.5t99 66.5t61.5 102 t20.5 128q0 50 -10.5 90.5t-35.5 70.5t-66 46.5t-104 16.5h-232zM1028 0l290 1496h178l-290 -1496h-178z" />
<glyph unicode="&#x42c;" horiz-adv-x="995" d="M19 0q2 13 15 79.5t33.5 166.5t44 225.5t49.5 257t50.5 259.5t45 233.5t35 178.5t18.5 96h176q-30 -157 -60 -312.5t-61 -313.5h222q185 0 282 -87.5t97 -242.5q0 -138 -39 -239t-108.5 -168t-167 -100t-210.5 -33h-422zM228 166h236q74 0 133 23.5t99.5 66.5t62 102 t21.5 128q0 50 -10.5 90.5t-35 70.5t-65.5 46.5t-103 16.5h-233z" />
<glyph unicode="&#x42d;" horiz-adv-x="967" d="M6 297l179 56q4 -88 57 -140.5t143 -52.5q64 0 111.5 20t83 54.5t59.5 77.5t38 88q19 69 35.5 139t31.5 142h-428l33 168h427l14 67q10 51 17.5 107t7.5 104q0 94 -55.5 154.5t-176.5 60.5q-175 0 -250 -195l-173 64q59 146 174 222.5t283 76.5q194 0 286 -100.5 t92 -256.5q0 -41 -10.5 -115t-23.5 -143q-17 -91 -36.5 -183t-36.5 -183q-19 -101 -51.5 -198t-89.5 -173t-145.5 -122t-218.5 -46q-178 0 -270 85t-107 222z" />
<glyph unicode="&#x42e;" horiz-adv-x="1424" d="M39 0l290 1496h176l-127 -657h186q15 71 31 141.5t33 137.5q21 78 52.5 149t82 124.5t126 85t184.5 31.5q95 0 165.5 -28.5t118 -77t71 -114t23.5 -141.5q0 -37 -6.5 -94.5t-16.5 -112.5q-4 -17 -14 -76.5t-22.5 -127t-25 -128t-16.5 -79.5q-30 -114 -60 -213t-81.5 -172 t-135.5 -115t-219 -42q-110 0 -187.5 34.5t-122.5 92.5t-59 136.5t-1 168.5q11 66 20 127t25 135h-180l-134 -681h-176zM656 359.5q-4 -60.5 13 -107.5t63 -76.5t136 -29.5q123 0 188.5 81.5t100.5 238.5q31 150 64 311t49 302q7 50 0.5 98t-29 86t-64.5 60.5t-106 22.5 q-76 0 -123 -25.5t-77 -64.5t-47.5 -86.5t-31.5 -87.5q-11 -37 -20 -71.5t-15 -70.5q-4 -13 -10.5 -49.5t-16.5 -84t-20.5 -99t-18 -97.5t-14 -82t-6.5 -46q-11 -62 -15 -122.5z" />
<glyph unicode="&#x42f;" horiz-adv-x="1092" d="M-8 0l174 449q19 50 40.5 93t47 78.5t59 62.5t77.5 41q-48 22 -78.5 53t-48.5 68t-25.5 79t-7.5 85q0 115 34.5 204.5t95.5 153t148 96.5t196 33h457l-288 -1496h-176l126 665h-176q-35 0 -75.5 -9t-81.5 -35t-79.5 -73t-68.5 -125l-161 -423h-189zM408 1028 q0 -103 59.5 -155t160.5 -52h228l98 513h-248q-136 0 -217 -79t-81 -227z" />
<glyph unicode="&#x430;" horiz-adv-x="960" d="M78 306q0 57 8 123t19 121q21 107 53.5 203t82 167t121 113t167.5 42q72 0 131.5 -29t92.5 -85q2 0 2 1.5t2 1.5l21 101h168l-206 -1065h-170l19 99q-2 0 -3 1t-3 1q-54 -60 -107 -87t-141 -27q-131 0 -194 86.5t-63 232.5zM256 342q0 -36 6.5 -70t23.5 -59.5t46 -40 t76 -14.5q76 0 126.5 50t74.5 110q19 50 36.5 107t29 111.5t19 106.5t7.5 92q0 80 -37.5 125t-115.5 45q-51 0 -95.5 -22.5t-78.5 -76.5q-26 -38 -48.5 -109t-39.5 -149q-13 -62 -21.5 -115t-8.5 -91z" />
<glyph unicode="&#x431;" horiz-adv-x="932" d="M74 316q0 21 2 49.5t6 72.5t12.5 107.5t24.5 155.5q16 112 44 231t73 248q41 121 103.5 192t145.5 109.5t188 53t232 22.5l9 -142q-99 -10 -178.5 -19t-142 -34.5t-111.5 -76t-88 -146.5q-15 -37 -32.5 -87t-34.5 -129q2 -2 6 -2q53 62 125.5 84.5t130.5 22.5t103 -16.5 t78.5 -42t54 -59.5t31.5 -71q21 -82 14.5 -167t-18.5 -167q-19 -119 -53 -215.5t-87.5 -164t-132 -104t-187.5 -36.5h-2q-316 7 -316 331zM248 324q0 -38 6 -71.5t24.5 -58t50.5 -38.5t84 -14q51 0 88 14t67 51q37 37 63.5 112t43.5 161q11 49 18.5 109t7.5 112 q0 76 -38.5 125.5t-116.5 49.5q-80 0 -134.5 -42t-87.5 -116q-6 -14 -12 -31.5t-14 -42t-15.5 -59.5t-15.5 -84q-9 -49 -14 -92.5t-5 -84.5z" />
<glyph unicode="&#x432;" horiz-adv-x="924" d="M60 265q0 53 7 97t17 90l60 270q15 67 43 130.5t76.5 113t119.5 79.5t169 30q88 0 148.5 -22.5t97.5 -58t52.5 -78.5t15.5 -81q0 -82 -43 -150t-113 -92q78 -30 108.5 -83.5t30.5 -122.5q0 -53 -22.5 -123.5t-75 -131.5t-139.5 -103t-216 -42q-64 0 -124.5 14 t-107.5 47.5t-75.5 86t-28.5 130.5zM230 288q0 -54 38 -99t132 -45q74 0 125 24.5t84.5 61.5t49.5 79t16 78q0 62 -44 96t-149 34h-61l31 148h47q88 0 132 36t48 95q0 19 -5 40.5t-19.5 38.5t-42 28t-72.5 11q-64 0 -107 -25t-70.5 -63t-41 -83.5t-22.5 -84.5l-54 -273 q-5 -19 -10 -47t-5 -50z" />
<glyph unicode="&#x433;" horiz-adv-x="862" d="M41 234q0 82 26.5 143.5t75 106.5t118.5 78t156 60q125 36 189.5 77t64.5 112q0 53 -40 78t-102 25q-73 0 -136.5 -30t-108.5 -90l-132 84q62 94 155 145.5t222 53.5q64 0 122.5 -14t101.5 -43t68.5 -75t25.5 -110q0 -74 -26.5 -128.5t-75 -97.5t-115 -75.5t-148.5 -57.5 q-54 -17 -102.5 -35t-85 -41.5t-58 -56.5t-21.5 -83q0 -114 172 -114q62 0 131 30.5t114 85.5l127 -88q-66 -94 -159 -141.5t-237 -47.5q-69 0 -128 15t-102 45.5t-67.5 77.5t-24.5 111z" />
<glyph unicode="&#x434;" horiz-adv-x="930" d="M69 308q0 62 9.5 127.5t22.5 126.5q24 109 59 193t72 129q54 69 121.5 107.5t167.5 38.5q51 0 117 -25.5t104 -93.5q9 5 9 12q10 60 14.5 112.5t4.5 70.5q0 55 -9.5 105.5t-35.5 88.5t-73.5 60.5t-120.5 24.5q-39 0 -84 -7.5t-88 -25.5l-35 140q62 21 118.5 30t111.5 9 q189 0 279 -107.5t90 -319.5q0 -46 -4.5 -113.5t-15.5 -148.5t-27 -174.5t-39 -189.5q-26 -107 -63 -198t-89.5 -156.5t-123.5 -102t-165 -36.5q-93 0 -155.5 29t-101 74t-54.5 103.5t-16 116.5zM234 333q0 -39 8 -73t27 -61t51.5 -42t83.5 -15q56 0 92.5 22.5t67.5 59.5 q26 30 50 83.5t42.5 116t30.5 128t17 119.5q4 86 -34 142.5t-141 56.5q-53 0 -93 -21.5t-73 -58.5q-26 -33 -49.5 -88t-40.5 -119t-28 -131t-11 -119z" />
<glyph unicode="&#x435;" horiz-adv-x="889" d="M71 340q0 112 23 242t78.5 239.5t148 182.5t233.5 73q148 0 232 -69.5t84 -192.5q0 -86 -31 -156t-95.5 -120.5t-163 -77t-234.5 -26.5q-24 0 -52.5 1t-55.5 3q-6 -45 -6 -90q0 -39 8 -76t24.5 -63.5t48 -43t79.5 -16.5q28 0 60 10t63 26.5t58 39t44 47.5l142 -78 q-62 -92 -157 -150t-228 -58q-88 0 -147 29t-93.5 77.5t-48.5 113t-14 133.5zM267 589q24 -2 49.5 -3t48.5 -1q183 0 259.5 59.5t76.5 147.5q0 55 -43 90.5t-118 35.5q-112 0 -177.5 -88t-95.5 -241z" />
<glyph unicode="&#x436;" horiz-adv-x="1803" d="M-21 160l126 83q19 -46 55.5 -74.5t87.5 -28.5q58 0 100 25.5t71 66.5q21 28 43 82t40.5 120.5t30 142t11.5 147.5q0 190 -138 190q-96 0 -163 -79l-97 98q43 56 112 98t175 42q133 0 206 -78.5t73 -226.5q0 -25 -4 -68.5t-13 -92.5q2 0 4 -1.5t5 -1.5q66 103 124 222.5 t118 236.5h129q-32 -168 -64 -332.5t-63 -332.5q2 -2 6 -2q27 49 59 102.5t64 114.5q54 97 102 181t103.5 146t123 98.5t162.5 36.5q92 0 160 -41t100 -123l-121 -84q-21 50 -65 74t-87 24q-62 0 -98.5 -26t-61.5 -60q-21 -33 -44.5 -85.5t-44 -120t-33.5 -149.5t-13 -170 q0 -176 158 -176q45 0 96.5 31t83.5 79q31 -21 56 -42t53 -42q-41 -74 -120 -125.5t-196 -51.5q-82 0 -138.5 21.5t-92 62t-51 96t-15.5 123.5v13t1 22t5 40t8 68h-7q-61 -110 -118.5 -217t-109.5 -216h-138l131 660l-6 5q-37 -67 -63.5 -117.5t-53.5 -96t-55 -90.5 t-66 -101q-33 -55 -66 -106t-76 -88.5t-102.5 -59t-139.5 -21.5q-109 0 -169.5 46.5t-89.5 128.5z" />
<glyph unicode="&#x437;" horiz-adv-x="848" d="M-4 195l144 74q16 -56 65 -89.5t126 -33.5q114 0 169.5 59.5t55.5 155.5q0 58 -37 88.5t-100 30.5h-111l30 146h111q82 0 131.5 45t49.5 129q0 56 -43 85t-111 29q-70 0 -125.5 -27t-92.5 -85l-125 82q58 97 156 144t214 47q154 0 232 -63.5t78 -172.5q0 -35 -8.5 -77 t-29 -82t-55 -73.5t-86.5 -50.5q52 -26 81 -77t29 -107q0 -191 -116.5 -286.5t-307.5 -95.5q-123 4 -204 53t-120 152z" />
<glyph unicode="&#x438;" horiz-adv-x="954" d="M82 273q0 11 12.5 84t34 184t49 247.5t52.5 276.5h172q-24 -121 -47.5 -244.5t-42.5 -226t-32 -170t-13 -75.5q-7 -39 -4.5 -74t16.5 -61.5t45 -43t87 -16.5q45 0 86 21.5t74 57.5t55.5 82t33.5 96l130 654h169l-206 -1065h-172l23 114h-7q-59 -69 -129 -98t-139 -29 q-134 0 -199.5 77.5t-47.5 208.5z" />
<glyph unicode="&#x439;" horiz-adv-x="954" d="M82 273q0 11 12.5 84t34 184t49 247.5t52.5 276.5h172q-24 -121 -47.5 -244.5t-42.5 -226t-32 -170t-13 -75.5q-7 -39 -4.5 -74t16.5 -61.5t45 -43t87 -16.5q45 0 86 21.5t74 57.5t55.5 82t33.5 96l130 654h169l-206 -1065h-172l23 114h-7q-59 -69 -129 -98t-139 -29 q-134 0 -199.5 77.5t-47.5 208.5zM361 1504h144q-2 -21 3 -46.5t20.5 -47t40 -35.5t61.5 -14t67 13t52.5 33.5t37.5 46t19 50.5h158q-13 -50 -39 -100t-68 -89.5t-100 -64.5t-135 -25q-80 0 -132.5 22.5t-84 61.5t-41 89.5t-3.5 105.5z" />
<glyph unicode="&#x43a;" horiz-adv-x="905" d="M13 0l206 1065h173l-89 -463h110q28 0 59 4.5t60.5 20.5t57 47.5t53.5 82.5l147 308h176l-149 -310q-39 -78 -85 -130.5t-106 -70.5q69 -16 91.5 -72t31.5 -136l29 -346h-165l-20 295q-10 103 -56.5 134t-117.5 31h-144l-90 -460h-172z" />
<glyph unicode="&#x43b;" horiz-adv-x="956" d="M-58 105q48 21 83 45t63.5 55t50 76.5t39.5 114.5q19 71 36.5 153.5t34 169.5t32.5 174.5t33 171.5h636l-201 -1065h-173q44 228 87 456t86 455h-306q-45 -258 -83 -425.5t-85 -272t-115 -159t-170 -87.5q-11 35 -24 68.5t-24 69.5z" />
<glyph unicode="&#x43c;" horiz-adv-x="1178" d="M28 0l206 1063h158l111 -349l82 -277h2l211 298l230 328h166l-207 -1063h-174l129 681h-6l-179 -262l-157 -219h-110l-75 228l-77 243h-7l-128 -671h-175z" />
<glyph unicode="&#x43d;" horiz-adv-x="950" d="M26 0l206 1065h174l-88 -454h381l89 454h173l-206 -1065h-174l90 468h-381l-90 -468h-174z" />
<glyph unicode="&#x43e;" horiz-adv-x="921" d="M78 299q0 84 10.5 161.5t25.5 146.5q21 101 56 187t80 142q115 139 304 139q84 0 145.5 -25.5t101.5 -69.5t59.5 -103.5t19.5 -125.5q0 -64 -12 -139.5t-25 -140.5q-24 -116 -58 -205.5t-86 -152t-126 -94.5t-177 -32q-88 0 -148.5 26t-98.5 70t-54.5 99.5t-16.5 116.5z M240 353q-2 -39 4 -77t24 -66.5t52.5 -47t90.5 -18.5q90 0 135 46t76 122q18 47 34.5 104.5t28.5 115t18.5 111.5t6.5 97q0 91 -46.5 136t-121.5 45q-90 0 -148 -65q-35 -37 -63 -99t-50 -142q-16 -62 -26 -134.5t-15 -127.5z" />
<glyph unicode="&#x43f;" d="M21 0l207 1065h172l-24 -119h7q60 69 130 99t141 30q60 0 108.5 -20.5t82 -57t48 -89t6.5 -118.5q0 -11 -13 -84.5t-34 -184t-48.5 -247t-52.5 -274.5h-175q25 121 49 243t43.5 224.5t32.5 170.5t13 76q6 39 3 73t-20.5 61.5t-50.5 42t-87 14.5q-93 0 -154 -64.5 t-81 -161.5l-133 -679h-170z" />
<glyph unicode="&#x440;" horiz-adv-x="930" d="M-66 -423q71 374 143.5 743.5t146.5 744.5h170l-20 -99q2 0 2 -1t2 -1q54 53 115 83t147 30q112 0 179 -68.5t67 -208.5q0 -71 -9 -153.5t-21 -151.5q-19 -105 -49.5 -196.5t-80 -160.5t-122.5 -108.5t-178 -39.5q-64 0 -122.5 28.5t-94.5 84.5q-2 0 -2 -1t-2 -1 q-24 -131 -50 -262.5t-52 -261.5h-169zM265 327q0 -76 37.5 -121.5t110.5 -45.5q51 0 96 20t80 70q31 43 54.5 122.5t40.5 167.5q10 49 15 93t7 81q0 39 -5.5 74t-23 62.5t-47.5 42t-80 14.5q-82 0 -134.5 -54.5t-73.5 -119.5q-26 -82 -45.5 -165.5t-27.5 -161.5 q-2 -19 -3 -39.5t-1 -39.5z" />
<glyph unicode="&#x441;" horiz-adv-x="819" d="M62 318q0 62 9 124.5t19 125.5q19 101 55 193.5t94 162t139.5 111.5t191.5 42q115 0 196 -58t98 -167l-158 -78q-11 71 -52 105.5t-104 34.5q-66 0 -114.5 -30t-83 -80.5t-57 -116t-35.5 -135.5q-10 -49 -17 -99.5t-7 -95.5q0 -107 39 -157t136 -50q61 0 116.5 37 t83.5 99l146 -81q-53 -93 -148 -155.5t-226 -62.5q-98 0 -160.5 29t-98.5 76.5t-49 106.5t-13 119z" />
<glyph unicode="&#x442;" horiz-adv-x="1521" d="M43 0l207 1063h171l-23 -115h6q56 62 123.5 92.5t141.5 30.5q94 0 150.5 -34.5t83.5 -96.5h2q69 64 140 99.5t161 35.5q91 0 145.5 -33t80.5 -86t28.5 -119.5t-11.5 -130.5l-140 -706h-172l138 706q6 30 4.5 63t-15.5 60t-43 44t-74 17q-54 0 -97.5 -19t-76.5 -54 t-55.5 -78.5t-31.5 -95.5l-123 -643h-174q28 148 51 258t39 194t27.5 145t20.5 111q4 39 0.5 74t-19.5 61.5t-47 43t-82 16.5q-99 0 -158.5 -74t-82.5 -195q-4 -19 -13 -68t-22 -112.5t-27 -136t-27 -135.5t-22.5 -113t-13.5 -69h-170z" />
<glyph unicode="&#x443;" horiz-adv-x="806" d="M-140 -281q112 14 201 71.5t154 164.5l-121 1110h179l39 -478q8 -92 13.5 -211.5t1.5 -225.5h6q51 95 101 208t96 232.5t89.5 240.5t79.5 234h179q-64 -191 -123.5 -353t-120 -304.5t-123 -271t-135.5 -247.5q-97 -158 -222.5 -242t-286.5 -82z" />
<glyph unicode="&#x444;" horiz-adv-x="1141" d="M69 290q0 17 1 38t4 40q6 71 18.5 146t32 147t47.5 136.5t64 113.5q62 82 156 128.5t219 46.5l86 432h171l-86 -434q125 -9 207 -66t105 -160q4 -21 7 -44.5t3 -50.5q-5 -57 -9.5 -118.5t-15.5 -121.5q-19 -121 -52.5 -219.5t-91 -170t-147 -113t-222.5 -46.5l-76 -395 h-172l76 395q-168 17 -246.5 98.5t-78.5 217.5zM238 329q0 -60 16 -93q32 -86 169 -103q41 198 80 394.5t78 395.5q-67 0 -118.5 -26.5t-86.5 -69.5q-43 -49 -73 -141.5t-47 -195.5q-12 -86 -18 -161zM595 133q56 0 101.5 18.5t79.5 51.5q49 47 80.5 128.5t48.5 173.5 q11 62 19.5 122.5t8.5 109.5q0 45 -8 74q-15 45 -56.5 76t-115.5 36z" />
<glyph unicode="&#x445;" horiz-adv-x="837" d="M-60 0l415 546q-11 21 -26 62t-33.5 92t-38 105.5t-37 105t-34 91.5t-24.5 63h191l115 -375q17 24 54 76.5t75.5 112t75.5 111t54 75.5h206l-400 -523q15 -33 43 -109t59.5 -162t59 -162t42.5 -109h-191l-123 390q-19 -25 -57.5 -79.5t-80.5 -116t-80.5 -116t-58.5 -78.5 h-206z" />
<glyph unicode="&#x446;" horiz-adv-x="983" d="M82 205.5q-4 63.5 8 134.5l140 723h172l-131 -673q-9 -46 -10 -89t14 -76.5t47.5 -53t90.5 -19.5q59 0 104 27.5t75 69t47 93.5t28 101l123 620h169l-136 -693q-6 -39 -12.5 -82t-1 -82.5t28 -72t71.5 -47.5l-74 -359h-151l49 275q-52 17 -75.5 49.5t-27.5 75.5h-2 q-26 -35 -62.5 -60.5t-77.5 -43t-83 -25.5t-78 -8q-82 0 -134.5 27.5t-79.5 76t-31 112z" />
<glyph unicode="&#x447;" horiz-adv-x="880" d="M105.5 591.5q-8.5 62.5 5.5 137.5l67 336h171l-65 -332q-17 -88 18.5 -137.5t151.5 -49.5q36 0 94.5 16.5t100.5 44.5q4 28 17 92t27.5 136t27 136.5t19.5 93.5h174l-206 -1065h-175l87 447q-52 -28 -114.5 -41.5t-99.5 -13.5q-96 0 -159.5 24.5t-98 68.5t-43 106.5z" />
<glyph unicode="&#x448;" horiz-adv-x="1492" d="M80 226.5q-2 66.5 10 130.5l140 706h172l-137 -706q-7 -30 -5 -63.5t16 -60t43.5 -44t74.5 -17.5q53 0 96 19.5t76.5 53.5t55 78.5t32.5 95.5l122 644h174q-30 -148 -51 -258t-37.5 -194t-28.5 -145.5t-20 -110.5q-5 -39 -1.5 -74.5t19.5 -62.5t47 -42.5t83 -15.5 q98 0 157.5 74t83.5 194q2 19 11.5 68.5t23 113t27.5 135.5t26.5 135.5t22.5 113t14 69.5h169l-206 -1063h-172l23 114h-6q-114 -122 -265 -122q-94 0 -149.5 34t-84.5 97h-2q-69 -64 -140 -100t-161 -36t-145 33.5t-80.5 86.5t-27.5 119.5z" />
<glyph unicode="&#x449;" horiz-adv-x="1519" d="M80 226.5q-2 66.5 10 130.5l140 706h172l-137 -706q-7 -30 -5 -63.5t16 -60t43.5 -44t74.5 -17.5q53 0 96 19.5t76.5 53.5t55 78.5t32.5 95.5l122 644h174q-30 -148 -51 -258t-37.5 -193t-28.5 -144.5t-20 -112.5q-7 -39 -4.5 -75.5t17.5 -64.5t46 -44.5t82 -16.5 q101 0 163.5 77t84.5 197l123 635h169l-135 -693q-7 -39 -13 -82t-1 -82.5t27.5 -72t72.5 -47.5l-80 -359h-146l47 277q-51 17 -73.5 48.5t-26.5 74.5h-3q-59 -69 -143 -101t-160 -32q-95 0 -145 33t-79 96h-2q-69 -64 -140 -100t-161 -36t-145 33.5t-80.5 86.5t-27.5 119.5 z" />
<glyph unicode="&#x44a;" horiz-adv-x="1072" d="M84 914l30 151h452l-82 -411h208q101 0 165 -27t99 -68.5t48 -90.5t13 -92q0 -58 -21.5 -126.5t-72 -127t-134 -98t-208.5 -39.5q-84 0 -152 26t-113 76.5t-61.5 125.5t3.5 177l103 524h-277zM426 359q-16 -90 25 -152.5t142 -62.5q64 0 112 20.5t78 52t44 71t14 77.5 q0 62 -48.5 99t-138.5 37h-200z" />
<glyph unicode="&#x44b;" horiz-adv-x="1260" d="M76 213q-16 75 4 177l133 675h174l-81 -411h207q101 0 164 -27t98.5 -68.5t48.5 -90.5t13 -92q0 -58 -21.5 -126.5t-71 -127t-132.5 -98t-208 -39.5q-84 0 -152.5 26t-114 76.5t-61.5 125.5zM250 359q-17 -90 24.5 -152.5t140.5 -62.5q66 0 112.5 20.5t76.5 52t44.5 71 t14.5 77.5q0 62 -48.5 99t-140.5 37h-199zM878 0l208 1065h174l-206 -1065h-176z" />
<glyph unicode="&#x44c;" horiz-adv-x="911" d="M91.5 213q-15.5 75 2.5 177l134 675h174l-82 -411h209q101 0 163.5 -27t97.5 -68.5t48.5 -90.5t13.5 -92q0 -58 -22 -126.5t-71 -127t-132 -98t-208 -39.5q-84 0 -153 26t-114 76.5t-60.5 125.5zM265 359q-17 -90 25 -152.5t140 -62.5q67 0 113 20.5t76 52t44 71t14 77.5 q0 62 -48 99t-141 37h-198z" />
<glyph unicode="&#x44d;" horiz-adv-x="840" d="M4 195l148 74q15 -56 64 -89.5t108 -33.5q132 0 194.5 86t85.5 232h-359q8 37 15 73.5t13 73.5h357q6 39 8 70t2 54q0 82 -43 128t-129 46q-55 0 -110 -26.5t-91 -78.5l-132 88q52 82 134 133.5t207 51.5q172 0 253.5 -88t81.5 -236q0 -129 -20.5 -265.5t-73 -247.5 t-146 -182t-242.5 -71q-125 0 -212 55t-113 153z" />
<glyph unicode="&#x44e;" horiz-adv-x="1233" d="M17 0l207 1063h174l-88 -452h139q52 232 155.5 349t275.5 117q133 0 209.5 -68.5t92.5 -169.5q7 -41 7.5 -90.5t-6.5 -101.5t-15.5 -101t-16.5 -90q-47 -220 -148.5 -344.5t-288.5 -124.5q-88 0 -147.5 28t-95.5 74t-50.5 105.5t-12.5 123.5q3 41 5 70t10 80h-142 l-90 -468h-174zM572 351q0 -39 4.5 -76t20.5 -65.5t47 -47t83 -18.5q49 0 84.5 20.5t66.5 54.5q28 33 52 92t43.5 129.5t31.5 144t17 135.5q4 91 -36 147t-122 56q-49 0 -85.5 -18.5t-66.5 -55.5q-31 -36 -56.5 -103t-44 -142t-29 -144.5t-10.5 -108.5z" />
<glyph unicode="&#x44f;" horiz-adv-x="915" d="M-13 0l103 269q27 66 66 134t109 96q-70 37 -96.5 91.5t-26.5 125.5q0 82 29 146.5t80.5 108.5t121.5 68t152 24h402l-200 -1063h-173q21 109 43.5 221t45.5 222h-175q-60 0 -111 -33.5t-90 -130.5l-107 -279h-173zM312 716q0 -60 42 -94.5t120 -34.5h197q15 82 30 161 t32 161h-167q-43 0 -88 -6t-82 -27.5t-60.5 -59.5t-23.5 -100z" />
<glyph unicode="&#x451;" horiz-adv-x="889" d="M71 340q0 112 23 242t78.5 239.5t148 182.5t233.5 73q148 0 232 -69.5t84 -192.5q0 -86 -31 -156t-95.5 -120.5t-163 -77t-234.5 -26.5q-24 0 -52.5 1t-55.5 3q-6 -45 -6 -90q0 -39 8 -76t24.5 -63.5t48 -43t79.5 -16.5q28 0 60 10t63 26.5t58 39t44 47.5l142 -78 q-62 -92 -157 -150t-228 -58q-88 0 -147 29t-93.5 77.5t-48.5 113t-14 133.5zM267 589q24 -2 49.5 -3t48.5 -1q183 0 259.5 59.5t76.5 147.5q0 55 -43 90.5t-118 35.5q-112 0 -177.5 -88t-95.5 -241zM357 1290l37 181h165l-34 -181h-168zM712 1290l37 181h165l-34 -181h-168 z" />
<glyph unicode="&#x452;" horiz-adv-x="954" d="M33 0l238 1233h-117l29 137h114l38 191h172l-36 -191h397l-27 -137h-398l-58 -300h7q116 130 277 130q71 0 119.5 -25t77.5 -67t40.5 -99t11.5 -119q0 -74 -8.5 -154t-25 -159t-39 -153t-51.5 -133q-45 -88 -135.5 -148t-250.5 -60h-24t-27 3l30 148q80 -5 133.5 15.5 t89 62.5t58 103.5t40.5 140.5q6 33 13.5 72.5t13 76t9 68t3.5 45.5q0 43 -6 82t-23 68t-49.5 46.5t-85.5 17.5q-64 0 -110.5 -32t-78 -83t-51 -112t-31.5 -120l-107 -548h-172z" />
<glyph unicode="&#x453;" horiz-adv-x="864" d="M41 234q0 82 26.5 143.5t75 106.5t118.5 78t156 60q125 36 189.5 77t64.5 112q0 53 -40 78t-102 25q-73 0 -136.5 -30t-108.5 -90l-132 84q62 94 155 145.5t222 53.5q64 0 122.5 -14t101.5 -43t68.5 -75t25.5 -110q0 -74 -26.5 -128.5t-75 -97.5t-115 -75.5t-148.5 -57.5 q-54 -17 -102.5 -35t-85 -41.5t-58 -56.5t-21.5 -83q0 -114 172 -114q62 0 131 30.5t114 85.5l127 -88q-66 -94 -159 -141.5t-237 -47.5q-69 0 -128 15t-102 45.5t-67.5 77.5t-24.5 111zM523 1230l224 372l152 -53l-279 -359z" />
<glyph unicode="&#x454;" horiz-adv-x="840" d="M62 318q0 62 9 124.5t19 125.5q19 101 55 193.5t94 162t139.5 111.5t191.5 42q115 0 196 -58t98 -167l-158 -78q-11 71 -52 105.5t-104 34.5q-60 0 -105 -25t-78.5 -67t-57 -97.5t-38.5 -115.5h367l-27 -149h-368l-11 -101q-4 -103 33.5 -156t145.5 -53q61 0 116.5 37 t83.5 99l146 -81q-53 -93 -148 -155.5t-226 -62.5q-98 0 -160.5 29t-98.5 76.5t-49 106.5t-13 119z" />
<glyph unicode="&#x455;" horiz-adv-x="862" d="M15 211l145 77q26 -64 76 -102t136 -38q41 0 82 12t70.5 35.5t49 59t19.5 80.5q0 37 -18.5 58.5t-49 36.5t-71.5 24.5t-89 23.5q-109 36 -165 89t-56 153q0 82 30.5 149t82 113t122 70.5t154.5 24.5q125 0 207.5 -54.5t113.5 -152.5l-150 -78q-19 60 -64 91t-127 31 q-88 0 -142.5 -48.5t-54.5 -121.5q0 -51 51.5 -76t141.5 -48q58 -15 106 -34.5t82 -50t53.5 -73.5t19.5 -101q0 -90 -31 -160t-86.5 -117t-130.5 -72t-165 -25q-129 0 -221.5 57t-120.5 167z" />
<glyph unicode="&#x456;" horiz-adv-x="418" d="M37 0l206 1065h172l-206 -1065h-172zM293 1323l34 173h172l-35 -173h-171z" />
<glyph unicode="&#x457;" horiz-adv-x="418" d="M37 0l206 1065h172l-206 -1065h-172zM94 1275l37 180h166l-35 -180h-168zM449 1275l37 180h166l-35 -180h-168z" />
<glyph unicode="&#x458;" horiz-adv-x="444" d="M-195 -428l29 161q6 0 24.5 -1t22.5 1q70 2 102 46.5t47 117.5l228 1168h175l-238 -1207q-10 -58 -33.5 -111t-62.5 -91.5t-92.5 -62t-125.5 -23.5h-39t-37 2zM308 1323l34 173h175l-35 -173h-174z" />
<glyph unicode="&#x459;" horiz-adv-x="1379" d="M-45 109q53 26 96 54t76 73t57.5 114t43.5 177l103 538h574l-82 -411h209q101 0 163.5 -27t98 -68.5t48 -90.5t12.5 -92q0 -58 -21.5 -126.5t-71.5 -127t-133 -98t-207 -39.5q-84 0 -152 26t-113 76.5t-61 125.5t2 177l102 519h-237l-72 -390q-27 -134 -62 -228t-83 -158 t-108.5 -102.5t-138.5 -60.5zM765 359q-16 -90 26 -152.5t142 -62.5q65 0 112 20.5t77.5 52t44 71t13.5 77.5q0 62 -48 99t-141 37h-197z" />
<glyph unicode="&#x45a;" horiz-adv-x="1429" d="M24 0l206 1065h174l-80 -411h343l82 411h174l-82 -411h208q101 0 165 -27t99 -68.5t48 -90.5t13 -92q0 -58 -21.5 -126.5t-72 -127t-133 -98t-207.5 -39.5q-84 0 -153 26t-114 76.5t-61.5 125.5t3.5 177l21 111h-343l-98 -501h-171zM785 359q-16 -90 25.5 -152.5 t139.5 -62.5q66 0 113 20.5t77 52t44 71t14 77.5q0 62 -48.5 99t-138.5 37h-200z" />
<glyph unicode="&#x45b;" horiz-adv-x="954" d="M28 0l237 1233h-117l28 137h117l36 193h172l-39 -193h400l-27 -137h-398l-57 -289h7q62 69 132 100t141 31q121 0 191 -77t50 -222q0 -11 -12.5 -81.5t-33 -179.5t-47 -243t-51.5 -272h-174q24 121 48.5 243t44 224.5t32 170.5t12.5 76q11 78 -18 133.5t-126 55.5 q-92 0 -158.5 -61.5t-86.5 -162.5l-134 -679h-169z" />
<glyph unicode="&#x45c;" horiz-adv-x="905" d="M13 0l206 1065h173l-89 -463h110q28 0 59 4.5t60.5 20.5t57 47.5t53.5 82.5l147 308h176l-149 -310q-39 -78 -85 -130.5t-106 -70.5q69 -16 91.5 -72t31.5 -136l29 -346h-165l-20 295q-10 103 -56.5 134t-117.5 31h-144l-90 -460h-172zM511 1230l224 372l153 -53 l-279 -359z" />
<glyph unicode="&#x45e;" horiz-adv-x="806" d="M-140 -281q112 14 201 71.5t154 164.5l-121 1110h179l39 -478q8 -92 13.5 -211.5t1.5 -225.5h6q51 95 101 208t96 232.5t89.5 240.5t79.5 234h179q-64 -191 -123.5 -353t-120 -304.5t-123 -271t-135.5 -247.5q-97 -158 -222.5 -242t-286.5 -82zM250 1504h144 q-2 -21 3 -46.5t20.5 -47t40 -35.5t61.5 -14q36 0 66 13t52.5 33.5t37.5 46t20 50.5h157q-13 -50 -38.5 -100t-67.5 -89.5t-100.5 -64.5t-136.5 -25q-80 0 -132.5 22.5t-83.5 61.5t-40.5 89.5t-2.5 105.5z" />
<glyph unicode="&#x45f;" horiz-adv-x="954" d="M82 273q0 11 12.5 84t34 184t49 247.5t52.5 276.5h172q-24 -121 -47.5 -244.5t-42.5 -226t-32 -170t-13 -75.5q-7 -39 -4.5 -74t16.5 -61.5t45 -43t87 -16.5q45 0 86 21.5t74 57.5t55.5 82t33.5 96l130 654h169l-206 -1065h-172l23 114h-7q-59 -69 -129 -98t-139 -29 q-134 0 -199.5 77.5t-47.5 208.5zM281 -394l72 314l166 33l-84 -347h-154z" />
<glyph unicode="&#x490;" horiz-adv-x="948" d="M54 0l284 1496h598l59 263h164l-92 -430h-585l-252 -1329h-176z" />
<glyph unicode="&#x491;" horiz-adv-x="799" d="M30 0l202 1065h495l49 242h157l-79 -396h-478l-173 -911h-173z" />
<glyph unicode="&#x4d9;" horiz-adv-x="889" d="M71 250q0 86 35.5 156t101 120t158 78t208.5 28q31 0 61 -2t60 -6q13 53 13 113q0 71 -32.5 122.5t-121.5 51.5q-57 0 -124 -32t-106 -87l-131 74q54 97 149 154t226 57q84 0 142 -24.5t94.5 -69.5t52.5 -106.5t16 -134.5q0 -125 -24 -258t-80.5 -244t-149 -182 t-229.5 -71q-148 0 -233.5 70t-85.5 193zM240 273q0 -56 44.5 -92.5t117.5 -36.5q119 0 177.5 88t89.5 242q-29 4 -55.5 6t-51.5 2q-72 0 -130 -16.5t-101 -43t-67 -65.5t-24 -84z" />
<glyph unicode="&#x2013;" horiz-adv-x="1063" d="M51 495l33 163h979l-33 -163h-979z" />
<glyph unicode="&#x2014;" horiz-adv-x="2150" d="M33 495l31 163h2065l-32 -163h-2064z" />
<glyph unicode="&#x2018;" horiz-adv-x="478" d="M256 1082l43 219l159 246h101l-107 -242h53l-45 -223h-204z" />
<glyph unicode="&#x2019;" horiz-adv-x="478" d="M256 1082l107 243h-53l45 224h204l-42 -220l-158 -247h-103z" />
<glyph unicode="&#x201a;" horiz-adv-x="478" d="M-13 -250l107 242h-53l43 223h204l-43 -219l-157 -246h-101z" />
<glyph unicode="&#x201c;" horiz-adv-x="644" d="M203 1082l42 219l157 246h103l-107 -242h54l-46 -223h-203zM482 1082l43 219l159 246h101l-108 -242h54l-45 -223h-204z" />
<glyph unicode="&#x201d;" horiz-adv-x="644" d="M213 1082l109 243h-53l43 224h207l-43 -220l-160 -247h-103zM495 1082l107 243h-54l45 224h205l-43 -220l-160 -247h-100z" />
<glyph unicode="&#x201e;" horiz-adv-x="758" d="M-13 -248l107 242h-53l45 223h204l-42 -219l-160 -246h-101zM267 -248l107 242h-54l45 223h205l-43 -219l-159 -246h-101z" />
<glyph unicode="&#x2020;" horiz-adv-x="876" d="M114 847l28 146h322l95 482h159l-94 -482h322l-28 -146h-323l-236 -1217h-159l237 1217h-323z" />
<glyph unicode="&#x2021;" horiz-adv-x="885" d="M-2 240l28 147h325l90 460h-324l27 146h324l96 482h160l-94 -482h327l-28 -146h-327l-91 -460h328l-28 -147h-327l-119 -610h-160l117 610h-324z" />
<glyph unicode="&#x2022;" horiz-adv-x="878" d="M168 576q0 56 21.5 106.5t59 88t87 59.5t107.5 22t108.5 -22t88 -59.5t59 -88t21.5 -106.5q0 -55 -21.5 -106t-59 -88.5t-88 -59t-108.5 -21.5t-107.5 21.5t-87 59t-59 88.5t-21.5 106z" />
<glyph unicode="&#x2026;" horiz-adv-x="1521" d="M60 0l41 217h205l-41 -217h-205zM566 0l41 217h204l-41 -217h-204zM1082 0l40 217h205l-41 -217h-204z" />
<glyph unicode="&#x2030;" horiz-adv-x="1951" d="M131 -37l1102 1570h132l-1103 -1570h-131zM131 845l82 428q21 105 89 168t172 63q53 0 99.5 -18.5t76 -53t43 -81t2.5 -101.5l-80 -429q-21 -107 -81 -168.5t-177 -61.5q-49 0 -95.5 17.5t-80 49.5t-48 79.5t-2.5 107.5zM267 835q-11 -50 12.5 -85.5t83.5 -35.5 q56 0 82 32t35 75l84 441q10 45 -18.5 81t-81.5 36q-49 0 -78 -30.5t-37 -75.5zM794 243l82 428q21 105 88.5 167.5t170.5 62.5q54 0 100.5 -18.5t76.5 -52.5t43 -80t2 -103l-79 -428q-21 -107 -82 -168t-176 -61q-50 0 -96 17t-79.5 49t-49 79.5t-1.5 107.5zM929 232 q-10 -49 13.5 -85t83.5 -36q56 0 81.5 32.5t33.5 75.5l84 441q11 46 -18 81t-80 35q-50 0 -78.5 -30t-37.5 -75zM1344 243l82 428q21 105 88.5 167.5t171.5 62.5q54 0 100 -18.5t76 -52.5t43 -80t3 -103l-80 -428q-21 -107 -81.5 -168t-176.5 -61q-50 0 -96 17t-79.5 49 t-48.5 79.5t-2 107.5zM1479 232q-10 -49 13.5 -85t83.5 -36q56 0 82 32.5t35 75.5l84 441q10 46 -19 81t-81 35q-49 0 -78 -30t-38 -75z" />
<glyph unicode="&#x2039;" horiz-adv-x="599" d="M49 499l331 400h168l-331 -404l175 -396h-166z" />
<glyph unicode="&#x203a;" horiz-adv-x="599" d="M28 99l331 404l-174 396h166l176 -400l-332 -400h-167z" />
<glyph unicode="&#x2044;" horiz-adv-x="347" d="M-449 -37l1101 1570h133l-1103 -1570h-131z" />
<glyph unicode="&#x20ac;" d="M54 574l24 112h82l23 127h-84l24 110h82l21 105q19 94 52.5 181.5t90.5 153t138.5 105.5t196.5 40q168 0 253.5 -84t98.5 -220l-176 -55q-4 82 -52 138.5t-133 56.5q-69 0 -118.5 -27t-84 -71t-56 -99t-32.5 -111l-21 -113h382l-21 -110h-383l-23 -127h382l-21 -112h-383 l-28 -139q-11 -58 -9 -110t22.5 -92t60.5 -62.5t102 -22.5q95 0 161.5 54t107.5 147l166 -61q-56 -142 -172 -221.5t-278 -79.5q-107 0 -180.5 34.5t-114 95.5t-50.5 145t10 183l24 129h-84z" />
<glyph unicode="&#x2116;" horiz-adv-x="1697" d="M41 0l288 1496h174l209 -776l73 -307l9 2l210 1081h178l-290 -1496h-172l-209 788l-74 298h-7l-211 -1086h-178zM1135 576l26 125h489l-27 -125h-488zM1202 995q0 56 7.5 106t17.5 93q17 66 40 123t53 93q34 43 85.5 68.5t121.5 25.5q120 0 180 -63.5t60 -154.5 q0 -43 -7.5 -92.5t-17.5 -89.5q-33 -148 -102.5 -233.5t-211.5 -85.5q-62 0 -105 17t-70.5 46.5t-39 67.5t-11.5 79zM1334 1020q0 -21 3 -41t14.5 -36t32 -26t54.5 -10q50 0 82.5 28.5t49.5 73.5q24 62 43 139t19 132q0 51 -31 77t-76 26q-50 0 -91 -37q-24 -24 -39.5 -60 t-29.5 -80q-13 -47 -22 -99.5t-9 -86.5z" />
<glyph unicode="&#x2122;" horiz-adv-x="1627" d="M80 1372v124h583v-124h-224v-734h-136v734h-223zM770 636v858h133l238 -533l236 533h131v-858h-136q0 129 -1 258.5t-1 258.5l-16 -26t-14 -26l-146 -325h-115l-174 379h-2v-519h-133z" />
<glyph unicode="&#x2202;" horiz-adv-x="911" d="M60 314q0 144 41 262.5t106.5 202t148.5 129.5t165 46q66 0 127.5 -26.5t114.5 -102.5q19 117 19 211q0 175 -61 270.5t-185 95.5q-35 0 -62 -4.5t-63 -14.5l30 146q66 21 138 22q96 0 162.5 -40t108.5 -107.5t61.5 -159t19.5 -197.5q-6 -245 -59 -443t-134.5 -336.5 t-186 -213.5t-211.5 -75q-133 0 -206.5 89.5t-73.5 245.5zM211 355q0 -107 43 -164.5t120 -57.5q66 0 123 46.5t101.5 118.5t78 162t52.5 178q-52 101 -112.5 137t-113.5 36q-64 0 -118 -45.5t-92.5 -113t-60 -147t-21.5 -150.5z" />
<glyph unicode="&#x220f;" horiz-adv-x="1128" d="M17 -178l327 1674h852l-328 -1674h-180l297 1518h-493l-297 -1518h-178z" />
<glyph unicode="&#x2211;" horiz-adv-x="876" d="M-66 -174l29 157l420 677l-157 688l30 148h755l-32 -162h-560l160 -674l-417 -666h582l-32 -168h-778z" />
<glyph unicode="&#x221a;" horiz-adv-x="973" d="M105 788l271 98l86 -779q21 64 70 191.5t109 283t127 329t126.5 329t107 283t69.5 191.5h142l-731 -1888h-129l-101 886q-6 -4 -25.5 -12t-41 -15.5t-40 -13.5t-24.5 -8z" />
<glyph unicode="&#x221e;" horiz-adv-x="1504" d="M90 593q0 64 25 122.5t67 102.5t99.5 70t126.5 26q58 0 109 -22t95 -55t80.5 -75t64.5 -83q37 48 74 91t81.5 75.5t95 50.5t112.5 18q66 0 121.5 -24t95.5 -67t61.5 -100.5t21.5 -129.5q0 -64 -24 -123t-66 -102.5t-100 -69t-126 -25.5q-54 0 -103 20.5t-92 52.5t-80 73 t-72 84q-39 -45 -76.5 -87t-82 -74t-94.5 -50.5t-112 -18.5q-64 0 -120.5 23.5t-96.5 65.5t-62.5 101.5t-22.5 129.5zM219 593q0 -84 54 -136.5t131 -52.5q86 0 153 53.5t114 133.5q-19 33 -47.5 67t-61.5 62.5t-71.5 45t-82.5 16.5q-38 0 -72.5 -14.5t-60 -40.5t-41 -60.5 t-15.5 -73.5zM839 593q60 -75 120.5 -132t148.5 -57q39 0 72 15.5t57.5 41t38.5 59.5t14 73q0 82 -51 135.5t-127 53.5q-86 0 -148.5 -53.5t-124.5 -135.5z" />
<glyph unicode="&#x222b;" horiz-adv-x="679" d="M-164 -301l39 120q31 -6 50 -8t36 -2q41 0 75.5 15.5t63.5 56.5t55 111.5t52 177.5q30 133 68.5 337.5t92.5 462.5q30 160 65 298q49 205 129.5 299.5t222.5 94.5q31 0 69 -6t71 -17l-39 -125q-55 13 -90 13q-43 0 -77.5 -17.5t-62.5 -58.5t-52.5 -109.5t-49.5 -171.5 q-14 -64 -32.5 -154.5t-38 -191t-38.5 -203t-37 -193.5q-16 -94 -35.5 -187t-43.5 -170q-31 -109 -64 -183.5t-76 -121.5t-97.5 -67.5t-126.5 -20.5q-30 0 -64 5t-65 16z" />
<glyph unicode="&#x2248;" d="M41 415q60 86 131 132t150 46q52 0 94 -18.5t82 -41t78.5 -40t81.5 -17.5t80.5 22.5t80.5 80.5l99 -68q-54 -90 -120.5 -138.5t-154.5 -48.5q-43 0 -84.5 18.5t-85 40t-86.5 40t-88 18.5q-49 0 -81.5 -25.5t-82.5 -75.5zM99 737q60 86 131 132.5t150 46.5q52 0 94.5 -18 t81.5 -40.5t78 -41t82 -18.5t81 22.5t81 80.5l98 -66q-53 -91 -119.5 -139.5t-155.5 -48.5q-43 0 -85 18.5t-85 40t-86 39.5t-88 18q-49 0 -81.5 -25.5t-82.5 -74.5z" />
<glyph unicode="&#x2260;" d="M-4 133l215 245h-183l28 141h279l205 232h-439l26 139h538l211 239h146l-214 -239h183l-25 -139h-280l-206 -232h441l-29 -141h-535l-219 -247z" />
<glyph unicode="&#x2264;" horiz-adv-x="977" d="M-28 2l26 136h854l-27 -136h-853zM66 559l26 131l919 323l-28 -143l-716 -244l619 -250l-28 -146z" />
<glyph unicode="&#x2265;" horiz-adv-x="977" d="M-8 2l25 136h853l-25 -136h-853zM28 230l28 144l716 250l-620 244l29 145l791 -325l-26 -132z" />
<glyph unicode="&#x25ca;" horiz-adv-x="724" d="M37 640l225 642h196l228 -642l-226 -638h-195zM185 636h4l172 -494h7l170 494l-177 499h-6z" />
<glyph unicode="&#x25fc;" horiz-adv-x="1063" d="M0 0v1065h1065v-1065h-1065z" />
</font>
</defs>
</svg>
