<?xml version="1.0" standalone="no"?>
<!DOCTYPE svg PUBLIC "-//W3C//DTD SVG 1.1//EN" "http://www.w3.org/Graphics/SVG/1.1/DTD/svg11.dtd" >
<svg xmlns="http://www.w3.org/2000/svg">
<metadata></metadata>
<defs>
<font id="pf_dintext_promedium" horiz-adv-x="1128" >
<font-face units-per-em="2048" ascent="1536" descent="-512" />
<missing-glyph horiz-adv-x="541" />
<glyph unicode="&#xfb01;" horiz-adv-x="1130" d="M45 868v197h125v150q0 103 33 174.5t91.5 115.5t134.5 63t160 19q109 0 208.5 -33.5t174.5 -115.5l-147 -163q-41 45 -97.5 70t-138.5 25q-51 0 -86 -14t-54 -36.5t-27.5 -51.5t-8.5 -59v-144h566v-1065h-244v868h-322v-868h-243v868h-125z" />
<glyph unicode="&#xfb02;" horiz-adv-x="1178" d="M45 868v197h125v144q0 102 32 173t87 114t130.5 62.5t159.5 19.5q49 0 156.5 -12.5t251.5 -69.5l2 -1178q0 -60 27 -81.5t76 -21.5h43v-215h-92q-62 0 -116 13t-94.5 45t-63 87t-22.5 136v1055q-56 18 -95 22.5t-63 4.5q-53 0 -88 -13.5t-54 -36.5t-26.5 -51.5 t-7.5 -59.5v-137h221v-197h-221v-868h-243v868h-125z" />
<glyph horiz-adv-x="2048" />
<glyph horiz-adv-x="2048" />
<glyph unicode="&#xd;" horiz-adv-x="2048" />
<glyph unicode=" "  horiz-adv-x="541" />
<glyph unicode="&#x09;" horiz-adv-x="541" />
<glyph unicode="&#xa0;" horiz-adv-x="541" />
<glyph unicode="!" horiz-adv-x="575" d="M162 0v243h255v-243h-255zM168 1496h240l-21 -1100h-198z" />
<glyph unicode="&#x22;" horiz-adv-x="771" d="M123 1034v462h201v-462h-201zM437 1034v462h201v-462h-201z" />
<glyph unicode="#" horiz-adv-x="1173" d="M41 449v168h217l37 265h-192v169h217l63 443h193l-63 -443h214l63 443h193l-62 -443h204v-169h-228l-39 -265h205v-168h-228l-63 -449h-196l62 449h-210l-63 -449h-197l64 449h-191zM452 617h213l39 265h-214z" />
<glyph unicode="$" d="M56 189l147 189q73 -62 149 -100t165 -48v402q-80 26 -154.5 60.5t-131.5 84.5t-91.5 118.5t-34.5 162.5q0 91 29.5 167t83 133t128.5 92.5t171 43.5v160h111v-160q105 -6 205 -40t191 -100q-4 -8 -22.5 -39t-39 -66.5t-39 -65.5t-24.5 -39q-72 48 -137 75.5t-134 36.5 v-386q103 -32 185 -69.5t140 -89t89 -121t31 -167.5q0 -96 -33.5 -174.5t-92.5 -133.5t-141 -86t-178 -37v-230h-111v230q-123 8 -239 54t-222 143zM365 1069q0 -60 46.5 -98t105.5 -62v345q-64 -11 -108 -57t-44 -128zM628 232q82 13 124 60t42 119q0 81 -48.5 122 t-117.5 67v-368z" />
<glyph unicode="%" horiz-adv-x="1849" d="M140 860v375q0 64 24.5 113.5t66.5 84t95.5 53t112.5 18.5q58 0 113 -18.5t96.5 -53t66.5 -84t25 -113.5v-375q0 -64 -25 -113.5t-66.5 -83t-96.5 -52t-113 -18.5t-112 18.5t-96 52t-66.5 83t-24.5 113.5zM329 866q0 -53 30.5 -80t79.5 -27t80 27t31 80v364 q0 51 -31 79.5t-80 28.5t-79.5 -28t-30.5 -80v-364zM372 -37l914 1570h193l-915 -1570h-192zM1110 260v374q0 64 24.5 114t66.5 84t95.5 52.5t111.5 18.5t113 -18.5t97 -52.5t66.5 -83.5t24.5 -114.5v-374q0 -64 -24.5 -113.5t-66.5 -83t-96.5 -51.5t-113.5 -18 q-58 0 -111.5 18t-95.5 51.5t-66.5 82.5t-24.5 114zM1299 267q0 -54 30 -80.5t79 -26.5t80.5 26.5t31.5 80.5v363q0 51 -31 79t-81 28q-49 0 -79 -28t-30 -79v-363z" />
<glyph unicode="&#x26;" horiz-adv-x="1395" d="M146 374q0 137 66.5 246t213.5 207q-28 35 -55 72t-48.5 75.5t-34.5 81.5t-13 93q0 79 24.5 145.5t74 115t125 75.5t178.5 27q91 0 192 -30.5t194 -109.5l-138 -178q-41 32 -74.5 52t-63.5 31t-60 14.5t-62 3.5q-78 0 -118 -42t-40 -100q0 -43 14.5 -72.5t50.5 -78.5 l387 -510q30 56 48.5 114.5t28.5 117.5l220 -47q-19 -96 -57 -193t-93 -178q60 -76 121 -154t121 -152h-283l-111 142q-81 -74 -175.5 -114.5t-197.5 -40.5q-112 0 -193.5 32t-136 85.5t-80 123t-25.5 146.5zM376 385q0 -75 53 -126.5t158 -51.5q66 0 128.5 33t105.5 72 q-69 88 -134 174t-135 174q-84 -55 -130 -124.5t-46 -150.5z" />
<glyph unicode="'" horiz-adv-x="539" d="M164 1034v462h201v-462h-201z" />
<glyph unicode="(" horiz-adv-x="712" d="M123 656q0 138 33 266.5t90 246t132.5 223.5t159.5 197l141 -91q-71 -94 -126.5 -198t-93.5 -210.5t-57 -214t-19 -208.5q0 -109 20 -221.5t59 -219.5t94 -210.5t123 -193.5l-133 -103q-86 92 -162 199.5t-134.5 227t-92.5 248.5t-34 262z" />
<glyph unicode=")" horiz-adv-x="712" d="M78 -178q139 182 218.5 402.5t79.5 442.5q0 101 -19 208.5t-57 214t-94 210.5t-126 198l139 91q84 -91 160.5 -197t133.5 -223.5t90 -246t33 -266.5q0 -133 -34 -262t-92 -248.5t-134.5 -227t-162.5 -199.5z" />
<glyph unicode="*" horiz-adv-x="887" d="M86 1161q2 9 9.5 34.5t17.5 55t17.5 55t9.5 36.5l238 -101q0 15 -4 52.5t-7.5 77t-7.5 76.5t-4 51h193l-25 -257l238 101l54 -181l-247 -60l169 -192q-6 -6 -28.5 -23.5t-48.5 -35t-48.5 -34t-30.5 -22.5l-132 221l-135 -223l-156 115l171 194q-15 5 -49.5 13t-72 17.5 t-72 17.5t-49.5 12z" />
<glyph unicode="+" d="M51 540v193h411v402h205v-402h410v-193h-410v-407h-205v407h-411z" />
<glyph unicode="," horiz-adv-x="593" d="M135 -284l78 282h-71v299h295v-287l-166 -294h-136z" />
<glyph unicode="-" horiz-adv-x="893" d="M105 454v221h685v-221h-685z" />
<glyph unicode="." horiz-adv-x="579" d="M144 0v297h293v-297h-293z" />
<glyph unicode="/" horiz-adv-x="737" d="M-19 -90l542 1649h199l-541 -1649h-200z" />
<glyph unicode="0" d="M129 423v648q0 105 38 186t99 136.5t141.5 85t166.5 29.5t167.5 -29.5t143 -85t99.5 -136.5t38 -186v-648q0 -103 -38 -184t-99.5 -136.5t-143 -84t-167.5 -28.5t-166.5 28.5t-141.5 84t-99 136.5t-38 184zM376 433q0 -103 54 -158.5t144 -55.5q91 0 145.5 55t54.5 159 v632q0 103 -54.5 158t-145.5 55q-90 0 -144 -55t-54 -158v-632z" />
<glyph unicode="1" d="M297 1077v261l226 158h230v-1496h-248v1225z" />
<glyph unicode="2" d="M109 0v222l590 709q62 80 62 159q0 71 -47 127t-144 56q-80 0 -136 -53.5t-71 -156.5l-244 38q12 93 52 168t100 128.5t137.5 82t161.5 28.5q95 0 176 -26.5t141.5 -77t95 -125.5t34.5 -175q0 -76 -28 -155t-80 -141l-474 -572h574v-236h-900z" />
<glyph unicode="3" d="M103 349l241 34q17 -84 75.5 -124t132.5 -40q97 0 158.5 65t61.5 170q0 102 -59 162.5t-167 60.5h-118v203h110q109 0 166 57.5t57 141.5q0 87 -59 141.5t-146 54.5q-61 0 -119.5 -40.5t-77.5 -133.5l-240 38q16 84 58 153t102.5 116t132.5 73.5t152 26.5q118 0 204 -35 t142 -91.5t83 -132t27 -159.5q0 -80 -45.5 -167.5t-147.5 -142.5q110 -56 158.5 -148t48.5 -178q0 -103 -34 -188t-97.5 -146.5t-151.5 -95.5t-197 -34q-73 0 -144.5 19t-133 60.5t-107.5 111t-66 168.5z" />
<glyph unicode="4" d="M60 217v211l519 1068h273l-512 -1051h364v415h246v-415h123v-228h-123v-217h-246v217h-644z" />
<glyph unicode="5" d="M111 346l246 44q17 -97 72 -136t133 -39q71 0 112.5 30t65 76.5t31 101.5t7.5 104q0 54 -8.5 103t-32 88t-64.5 62.5t-103 23.5q-53 0 -102 -32t-83 -97h-233v821h837v-230h-602v-324q58 51 122.5 68.5t124.5 17.5q103 0 176.5 -33.5t122 -94.5t72 -145t25.5 -185 q0 -127 -25.5 -233.5t-81 -183.5t-144.5 -120t-213 -43q-76 0 -149 15.5t-134 55.5t-106.5 108.5t-65.5 176.5z" />
<glyph unicode="6" d="M121 447q0 66 16.5 143t53.5 145l400 761h275l-322 -618q4 -4 4 -5q45 12 95 13q88 0 160.5 -32.5t122.5 -89t77 -133.5t27 -165q0 -127 -40 -216.5t-106.5 -148t-150.5 -85t-169 -26.5q-90 0 -171 28.5t-141.5 87t-95.5 144t-35 197.5zM368 452q0 -115 55 -175t147 -60 q82 0 143 60t61 175q0 116 -60 172.5t-144 56.5q-78 0 -140 -57.5t-62 -171.5z" />
<glyph unicode="7" d="M117 1047v449h894v-223l-527 -1273h-267l514 1260h-368v-213h-246z" />
<glyph unicode="8" d="M97 439q0 47 13 97.5t38.5 95.5t63.5 81t89 57v6q-92 41 -133 125t-41 174q0 93 34 171.5t93.5 136.5t141.5 91.5t178 33.5q110 0 194 -33.5t141 -91.5t86 -136.5t29 -171.5q0 -92 -44 -172t-131 -127v-4q52 -19 89.5 -56t63.5 -82t37.5 -96.5t11.5 -98.5 q0 -101 -37.5 -184t-103 -142t-152.5 -91t-184 -32q-96 0 -183.5 32t-152 91t-103 142t-38.5 184zM342 445q0 -47 18 -89t49.5 -73t73.5 -49.5t91 -18.5q50 0 92 18.5t73 49.5t49 73t18 89t-18 87t-50 69t-74 46.5t-90 17.5q-45 0 -87 -17.5t-74.5 -46.5t-51.5 -69t-19 -87z M372 1073q0 -97 61.5 -146t140.5 -49q39 0 76.5 12.5t65.5 37t45 61.5t17 84q0 97 -59 154t-145 57q-84 0 -143 -56t-59 -155z" />
<glyph unicode="9" d="M123 1030q0 125 40 215.5t106 148t149 86t171 28.5q90 0 171 -29.5t141 -87t95.5 -144t35.5 -198.5q0 -66 -17 -142t-54 -146l-399 -761h-276l323 620q-4 4 -5 4q-45 -13 -95 -13q-88 0 -160 32t-122.5 88.5t-77 133.5t-26.5 165zM378 1045q0 -117 60.5 -173.5 t144.5 -56.5q77 0 139.5 58t62.5 172t-55 174.5t-147 60.5q-82 0 -143.5 -60.5t-61.5 -174.5z" />
<glyph unicode=":" horiz-adv-x="582" d="M142 0v297h293v-297h-293zM142 593v299h293v-299h-293z" />
<glyph unicode=";" horiz-adv-x="582" d="M138 -284l75 282h-69v299h293v-287l-166 -294h-133zM144 593v299h293v-299h-293z" />
<glyph unicode="&#x3c;" d="M64 544v187l990 459v-220l-732 -334l732 -333v-217z" />
<glyph unicode="=" d="M49 314v193h1028v-193h-1028zM49 768v191h1028v-191h-1028z" />
<glyph unicode="&#x3e;" d="M66 86v217l732 333l-732 334v220l990 -459v-187z" />
<glyph unicode="?" horiz-adv-x="1096" d="M86 1073q17 107 62 188t109.5 135.5t143.5 82t165 27.5q103 0 186 -31.5t139.5 -86t88 -130.5t31.5 -162q0 -62 -25 -117.5t-60.5 -107.5t-78.5 -101.5t-78.5 -96.5t-60 -94.5t-24.5 -94.5v-78h-251v84q0 64 22.5 118.5t56.5 102.5t74 91t74.5 88.5t57 93.5t22.5 104 q0 30 -11 62t-35.5 58.5t-61.5 43t-88 16.5q-52 0 -90.5 -20.5t-65.5 -52.5t-42 -74t-17 -83q-62 11 -121.5 19t-121.5 16zM430 0v243h254v-243h-254z" />
<glyph unicode="@" horiz-adv-x="1878" d="M119 718q0 177 64.5 327.5t177.5 261.5t268.5 174t338.5 63q168 0 311 -51.5t247 -146t163 -227t59 -292.5q0 -127 -26.5 -227.5t-79.5 -171.5t-129.5 -110t-174.5 -39q-27 0 -61 9t-67.5 26t-61.5 43t-40 60h-12q-26 -49 -92 -85.5t-150 -36.5q-62 0 -116 14.5t-96 46 t-66 80t-24 114.5q0 52 18.5 98.5t56.5 81.5t91.5 55.5t124.5 20.5h226v60q0 50 -35.5 86.5t-134.5 36.5q-69 0 -109.5 -20.5t-79.5 -54.5l-110 122q131 127 321 127q71 0 132 -14t106 -46t72 -87t27 -136l-2 -321q0 -43 26.5 -78.5t76.5 -35.5q101 0 155 92.5t54 285.5 q0 131 -48.5 237t-131.5 177.5t-191.5 110.5t-226.5 39q-146 0 -268.5 -52.5t-212 -143t-140 -213t-50.5 -262.5q0 -148 50.5 -272t142 -211t217.5 -135.5t278 -48.5q71 0 133 6.5t118.5 19.5t111 33.5t111.5 45.5l55 -156q-127 -49 -249.5 -78t-268.5 -29 q-187 0 -348.5 55.5t-279.5 162t-184.5 260.5t-66.5 349zM737 566q0 -35 33.5 -69.5t117.5 -34.5q80 0 130.5 33.5t50.5 101.5v61h-193q-76 0 -107.5 -25.5t-31.5 -66.5z" />
<glyph unicode="A" horiz-adv-x="1352" d="M4 0l566 1496h210l566 -1496h-275l-119 331h-554l-121 -331h-273zM474 552h402l-100 304l-99 307h-6l-97 -301z" />
<glyph unicode="B" horiz-adv-x="1328" d="M158 0v1496h597q114 0 202 -30t147 -83.5t89 -129t30 -165.5q0 -43 -9.5 -86t-33 -82.5t-63.5 -76.5t-100 -63v-8q58 -17 102 -54t73 -84t44.5 -99.5t15.5 -104.5q0 -96 -36 -176t-96 -137t-139.5 -87t-167.5 -30h-655zM417 236h334q60 0 105 17.5t74 46.5t43 66.5 t14 78.5t-14 79t-43 67t-74 47t-105 18h-334v-420zM417 876h303q121 0 176.5 57.5t55.5 139.5t-55.5 136.5t-176.5 54.5h-303v-388z" />
<glyph unicode="C" horiz-adv-x="1229" d="M103 556v384q0 111 34.5 214.5t103.5 182t174.5 125t244.5 46.5q198 0 332.5 -96t189.5 -253l-244 -96q-29 88 -98.5 142.5t-179.5 54.5q-75 0 -129.5 -25.5t-91.5 -70t-55.5 -100t-18.5 -114.5v-398q0 -62 18.5 -119t55.5 -102t91.5 -72t129.5 -27q108 0 178.5 57 t99.5 150l246 -104q-55 -164 -191.5 -256t-332.5 -92q-139 0 -244.5 44.5t-174.5 120.5t-103.5 180.5t-34.5 223.5z" />
<glyph unicode="D" horiz-adv-x="1371" d="M158 0v1496h543q168 0 303 -64t207 -213q41 -82 49 -193.5t8 -251.5q0 -158 -8 -273.5t-45 -203.5q-37 -84 -93.5 -141t-127.5 -91.5t-155 -49.5t-174 -15h-507zM417 236h256q95 0 159.5 27t103 75.5t56 117.5t17.5 153v279q0 200 -88 286t-252 86h-252v-1024z" />
<glyph unicode="E" horiz-adv-x="1212" d="M158 0v1496h1001v-236h-742v-392h632v-228h-632v-404h742v-236h-1001z" />
<glyph unicode="F" horiz-adv-x="1171" d="M158 0v1496h1001v-236h-742v-404h632v-226h-632v-630h-259z" />
<glyph unicode="G" horiz-adv-x="1328" d="M107 556v384q0 111 33.5 214.5t101.5 182t171.5 125t242.5 46.5q198 0 333.5 -96t190.5 -253l-244 -96q-29 88 -101 142.5t-181 54.5q-75 0 -129 -25.5t-88.5 -70t-51.5 -100t-17 -114.5v-404q0 -60 18 -118t55 -103.5t91.5 -73t130.5 -27.5q64 0 119 24.5t94.5 66.5 t63.5 97.5t24 116.5v64h-312v224h569v-294q0 -117 -43 -214.5t-117 -170t-177.5 -112t-220.5 -39.5q-142 0 -246.5 44.5t-173.5 120.5t-102.5 180.5t-33.5 223.5z" />
<glyph unicode="H" horiz-adv-x="1408" d="M158 0v1496h259v-628h576v628h259v-1496h-259v640h-576v-640h-259z" />
<glyph unicode="I" horiz-adv-x="575" d="M160 0v1496h261v-1496h-261z" />
<glyph unicode="J" horiz-adv-x="1051" d="M10 174l185 170q48 -49 106 -82.5t112 -33.5q45 0 87 10t76.5 39t55 80t20.5 133v1006h259v-1014q0 -140 -40 -235t-108 -151.5t-157 -81t-187 -24.5q-123 0 -226 47t-183 137z" />
<glyph unicode="K" horiz-adv-x="1371" d="M158 0v1496h261v-724l4 -2l252 307l353 419h310l-505 -597l554 -899h-308l-419 697l-243 -282v-415h-259z" />
<glyph unicode="L" horiz-adv-x="1212" d="M158 0v1496h259v-1260h742v-236h-1001z" />
<glyph unicode="M" horiz-adv-x="1644" d="M158 0v1496h242l195 -427q62 -136 119.5 -269t116.5 -269h8l120 286l110 252l191 427h250v-1496h-260v888h-7l-80 -191l-109 -241l-116 -245h-209l-86 183l-142 314l-78 182l-6 -6v-884h-259z" />
<glyph unicode="N" horiz-adv-x="1487" d="M158 0v1496h240l419 -636l254 -404l4 4v1036h261v-1496h-242l-462 697l-209 341l-6 -2v-1036h-259z" />
<glyph unicode="O" horiz-adv-x="1311" d="M97 556v384q0 111 34.5 214.5t103 182t174 125t245.5 46.5q129 0 232 -43t176 -119t112 -179.5t39 -226.5v-384q0 -131 -40 -236t-113 -179.5t-176.5 -114t-229.5 -39.5q-140 0 -245.5 46.5t-174 124.5t-103 181.5t-34.5 216.5zM359 550q0 -62 18.5 -119t54.5 -102 t91.5 -72t130.5 -27q69 0 124 24.5t92 67.5t57.5 101.5t20.5 126.5v402q0 64 -20.5 120.5t-57.5 98.5t-92 66.5t-124 24.5q-75 0 -130.5 -25.5t-91.5 -70t-54.5 -100t-18.5 -114.5v-402z" />
<glyph unicode="P" horiz-adv-x="1270" d="M158 0v1496h582q105 0 197.5 -30t162.5 -88t110 -146t40 -204q0 -90 -36 -172t-100.5 -144.5t-155 -100t-199.5 -37.5h-342v-574h-259zM417 811h325q115 0 178 66.5t63 156.5q0 117 -69 171.5t-181 54.5h-316v-449z" />
<glyph unicode="Q" horiz-adv-x="1328" d="M105 556v384q0 111 34.5 214.5t103.5 182t173.5 125t243.5 46.5q130 0 234 -43t177 -119t111.5 -179.5t38.5 -226.5v-384q0 -161 -62 -285l185 -148l-142 -166l-182 142q-142 -112 -360 -112q-139 0 -243.5 46.5t-173.5 124.5t-103.5 181.5t-34.5 216.5zM365 552 q0 -62 18.5 -119t55.5 -102t91.5 -72t129.5 -27q78 0 140 41l-178 142l143 172q43 -35 87.5 -70t87.5 -70q17 52 17 105v357q0 66 -15 130.5t-50.5 113.5t-92.5 78t-139 29q-84 0 -141 -30t-91 -80.5t-48.5 -113t-14.5 -127.5v-357z" />
<glyph unicode="R" horiz-adv-x="1344" d="M158 0v1496h636q94 0 178 -30t146 -84.5t98 -135t36 -179.5q0 -144 -79 -251.5t-221 -159.5l295 -656h-293l-259 617h-278v-617h-259zM417 849h327q105 0 173 56.5t68 161.5t-64.5 152t-167.5 47h-336v-417z" />
<glyph unicode="S" horiz-adv-x="1223" d="M10 193l158 203q97 -90 210.5 -128t238.5 -38t201.5 51.5t76.5 153.5q0 90 -68 136t-205 67q-97 13 -190.5 36t-167 69.5t-117.5 123.5t-44 202q0 111 43 194t114 137.5t162 82t189 27.5q144 0 269.5 -32.5t233.5 -107.5l-129 -215q-95 62 -191.5 86.5t-178.5 24.5 q-137 0 -195.5 -54.5t-58.5 -134.5q0 -47 20.5 -78t65.5 -53.5t114 -39t166 -33.5q81 -15 161 -40t142 -73t100 -124.5t38 -192.5q0 -109 -45.5 -194t-122.5 -143.5t-179.5 -88.5t-216.5 -30q-148 0 -304 44.5t-290 161.5z" />
<glyph unicode="T" horiz-adv-x="1120" d="M10 1264v232h1094v-232h-418v-1264h-260v1264h-416z" />
<glyph unicode="U" horiz-adv-x="1371" d="M129 542v954h258v-934q0 -70 20.5 -130t59 -104t94.5 -70t127 -26q133 0 214 82t81 236v946h262v-965q0 -123 -42 -222.5t-116 -171t-177.5 -109.5t-223.5 -38q-127 0 -230 42t-176 116t-112 174.5t-39 219.5z" />
<glyph unicode="V" horiz-adv-x="1235" d="M2 1496h277l216 -683l120 -396h11l114 394l210 685h277l-505 -1496h-213z" />
<glyph unicode="W" horiz-adv-x="1803" d="M13 1494h277q43 -185 85 -365.5t83 -365.5l61 -273h8l68 271q45 164 77 279t55.5 196.5t39 141.5t33.5 116h198q53 -185 105 -369.5t101 -369.5l71 -267h9q15 62 28 132t26 133q36 168 80.5 363t89.5 378h275q-97 -376 -194 -748t-196 -748h-215q-37 135 -74 269.5 t-76 270.5q-30 120 -62.5 239.5t-64.5 239.5q-2 0 -3 -1t-3 -1q-37 -137 -72 -272.5t-72 -274.5q-4 -14 -14 -51t-24 -84t-28 -98.5t-28 -99t-23.5 -84t-13.5 -53.5h-218z" />
<glyph unicode="X" horiz-adv-x="1237" d="M0 0l484 765l-456 731h294l295 -515l297 515h292l-453 -731l484 -765h-293l-327 552l-324 -552h-293z" />
<glyph unicode="Y" horiz-adv-x="1197" d="M8 1496h278l180 -369q35 -72 67.5 -144t63.5 -144h5l133 294l179 363h276q-117 -221 -233 -440t-235 -441v-615h-246v615q-119 222 -234 441t-234 440z" />
<glyph unicode="Z" horiz-adv-x="1132" d="M64 0v224l695 1042h-667v230h977v-212l-695 -1046h695v-238h-1005z" />
<glyph unicode="[" horiz-adv-x="618" d="M150 -215v1719h429v-177h-201v-1368h201v-174h-429z" />
<glyph unicode="\" horiz-adv-x="737" d="M-17 1559h200l541 -1649h-199z" />
<glyph unicode="]" horiz-adv-x="618" d="M47 -41h201v1368h-201v177h429v-1719h-429v174z" />
<glyph unicode="^" d="M51 604l425 890h187l423 -887h-218l-300 640l-301 -643h-216z" />
<glyph unicode="_" horiz-adv-x="1075" d="M0 -148h1075v-164h-1075v164z" />
<glyph unicode="`" horiz-adv-x="1083" d="M327 1555l232 77l176 -399l-144 -63z" />
<glyph unicode="a" horiz-adv-x="1072" d="M76 310q0 64 23.5 122t68.5 102.5t113 70t156 25.5h287v78q0 30 -9 58t-33 48.5t-65 33t-104 12.5q-88 0 -147.5 -22.5t-105.5 -65.5l-129 164q78 77 181.5 108t214.5 31q90 0 169.5 -16t140 -57t96 -109t35.5 -171v-722h-244v94l-4 3q-43 -56 -119 -81.5t-158 -25.5 q-170 0 -268.5 82t-98.5 238zM306 327q0 -25 9 -48t32 -41.5t58.5 -30.5t89.5 -12q41 0 79.5 8t69.5 25t52.5 45t25.5 71q2 13 2 32.5v68.5h-246q-93 0 -132.5 -34.5t-39.5 -83.5z" />
<glyph unicode="b" horiz-adv-x="1106" d="M125 0v1563h243v-599l4 -3q53 57 124.5 85.5t137.5 28.5q121 0 195 -48t116 -124t57 -168t15 -183q0 -94 -13 -194t-54 -182t-116 -134t-200 -52q-69 0 -141 24.5t-121 88.5l-4 -2v-101h-243zM368 533q0 -49 5 -105t25.5 -104.5t60.5 -80.5t109 -32t108.5 31t60 78.5 t26 104.5t5.5 108q0 54 -5.5 109t-26 100.5t-60.5 74t-108 28.5q-66 0 -106.5 -30t-61 -76.5t-26.5 -101t-6 -104.5z" />
<glyph unicode="c" horiz-adv-x="960" d="M60 531q0 144 42 247.5t110.5 170t159 96.5t184.5 30q214 0 365 -150l-158 -170q-94 99 -201 99q-123 0 -187.5 -77.5t-64.5 -245.5q0 -166 63.5 -243t185.5 -77q53 0 107 28t99 73l160 -168q-78 -76 -172.5 -116.5t-204.5 -40.5q-96 0 -184.5 31t-156 97t-107.5 169 t-40 247z" />
<glyph unicode="d" horiz-adv-x="1106" d="M103 540q0 90 17.5 185.5t62.5 174.5t123.5 128t200.5 49q69 0 135 -25.5t107 -77.5l4 2v585h242v-1561h-242v99l-4 4q-56 -62 -127.5 -87.5t-139.5 -25.5q-127 0 -202 49t-114 127.5t-51 177.5t-12 196zM353 519q0 -50 5 -104t26.5 -98t60.5 -72t107 -28q66 0 106.5 31 t62 78.5t27 102.5t5.5 104q0 50 -5.5 104.5t-26 101t-59 76.5t-106.5 30q-71 0 -110.5 -31.5t-61 -78.5t-26.5 -105t-5 -111z" />
<glyph unicode="e" horiz-adv-x="1089" d="M80 529q0 155 42 259t108.5 169t149 92.5t164.5 27.5q107 0 192 -36.5t144.5 -102t90.5 -160t31 -210.5v-106h-671q0 -49 13 -95.5t41 -81.5t71 -56.5t100 -21.5q48 0 120.5 22.5t131.5 78.5q39 -43 71 -85t71 -85q-90 -82 -195.5 -116.5t-206.5 -34.5q-84 0 -167.5 24 t-150 85.5t-108.5 165t-42 267.5zM335 634h409q-6 109 -63 165.5t-139 56.5q-84 0 -140 -58t-67 -164z" />
<glyph unicode="f" horiz-adv-x="648" d="M45 868v197h125v205q0 76 23.5 130.5t64.5 91.5t97 55.5t119 18.5h156v-212h-119q-55 0 -76.5 -30.5t-21.5 -80.5v-178h217v-197h-217v-868h-243v868h-125z" />
<glyph unicode="g" horiz-adv-x="1122" d="M92 507q0 95 13.5 195t55.5 183t120 136.5t209 53.5q70 0 136 -25.5t111 -81.5h5v97h239v-1022q0 -135 -36 -226.5t-98 -147.5t-149 -81t-193 -25q-39 0 -86 7t-96.5 21.5t-98 39.5t-89.5 61l127 179q54 -39 119.5 -62.5t143.5 -23.5q101 0 160 56t59 163v99h-4 q-51 -60 -120.5 -86.5t-135.5 -26.5q-123 0 -200 47t-119 121t-57.5 166.5t-15.5 182.5zM340 531q0 -57 5.5 -113.5t26 -101.5t61.5 -72t109 -27q66 0 106 30t60.5 76.5t27 101.5t6.5 106q0 45 -4.5 101t-23.5 103t-59 79.5t-111 32.5q-72 0 -111 -29.5t-60.5 -76 t-27 -102.5t-5.5 -108z" />
<glyph unicode="h" horiz-adv-x="1137" d="M158 0v1561h242v-600h6q50 53 125.5 83.5t147.5 30.5q76 0 142.5 -23.5t116 -71t77.5 -118t28 -163.5v-699h-243v632q0 103 -46 159t-145 56q-88 0 -148.5 -56t-60.5 -159v-632h-242z" />
<glyph unicode="i" horiz-adv-x="530" d="M144 0v1065h243v-1065h-243zM144 1273v223h243v-223h-243z" />
<glyph unicode="j" horiz-adv-x="569" d="M-17 -217h60q69 0 95 35.5t26 91.5v1157h244v-1194q0 -138 -78 -222t-236 -84h-111v216zM164 1273v223h244v-223h-244z" />
<glyph unicode="k" horiz-adv-x="1117" d="M138 0v1561h240v-935h7l206 236l185 203h297l-385 -416q109 -164 218 -325.5t219 -323.5h-284q-80 121 -156 239t-156 239q-37 -41 -75.5 -81t-75.5 -83v-314h-240z" />
<glyph unicode="l" horiz-adv-x="569" d="M138 281v1280h242v-1243q0 -60 27.5 -81.5t76.5 -21.5h43v-215h-92q-62 0 -116 13t-95 45t-63.5 87t-22.5 136z" />
<glyph unicode="m" horiz-adv-x="1790" d="M131 0v1065h243v-115q2 0 3 -1t3 -1q47 60 126 93.5t159 33.5q199 0 294 -152q69 71 154 111.5t184 40.5q161 0 262 -95.5t101 -278.5v-701h-240v634q0 103 -48.5 160.5t-152.5 57.5q-84 0 -141.5 -60.5t-57.5 -157.5v-634h-244v634q0 103 -49.5 160.5t-150.5 57.5 q-84 0 -143 -60.5t-59 -157.5v-634h-243z" />
<glyph unicode="n" horiz-adv-x="1137" d="M125 0v1067h243v-113h4q51 58 127.5 89.5t149.5 31.5q164 0 263 -93.5t99 -282.5v-699h-243v632q0 103 -46.5 159t-149.5 56q-88 0 -146 -56t-58 -159v-632h-243z" />
<glyph unicode="o" horiz-adv-x="1106" d="M90 531q0 86 12 163.5t42 138.5q56 118 167 181t257 63q121 0 216.5 -46t153.5 -132q41 -61 60 -151q17 -81 17 -179v-21q0 -123 -18 -209.5t-55 -151.5q-62 -101 -167.5 -151.5t-232.5 -50.5q-121 0 -215.5 40.5t-152.5 126.5q-84 126 -84 358v21zM335 529q0 -62 7 -114 t26 -91q24 -55 71 -86t109 -31q69 0 122.5 37t78.5 115q10 31 14.5 76t4.5 113q0 125 -28 187q-24 62 -73 92.5t-108 30.5q-62 0 -111.5 -32t-75.5 -89q-19 -43 -26.5 -94.5t-10.5 -113.5z" />
<glyph unicode="p" horiz-adv-x="1108" d="M129 -430v1495h241v-95l6 -2q53 60 122.5 83.5t137.5 23.5q125 0 201.5 -50.5t117 -130t54 -176t13.5 -189.5q0 -92 -16.5 -188t-61.5 -174.5t-124.5 -129t-208.5 -50.5q-66 0 -131 25t-106 76h-4v-518h-241zM370 529q0 -49 5 -105t25.5 -102.5t60.5 -76.5t107 -30 q66 0 107 29t61.5 74t27 101.5t6.5 109.5q0 52 -4.5 107.5t-24 103.5t-59 77.5t-110.5 29.5q-69 0 -109 -31t-60 -78.5t-26.5 -103t-6.5 -105.5z" />
<glyph unicode="q" horiz-adv-x="1122" d="M114 511q0 101 16 202.5t61 182t126 130t210 49.5q69 0 129 -26.5t105 -82.5h4v99h244v-1500h-244v536h-4q-53 -58 -123 -86t-135 -28q-125 0 -200 47.5t-117 121.5t-57 167.5t-15 187.5zM363 529q0 -53 5.5 -108.5t26 -100.5t61.5 -74t110 -29q66 0 105 30t60.5 76.5 t27.5 101.5t6 104q0 50 -5 106.5t-25.5 105.5t-60.5 81t-106 32q-71 0 -111 -31t-61.5 -79.5t-27 -105.5t-5.5 -109z" />
<glyph unicode="r" horiz-adv-x="833" d="M138 -2v1067h238v-127h9q97 137 258 137q59 0 109 -13t93 -42l-90 -220q-45 28 -88 38.5t-86 10.5q-89 0 -145 -53.5t-56 -157.5v-640h-242z" />
<glyph unicode="s" horiz-adv-x="995" d="M35 148l131 174q76 -69 160.5 -98t180.5 -29q78 0 131.5 32.5t53.5 90.5q0 56 -45 83t-144 38q-71 8 -143 21.5t-130 45.5t-94.5 87.5t-36.5 148.5q0 82 32.5 144t86 104t125.5 63.5t154 21.5q123 0 221.5 -26.5t186.5 -94.5l-115 -184q-76 49 -150 70.5t-139 21.5 q-86 0 -129 -33t-43 -80q0 -54 60 -78t194 -39q64 -6 127.5 -24.5t111.5 -52.5t78.5 -90.5t30.5 -140.5q0 -79 -34.5 -141t-93.5 -106t-137.5 -67t-168.5 -23q-119 0 -236 32t-226 129z" />
<glyph unicode="t" horiz-adv-x="679" d="M71 868v199h124v277h238v-277h162v-199h-160v-535q0 -56 21.5 -88t76.5 -32h80v-213h-147q-118 0 -195.5 69t-77.5 198v601h-122z" />
<glyph unicode="u" horiz-adv-x="1145" d="M127 365v700h241v-635q0 -109 45 -163t153 -54q86 0 145 57t59 160v635h243v-1065h-243v105h-7q-49 -60 -124 -89t-147 -29q-165 0 -265 92.5t-100 285.5z" />
<glyph unicode="v" horiz-adv-x="1032" d="M10 1065h263q37 -105 71 -215t71 -220q26 -76 51.5 -149t50.5 -148h6l92 297l144 435h263l-407 -1065h-196z" />
<glyph unicode="w" horiz-adv-x="1582" d="M10 1065h261q24 -76 44 -151t42 -151q30 -98 55 -197.5t54 -197.5h10q16 55 26.5 88.5t18.5 60.5t17.5 60.5t27.5 89.5l124 398h205q41 -129 80.5 -260.5t78.5 -262.5l52 -181h12q13 45 25 92.5t23 90.5q8 32 18 67.5t24.5 91.5t38 142t62.5 220h261 q-88 -269 -175.5 -532.5t-177.5 -532.5h-213q-39 123 -76.5 247.5t-73.5 249.5l-62 202h-4l-68 -228q-69 -236 -144 -471h-213z" />
<glyph unicode="x" horiz-adv-x="1077" d="M24 0l387 544l-370 521h290l207 -345l209 345h289l-369 -523l387 -542h-293l-223 359l-222 -359h-292z" />
<glyph unicode="y" horiz-adv-x="1010" d="M0 1065h262l138 -392l105 -335h8l107 331l135 396h256l-469 -1280q-45 -123 -129 -169t-181 -46h-90v204h67q47 0 79 33t50 79l54 168z" />
<glyph unicode="z" horiz-adv-x="964" d="M66 0v203l536 653h-505v209h800v-199l-534 -647h534v-219h-831z" />
<glyph unicode="{" horiz-adv-x="618" d="M28 559v165q84 9 124.5 73.5t40.5 163.5v286q0 115 65.5 182t162.5 67h179v-167h-89q-26 0 -44 -15t-28.5 -37.5t-15 -49.5t-4.5 -53v-260q0 -60 -16 -105.5t-40.5 -78.5t-54 -53.5t-52.5 -31.5v-5q29 -10 57.5 -30.5t52.5 -53.5t38.5 -77t14.5 -103v-267q0 -26 2 -53.5 t12 -50t28.5 -36.5t49.5 -14h89v-166h-179q-88 0 -150 57t-74 154q-2 17 -3 36.5t-1 39.5v217v39.5t-2 37.5q-6 88 -47 136t-116 53z" />
<glyph unicode="|" horiz-adv-x="498" d="M146 -419v1974h205v-1974h-205z" />
<glyph unicode="}" horiz-adv-x="618" d="M24 -45h87q31 0 49 14t27.5 36.5t13.5 50.5t4 53v267q0 58 14.5 102.5t38 77.5t53 53.5t57.5 30.5v5q-27 10 -54.5 31t-52.5 54t-40.5 78.5t-15.5 105.5v260q0 26 -4 53t-13.5 49.5t-27.5 37.5t-49 15h-87v163h176q104 0 166 -67.5t62 -177.5v-286q0 -45 9.5 -86.5 t31 -74t51.5 -53t73 -23.5v-165q-51 2 -83 -23t-50.5 -63t-25 -86.5t-6.5 -93.5v-217v-39t-5 -37q-10 -97 -71.5 -154t-148.5 -57h-179v166z" />
<glyph unicode="~" d="M74 538q61 114 135.5 169.5t173.5 55.5q50 0 99 -20.5t95.5 -45t89.5 -44t82 -19.5q49 0 86.5 32.5t82.5 92.5l145 -96q-62 -119 -133.5 -174.5t-166.5 -55.5q-47 0 -95 19t-96.5 44t-95 44t-84.5 19q-52 0 -89.5 -26t-87.5 -88q-37 24 -71.5 46t-69.5 47z" />
<glyph unicode="&#xa1;" horiz-adv-x="575" d="M164 815v245h255v-245h-255zM172 -437l17 1100h209l15 -1100h-241z" />
<glyph unicode="&#xa2;" d="M131 531q0 132 34.5 227.5t92.5 162t134 103t160 47.5v222h97v-218q197 -8 342 -150l-156 -170q-88 88 -186 99v-643q49 4 97 31t91 70l158 -168q-73 -69 -158.5 -109.5t-187.5 -44.5v-242h-97v244q-86 8 -162 45t-134.5 102.5t-91.5 162t-33 229.5zM380 531 q0 -269 172 -312v624q-84 -24 -128 -100t-44 -212z" />
<glyph unicode="&#xa3;" d="M80 602v188h144q-24 82 -55 157t-31 149q0 78 26.5 151t81.5 131t138.5 93t198.5 35q73 0 135 -8t118 -32.5t107.5 -70t107.5 -122.5l-206 -142q-62 92 -124.5 120.5t-131.5 28.5q-30 0 -60 -12t-56 -34.5t-42 -58.5t-16 -83q0 -37 10 -72t23.5 -72t28.5 -75t24 -83h322 v-188h-314q-4 -99 -27.5 -196.5t-79.5 -188.5h634v-217h-952v185q71 94 115 194.5t53 222.5h-172z" />
<glyph unicode="&#xa5;" d="M6 1496h278l174 -400q30 -66 56 -132.5t54 -132.5h8l125 313l155 352h264q-86 -180 -172 -357.5t-174 -358.5h237v-146h-312l-11 -37v-111h323v-146h-323v-340h-245v340h-318v146h318v111q-2 13 -4 19l-6 18h-308v146h232q-90 181 -176.5 358.5t-174.5 357.5z" />
<glyph unicode="&#xa7;" horiz-adv-x="1048" d="M84 0l135 158q65 -65 143.5 -97.5t154.5 -32.5q90 0 151 35.5t61 117.5q0 57 -54.5 96t-182.5 78q-88 26 -157.5 56t-118 72t-75.5 97.5t-27 137.5q0 70 38.5 130.5t90.5 97.5q-48 43 -75.5 94.5t-27.5 118.5q0 78 31.5 142t86 109t128.5 70.5t160 25.5 q119 0 217.5 -28.5t188.5 -98.5l-121 -168q-80 55 -153.5 73.5t-141.5 18.5q-72 0 -123.5 -38t-51.5 -93q0 -43 30 -71t75 -48.5t98 -35.5t99 -30q57 -19 114.5 -46t101.5 -67.5t70.5 -100t26.5 -145.5q0 -69 -33.5 -134.5t-80.5 -99.5q41 -39 68 -91.5t27 -111.5 q0 -84 -33.5 -151.5t-92.5 -115t-140.5 -72t-177.5 -24.5q-125 0 -237 46t-192 126zM331 731q0 -43 30.5 -71t83.5 -51q62 -28 134.5 -48.5t134.5 -49.5q49 37 49 109q0 66 -59 102.5t-191 77.5q-30 8 -54 17t-61 24q-66 -39 -67 -110z" />
<glyph unicode="&#xa8;" horiz-adv-x="1083" d="M197 1254v234h257v-234h-257zM628 1254v234h254v-234h-254z" />
<glyph unicode="&#xa9;" horiz-adv-x="1745" d="M121 735q0 164 57.5 304.5t160 242t240 159t299.5 57.5t299 -56.5t239 -159t160 -242t58 -305.5t-58 -304t-160 -240.5t-239 -159.5t-299 -57q-164 0 -302.5 56t-240 157t-158 241t-56.5 307zM284 735q0 -131 45 -243t124.5 -193.5t188.5 -127.5t236 -46t235 46 t187 127.5t124 193.5t45 243q0 133 -45 246t-124 195t-187 127t-235 45t-236 -47t-188.5 -129t-124.5 -194t-45 -243zM531 602v235q0 71 21.5 135t66 114.5t110 80t153.5 29.5q125 0 209.5 -61.5t121.5 -164.5l-164 -65q-17 54 -60 89.5t-107 35.5q-90 0 -133 -57t-43 -128 v-248q0 -36 10.5 -69t32 -61t55 -44.5t78.5 -16.5q64 0 107 37t60 95l166 -70q-37 -107 -123 -166t-210 -59q-88 0 -153.5 28t-110 76.5t-66 114t-21.5 140.5z" />
<glyph unicode="&#xaa;" horiz-adv-x="747" d="M51 811q0 88 65 148.5t194 60.5h185v47q0 37 -31 61.5t-101 24.5q-114 0 -172 -63q-28 30 -55 57t-52 57q56 60 130 83.5t151 23.5q64 0 121.5 -10.5t101.5 -38t68.5 -73t24.5 -116.5v-473h-186v81q-35 -47 -88.5 -68.5t-103.5 -21.5q-120 0 -186 57.5t-66 162.5z M232 821q0 -28 26 -50t91 -22q53 0 98 20.5t45 75.5q0 9 1.5 13t1.5 32h-157q-56 0 -81 -20.5t-25 -48.5z" />
<glyph unicode="&#xab;" d="M97 490l295 431h234l-288 -431l288 -430h-234zM527 490l294 431h235l-286 -431l286 -430h-235z" />
<glyph unicode="&#xac;" d="M51 540v193h1024v-600h-202v407h-822z" />
<glyph unicode="&#xae;" horiz-adv-x="1167" d="M123 1049q0 99 36 183t98.5 145t147.5 96t180 35q99 0 183 -35t146 -96t97.5 -144.5t35.5 -183.5q0 -97 -36.5 -180.5t-100 -143.5t-147.5 -95t-178 -35q-99 0 -183 35t-146.5 95t-97.5 143.5t-35 180.5zM226 1049q0 -78 26.5 -143t75 -113.5t114 -76.5t143.5 -28 t142.5 28t112.5 76.5t75 114t27 142.5q0 78 -27 144.5t-75 115t-112.5 76.5t-142.5 28t-143.5 -28t-114 -76.5t-75 -115t-26.5 -144.5zM411 790v521h213q66 0 113.5 -40.5t47.5 -111.5q0 -96 -95 -144l112 -225h-114l-101 208h-76v-208h-100zM511 1092h102q33 0 53 18.5 t20 48.5q0 60 -69 60h-106v-127z" />
<glyph unicode="&#xaf;" horiz-adv-x="1083" d="M234 1266v209h648v-209h-648z" />
<glyph unicode="&#xb0;" horiz-adv-x="878" d="M119 1200q0 64 24.5 120.5t68.5 98.5t102 65.5t125 23.5q66 0 124.5 -23.5t102.5 -65.5t68.5 -98.5t24.5 -120.5t-24.5 -121t-68.5 -99t-102.5 -66t-124.5 -24t-124.5 24t-102.5 66t-68.5 98.5t-24.5 121.5zM284 1200q0 -62 46 -107.5t109 -45.5q66 0 111 45.5t45 107.5 t-45 106t-111 44q-62 0 -108.5 -44t-46.5 -106z" />
<glyph unicode="&#xb1;" d="M56 0v191h1026v-191h-1026zM60 658v194h406v383h205v-383h406v-194h-406v-374h-205v374h-406z" />
<glyph unicode="&#xb4;" horiz-adv-x="1083" d="M404 1223l170 409l230 -73l-254 -389z" />
<glyph unicode="&#xb6;" horiz-adv-x="1210" d="M76 1086q0 77 24.5 154.5t73 137.5t121.5 98t171 38h134.5t189.5 1t191.5 1h136.5v-164h-92v-1524h-187v1524h-166v-1524h-191v853h-69q-82 0 -145 35t-106 91.5t-64.5 129t-21.5 149.5z" />
<glyph unicode="&#xb7;" horiz-adv-x="582" d="M144 441v296h293v-296h-293z" />
<glyph unicode="&#xb8;" horiz-adv-x="960" d="M281 -406l46 111q49 -24 85.5 -29t69.5 -5q37 0 65.5 15t28.5 56q0 36 -26.5 52.5t-65.5 16.5q-15 0 -37 -4l-64 43l77 244q32 0 63 -1t64 -1q-15 -43 -29 -86t-27 -86q58 -4 99 -23.5t65.5 -46t35.5 -57.5t11 -60q0 -32 -15 -66.5t-45 -62t-76.5 -45t-108.5 -17.5 q-56 0 -111 11.5t-105 40.5z" />
<glyph unicode="&#xba;" horiz-adv-x="765" d="M56 952q2 56 10 106t28 91q39 79 118 120.5t182 41.5q82 0 150.5 -29.5t109.5 -89.5q31 -41 43.5 -100.5t12.5 -130.5q0 -70 -13 -130.5t-41 -103.5q-43 -67 -116.5 -102.5t-163.5 -35.5q-86 0 -152 29t-107 86q-33 47 -47 108t-14 140zM248 950q0 -39 4 -70t17 -55 q30 -71 111 -70q88 0 123 90q13 39 14 116q0 82 -18 116q-15 37 -45 54.5t-67 17.5q-81 0 -116 -72q-13 -24 -18 -57t-5 -70z" />
<glyph unicode="&#xbb;" d="M99 60l284 430l-284 431h234l293 -431l-293 -430h-234zM529 60l286 430l-286 431h234l293 -431l-293 -430h-234z" />
<glyph unicode="&#xbf;" horiz-adv-x="1014" d="M58 -37q0 60 17 111t44 93t61.5 79.5t69.5 73.5q53 56 94 116.5t41 137.5v78h251v-84q0 -114 -54.5 -204.5t-132.5 -180.5q-43 -48 -81.5 -102.5t-38.5 -110.5q0 -31 11 -63t35.5 -57.5t61.5 -43t88 -17.5t90 20.5t66 54t40.5 74.5t18.5 81q62 -11 124.5 -17t124.5 -17 q-17 -107 -63 -188t-111.5 -136t-145.5 -81.5t-166 -26.5q-103 0 -186 31t-139.5 86t-88 130t-31.5 163zM385 815v243h253v-243h-253z" />
<glyph unicode="&#xc0;" horiz-adv-x="1352" d="M4 0l566 1496h210l566 -1496h-275l-119 331h-554l-121 -331h-273zM273 1789l160 181l355 -269l-102 -121zM474 552h402l-100 304l-99 307h-6l-97 -301z" />
<glyph unicode="&#xc1;" horiz-adv-x="1352" d="M4 0l566 1496h210l566 -1496h-275l-119 331h-554l-121 -331h-273zM474 552h402l-100 304l-99 307h-6l-97 -301zM505 1701l355 269l160 -181l-413 -209z" />
<glyph unicode="&#xc2;" horiz-adv-x="1352" d="M4 0l566 1496h210l566 -1496h-275l-119 331h-554l-121 -331h-273zM275 1679l320 267h164l316 -264l-86 -106l-316 176l-316 -176zM474 552h402l-100 304l-99 307h-6l-97 -301z" />
<glyph unicode="&#xc3;" horiz-adv-x="1352" d="M4 0l566 1496h210l566 -1496h-275l-119 331h-554l-121 -331h-273zM262 1664q50 103 114.5 160.5t146.5 57.5q41 0 80.5 -16.5t76 -36t69.5 -35t59 -15.5q37 0 69 23.5t69 77.5l129 -76q-51 -111 -111.5 -161.5t-132.5 -50.5q-41 0 -81 14.5t-78 34t-73 34.5t-66 15 q-36 0 -70.5 -20t-77.5 -76zM474 552h402l-100 304l-99 307h-6l-97 -301z" />
<glyph unicode="&#xc4;" horiz-adv-x="1352" d="M4 0l566 1496h210l566 -1496h-275l-119 331h-554l-121 -331h-273zM331 1628v239h260v-239h-260zM474 552h402l-100 304l-99 307h-6l-97 -301zM757 1628v239h258v-239h-258z" />
<glyph unicode="&#xc5;" horiz-adv-x="1352" d="M4 0l566 1496h210l566 -1496h-275l-119 331h-554l-121 -331h-273zM435 1765q0 47 19.5 90t51.5 74.5t76 50t93 18.5t92.5 -18.5t76 -50t51.5 -74.5t19 -90t-19 -89t-51.5 -73t-76 -49.5t-92.5 -18.5t-93 18.5t-76 49.5t-51.5 73t-19.5 89zM474 552h402l-100 304l-99 307 h-6l-97 -301zM572 1765q0 -41 30 -70t73 -29t72 29t29 70q0 43 -29 71.5t-72 28.5t-73 -28.5t-30 -71.5z" />
<glyph unicode="&#xc6;" horiz-adv-x="2222" d="M56 0l931 1496h1127v-236h-742v-394h632v-226h-632v-406h742v-234h-1002v378h-531q-56 -97 -114.5 -189t-115.5 -189h-295zM712 604h400v654h-4q-99 -166 -198 -327t-198 -327z" />
<glyph unicode="&#xc7;" horiz-adv-x="1229" d="M103 556v384q0 111 34.5 214.5t103.5 182t174.5 125t244.5 46.5q198 0 332.5 -96t189.5 -253l-244 -96q-29 88 -98.5 142.5t-179.5 54.5q-75 0 -129.5 -25.5t-91.5 -70t-55.5 -100t-18.5 -114.5v-398q0 -62 18.5 -119t55.5 -102t91.5 -72t129.5 -27q108 0 178.5 57 t99.5 150l246 -104q-55 -160 -184.5 -250.5t-315.5 -97.5l-19 -67q57 -4 98 -23.5t66 -46t36 -57.5t11 -60q0 -32 -15.5 -66.5t-45.5 -62t-76.5 -45t-108.5 -17.5q-56 0 -111 11.5t-104 40.5l45 111q49 -24 86 -29t69 -5q37 0 66 15t29 56q0 36 -27 52.5t-66 16.5 q-14 0 -36 -4l-64 43l45 144q-117 14 -203 63.5t-142.5 124t-85 170t-28.5 204.5z" />
<glyph unicode="&#xc8;" horiz-adv-x="1212" d="M158 0v1496h1001v-236h-742v-392h632v-228h-632v-404h742v-236h-1001zM254 1789l159 181l355 -269l-101 -121z" />
<glyph unicode="&#xc9;" horiz-adv-x="1212" d="M158 0v1496h1001v-236h-742v-392h632v-228h-632v-404h742v-236h-1001zM462 1701l355 269l159 -181l-412 -209z" />
<glyph unicode="&#xca;" horiz-adv-x="1212" d="M158 0v1496h1001v-236h-742v-392h632v-228h-632v-404h742v-236h-1001zM245 1679l321 267h163l316 -264l-86 -106l-316 176l-316 -176z" />
<glyph unicode="&#xcb;" horiz-adv-x="1212" d="M158 0v1496h1001v-236h-742v-392h632v-228h-632v-404h742v-236h-1001zM306 1619v234h256v-234h-256zM735 1619v234h254v-234h-254z" />
<glyph unicode="&#xcc;" horiz-adv-x="575" d="M-142 1789l159 181l355 -269l-101 -121zM160 0v1496h261v-1496h-261z" />
<glyph unicode="&#xcd;" horiz-adv-x="575" d="M158 1701l353 269l160 -181l-413 -209zM160 0v1496h261v-1496h-261z" />
<glyph unicode="&#xce;" horiz-adv-x="575" d="M-105 1679l320 267h163l317 -264l-86 -106l-316 176l-317 -176zM160 0v1496h261v-1496h-261z" />
<glyph unicode="&#xcf;" horiz-adv-x="575" d="M-54 1619v234h257v-234h-257zM160 0v1496h261v-1496h-261zM376 1619v234h254v-234h-254z" />
<glyph unicode="&#xd0;" horiz-adv-x="1371" d="M13 658v183h145v655h543q168 0 303 -64t207 -213q41 -82 49 -193.5t8 -251.5q0 -158 -8 -273.5t-45 -203.5q-37 -84 -93.5 -141t-127.5 -91.5t-155 -49.5t-174 -15h-507v658h-145zM417 236h256q95 0 159.5 27t103 75.5t56 117.5t17.5 153v279q0 200 -88 286t-252 86h-252 v-419h209v-183h-209v-422z" />
<glyph unicode="&#xd1;" horiz-adv-x="1487" d="M158 0v1496h240l419 -636l254 -404l4 4v1036h261v-1496h-242l-462 697l-209 341l-6 -2v-1036h-259zM329 1666q49 103 113.5 160.5t146.5 57.5q41 0 81 -16.5t76 -36t69.5 -35t60.5 -15.5q36 0 68 23.5t69 77.5l128 -76q-51 -111 -111 -161.5t-133 -50.5q-41 0 -81 14.5 t-77.5 34t-73 35t-65.5 15.5q-37 0 -71 -20.5t-77 -76.5z" />
<glyph unicode="&#xd2;" horiz-adv-x="1311" d="M97 556v384q0 111 34.5 214.5t103 182t174 125t245.5 46.5q129 0 232 -43t176 -119t112 -179.5t39 -226.5v-384q0 -131 -40 -236t-113 -179.5t-176.5 -114t-229.5 -39.5q-140 0 -245.5 46.5t-174 124.5t-103 181.5t-34.5 216.5zM303 1789l159 181l355 -269l-101 -121z M359 550q0 -62 18.5 -119t54.5 -102t91.5 -72t130.5 -27q69 0 124 24.5t92 67.5t57.5 101.5t20.5 126.5v402q0 64 -20.5 120.5t-57.5 98.5t-92 66.5t-124 24.5q-75 0 -130.5 -25.5t-91.5 -70t-54.5 -100t-18.5 -114.5v-402z" />
<glyph unicode="&#xd3;" horiz-adv-x="1311" d="M97 556v384q0 111 34.5 214.5t103 182t174 125t245.5 46.5q129 0 232 -43t176 -119t112 -179.5t39 -226.5v-384q0 -131 -40 -236t-113 -179.5t-176.5 -114t-229.5 -39.5q-140 0 -245.5 46.5t-174 124.5t-103 181.5t-34.5 216.5zM359 550q0 -62 18.5 -119t54.5 -102 t91.5 -72t130.5 -27q69 0 124 24.5t92 67.5t57.5 101.5t20.5 126.5v402q0 64 -20.5 120.5t-57.5 98.5t-92 66.5t-124 24.5q-75 0 -130.5 -25.5t-91.5 -70t-54.5 -100t-18.5 -114.5v-402zM523 1701l355 269l158 -181l-412 -209z" />
<glyph unicode="&#xd4;" horiz-adv-x="1311" d="M97 556v384q0 111 34.5 214.5t103 182t174 125t245.5 46.5q129 0 232 -43t176 -119t112 -179.5t39 -226.5v-384q0 -131 -40 -236t-113 -179.5t-176.5 -114t-229.5 -39.5q-140 0 -245.5 46.5t-174 124.5t-103 181.5t-34.5 216.5zM256 1679l320 267h164l316 -264l-86 -106 l-316 176l-316 -176zM359 550q0 -62 18.5 -119t54.5 -102t91.5 -72t130.5 -27q69 0 124 24.5t92 67.5t57.5 101.5t20.5 126.5v402q0 64 -20.5 120.5t-57.5 98.5t-92 66.5t-124 24.5q-75 0 -130.5 -25.5t-91.5 -70t-54.5 -100t-18.5 -114.5v-402z" />
<glyph unicode="&#xd5;" horiz-adv-x="1311" d="M97 556v384q0 111 34.5 214.5t103 182t174 125t245.5 46.5q129 0 232 -43t176 -119t112 -179.5t39 -226.5v-384q0 -131 -40 -236t-113 -179.5t-176.5 -114t-229.5 -39.5q-140 0 -245.5 46.5t-174 124.5t-103 181.5t-34.5 216.5zM254 1664q49 103 113.5 160.5t145.5 57.5 q41 0 81 -16.5t77 -36t70 -35t59 -15.5q37 0 69 23.5t69 77.5l129 -76q-52 -111 -112 -161.5t-134 -50.5q-41 0 -80.5 14.5t-77 34t-73.5 34.5t-65 15q-37 0 -71.5 -20t-77.5 -76zM359 550q0 -62 18.5 -119t54.5 -102t91.5 -72t130.5 -27q69 0 124 24.5t92 67.5t57.5 101.5 t20.5 126.5v402q0 64 -20.5 120.5t-57.5 98.5t-92 66.5t-124 24.5q-75 0 -130.5 -25.5t-91.5 -70t-54.5 -100t-18.5 -114.5v-402z" />
<glyph unicode="&#xd6;" horiz-adv-x="1311" d="M97 556v384q0 111 34.5 214.5t103 182t174 125t245.5 46.5q129 0 232 -43t176 -119t112 -179.5t39 -226.5v-384q0 -131 -40 -236t-113 -179.5t-176.5 -114t-229.5 -39.5q-140 0 -245.5 46.5t-174 124.5t-103 181.5t-34.5 216.5zM312 1628v239h260v-239h-260zM359 550 q0 -62 18.5 -119t54.5 -102t91.5 -72t130.5 -27q69 0 124 24.5t92 67.5t57.5 101.5t20.5 126.5v402q0 64 -20.5 120.5t-57.5 98.5t-92 66.5t-124 24.5q-75 0 -130.5 -25.5t-91.5 -70t-54.5 -100t-18.5 -114.5v-402zM737 1628v239h258v-239h-258z" />
<glyph unicode="&#xd8;" horiz-adv-x="1311" d="M84 62l107 153q-49 74 -71.5 159.5t-22.5 181.5v384q0 111 34.5 214.5t103 182t174 125t245.5 46.5q109 0 201.5 -32.5t161.5 -88.5l89 123l100 -74l-100 -141q51 -74 79 -163t28 -192v-384q0 -131 -40 -236t-113 -179.5t-176.5 -114t-229.5 -39.5q-123 0 -218.5 35.5 t-164.5 98.5l-90 -129zM359 550q0 -49 9 -86l498 710q-36 41 -89.5 64.5t-122.5 23.5q-75 0 -130.5 -25.5t-91.5 -70t-54.5 -100t-18.5 -114.5v-402zM426 335q37 -47 92.5 -76t135.5 -29q69 0 124 24.5t92 67.5t57.5 101.5t20.5 126.5v402q0 56 -15 102z" />
<glyph unicode="&#xd9;" horiz-adv-x="1371" d="M129 542v954h258v-934q0 -70 20.5 -130t59 -104t94.5 -70t127 -26q133 0 214 82t81 236v946h262v-965q0 -123 -42 -222.5t-116 -171t-177.5 -109.5t-223.5 -38q-127 0 -230 42t-176 116t-112 174.5t-39 219.5zM293 1789l159 181l354 -269l-100 -121z" />
<glyph unicode="&#xda;" horiz-adv-x="1371" d="M129 542v954h258v-934q0 -70 20.5 -130t59 -104t94.5 -70t127 -26q133 0 214 82t81 236v946h262v-965q0 -123 -42 -222.5t-116 -171t-177.5 -109.5t-223.5 -38q-127 0 -230 42t-176 116t-112 174.5t-39 219.5zM525 1701l355 269l158 -181l-412 -209z" />
<glyph unicode="&#xdb;" horiz-adv-x="1371" d="M129 542v954h258v-934q0 -70 20.5 -130t59 -104t94.5 -70t127 -26q133 0 214 82t81 236v946h262v-965q0 -123 -42 -222.5t-116 -171t-177.5 -109.5t-223.5 -38q-127 0 -230 42t-176 116t-112 174.5t-39 219.5zM286 1679l321 267h163l316 -264l-86 -106l-316 176 l-316 -176z" />
<glyph unicode="&#xdc;" horiz-adv-x="1371" d="M129 542v954h258v-934q0 -70 20.5 -130t59 -104t94.5 -70t127 -26q133 0 214 82t81 236v946h262v-965q0 -123 -42 -222.5t-116 -171t-177.5 -109.5t-223.5 -38q-127 0 -230 42t-176 116t-112 174.5t-39 219.5zM349 1628v239h260v-239h-260zM774 1628v239h258v-239h-258z " />
<glyph unicode="&#xdd;" horiz-adv-x="1197" d="M8 1496h278l180 -369q35 -72 67.5 -144t63.5 -144h5l133 294l179 363h276q-117 -221 -233 -440t-235 -441v-615h-246v615q-119 222 -234 441t-234 440zM454 1701l354 269l160 -181l-414 -209z" />
<glyph unicode="&#xde;" horiz-adv-x="1270" d="M154 1494h263v-269h312q105 0 200 -29.5t166 -88t113 -146t42 -204.5q0 -90 -36 -172t-100.5 -144.5t-155 -100t-199.5 -37.5h-342v-303h-259zM417 540h330q55 0 99 18t75 49t47.5 71t16.5 85q0 117 -68 171.5t-180 54.5h-320v-449z" />
<glyph unicode="&#xdf;" horiz-adv-x="1165" d="M133 0v1133q0 101 32 181.5t90.5 136t140.5 84t180 28.5q110 0 188.5 -34.5t130 -89t76 -122t24.5 -137.5q0 -37 -10.5 -80.5t-31 -84.5t-50.5 -74.5t-68 -52.5v-2q64 -19 107 -60t69.5 -95t37.5 -112t11 -112q0 -86 -20 -176.5t-73 -164.5t-141.5 -121t-223.5 -47h-73 v202h62q97 0 156 84t59 217q0 41 -8 89t-29.5 89t-59.5 68t-94 27h-47v198h45q45 0 74 20.5t46.5 49.5t23.5 60t6 53q0 33 -10.5 68t-33 65t-58 49.5t-85.5 19.5q-55 0 -94 -19.5t-62.5 -50.5t-33.5 -70t-10 -78v-1139h-243z" />
<glyph unicode="&#xe0;" horiz-adv-x="1072" d="M76 310q0 64 23.5 122t68.5 102.5t113 70t156 25.5h287v78q0 30 -9 58t-33 48.5t-65 33t-104 12.5q-88 0 -147.5 -22.5t-105.5 -65.5l-129 164q78 77 181.5 108t214.5 31q90 0 169.5 -16t140 -57t96 -109t35.5 -171v-722h-244v94l-4 3q-43 -56 -119 -81.5t-158 -25.5 q-170 0 -268.5 82t-98.5 238zM267 1555l232 77l176 -399l-144 -63zM306 327q0 -25 9 -48t32 -41.5t58.5 -30.5t89.5 -12q41 0 79.5 8t69.5 25t52.5 45t25.5 71q2 13 2 32.5v68.5h-246q-93 0 -132.5 -34.5t-39.5 -83.5z" />
<glyph unicode="&#xe1;" horiz-adv-x="1072" d="M76 310q0 64 23.5 122t68.5 102.5t113 70t156 25.5h287v78q0 30 -9 58t-33 48.5t-65 33t-104 12.5q-88 0 -147.5 -22.5t-105.5 -65.5l-129 164q78 77 181.5 108t214.5 31q90 0 169.5 -16t140 -57t96 -109t35.5 -171v-722h-244v94l-4 3q-43 -56 -119 -81.5t-158 -25.5 q-170 0 -268.5 82t-98.5 238zM306 327q0 -25 9 -48t32 -41.5t58.5 -30.5t89.5 -12q41 0 79.5 8t69.5 25t52.5 45t25.5 71q2 13 2 32.5v68.5h-246q-93 0 -132.5 -34.5t-39.5 -83.5zM458 1223l170 409l230 -73l-254 -389z" />
<glyph unicode="&#xe2;" horiz-adv-x="1072" d="M76 310q0 64 23.5 122t68.5 102.5t113 70t156 25.5h287v78q0 30 -9 58t-33 48.5t-65 33t-104 12.5q-88 0 -147.5 -22.5t-105.5 -65.5l-129 164q78 77 181.5 108t214.5 31q90 0 169.5 -16t140 -57t96 -109t35.5 -171v-722h-244v94l-4 3q-43 -56 -119 -81.5t-158 -25.5 q-170 0 -268.5 82t-98.5 238zM133 1247l321 331h168l314 -328l-103 -95l-300 226q-19 -13 -61 -45.5t-88 -67.5t-89 -67.5t-63 -45.5zM306 327q0 -25 9 -48t32 -41.5t58.5 -30.5t89.5 -12q41 0 79.5 8t69.5 25t52.5 45t25.5 71q2 13 2 32.5v68.5h-246q-93 0 -132.5 -34.5 t-39.5 -83.5z" />
<glyph unicode="&#xe3;" horiz-adv-x="1072" d="M76 310q0 64 23.5 122t68.5 102.5t113 70t156 25.5h287v78q0 30 -9 58t-33 48.5t-65 33t-104 12.5q-88 0 -147.5 -22.5t-105.5 -65.5l-129 164q78 77 181.5 108t214.5 31q90 0 169.5 -16t140 -57t96 -109t35.5 -171v-722h-244v94l-4 3q-43 -56 -119 -81.5t-158 -25.5 q-170 0 -268.5 82t-98.5 238zM142 1299q49 103 113.5 160t146.5 57q41 0 81 -16t76 -35.5t70 -35.5t59 -16q36 0 69 24t68 77l129 -76q-51 -111 -111.5 -162t-132.5 -51q-41 0 -81 15.5t-78 35t-73 34.5t-65 15q-37 0 -71 -20.5t-77 -77.5zM306 327q0 -25 9 -48t32 -41.5 t58.5 -30.5t89.5 -12q41 0 79.5 8t69.5 25t52.5 45t25.5 71q2 13 2 32.5v68.5h-246q-93 0 -132.5 -34.5t-39.5 -83.5z" />
<glyph unicode="&#xe4;" horiz-adv-x="1072" d="M76 310q0 64 23.5 122t68.5 102.5t113 70t156 25.5h287v78q0 30 -9 58t-33 48.5t-65 33t-104 12.5q-88 0 -147.5 -22.5t-105.5 -65.5l-129 164q78 77 181.5 108t214.5 31q90 0 169.5 -16t140 -57t96 -109t35.5 -171v-722h-244v94l-4 3q-43 -56 -119 -81.5t-158 -25.5 q-170 0 -268.5 82t-98.5 238zM200 1254v234h256v-234h-256zM306 327q0 -25 9 -48t32 -41.5t58.5 -30.5t89.5 -12q41 0 79.5 8t69.5 25t52.5 45t25.5 71q2 13 2 32.5v68.5h-246q-93 0 -132.5 -34.5t-39.5 -83.5zM630 1254v234h254v-234h-254z" />
<glyph unicode="&#xe5;" horiz-adv-x="1072" d="M76 310q0 64 23.5 122t68.5 102.5t113 70t156 25.5h287v78q0 30 -9 58t-33 48.5t-65 33t-104 12.5q-88 0 -147.5 -22.5t-105.5 -65.5l-129 164q78 77 181.5 108t214.5 31q90 0 169.5 -16t140 -57t96 -109t35.5 -171v-722h-244v94l-4 3q-43 -56 -119 -81.5t-158 -25.5 q-170 0 -268.5 82t-98.5 238zM306 327q0 -25 9 -48t32 -41.5t58.5 -30.5t89.5 -12q41 0 79.5 8t69.5 25t52.5 45t25.5 71q2 13 2 32.5v68.5h-246q-93 0 -132.5 -34.5t-39.5 -83.5zM320 1383q0 47 19.5 90t51.5 74t76 49.5t95 18.5q49 0 92 -18.5t75 -49.5t51.5 -74t19.5 -90 t-19.5 -89t-51.5 -73t-75 -49.5t-92 -18.5q-50 0 -94.5 18.5t-76.5 49.5t-51.5 73t-19.5 89zM458 1383q0 -41 30.5 -70t73.5 -29t72 29t29 70q0 43 -29.5 71t-71.5 28q-43 0 -73.5 -28t-30.5 -71z" />
<glyph unicode="&#xe6;" horiz-adv-x="1754" d="M86 310q0 64 23.5 122t69 102.5t113 70t155.5 25.5h288v78q0 30 -10.5 59t-35 51.5t-65.5 35t-103 12.5q-95 0 -156.5 -24.5t-102.5 -67.5l-124 157q71 82 173 113t212 31q49 0 101.5 -5t102 -18.5t92.5 -37t76 -62.5q62 66 142.5 94.5t160.5 28.5q117 0 204.5 -42 t145.5 -114t87 -171t29 -212v-74h-677q2 -45 10.5 -80.5t26.5 -65.5q64 -107 209 -107q47 0 109 21.5t121 75.5l150 -168q-88 -82 -188 -115t-200 -33t-201 32t-175 120q-55 -70 -152 -111t-233 -41q-170 0 -274 82t-104 238zM316 327q0 -25 9.5 -48t32 -41.5t58.5 -30.5 t89 -12q109 0 169.5 46.5t60.5 156.5v49h-247q-92 0 -132 -35.5t-40 -84.5zM991 634h422q-6 109 -65.5 165.5t-143.5 56.5q-86 0 -144 -57t-69 -165z" />
<glyph unicode="&#xe7;" horiz-adv-x="960" d="M60 531q0 144 42 247.5t110.5 170t159 96.5t184.5 30q214 0 365 -150l-158 -170q-94 99 -201 99q-123 0 -187.5 -77.5t-64.5 -245.5q0 -166 63.5 -243t185.5 -77q53 0 107 28t99 73l160 -168q-76 -74 -168 -114t-203 -43l-18 -67q57 -4 98 -23.5t65.5 -46t36 -57.5 t11.5 -60q0 -32 -15.5 -66.5t-45.5 -62t-76 -45t-109 -17.5q-56 0 -111 11.5t-104 40.5l45 111q49 -24 86 -29t69 -5q37 0 66 15t29 56q0 36 -27 52.5t-66 16.5q-14 0 -36 -4l-65 43l48 148q-78 15 -147 54.5t-119 105.5t-79.5 158t-29.5 215z" />
<glyph unicode="&#xe8;" horiz-adv-x="1089" d="M80 529q0 155 42 259t108.5 169t149 92.5t164.5 27.5q107 0 192 -36.5t144.5 -102t90.5 -160t31 -210.5v-106h-671q0 -49 13 -95.5t41 -81.5t71 -56.5t100 -21.5q48 0 120.5 22.5t131.5 78.5q39 -43 71 -85t71 -85q-90 -82 -195.5 -116.5t-206.5 -34.5q-84 0 -167.5 24 t-150 85.5t-108.5 165t-42 267.5zM271 1555l232 77l176 -399l-143 -63zM335 634h409q-6 109 -63 165.5t-139 56.5q-84 0 -140 -58t-67 -164z" />
<glyph unicode="&#xe9;" horiz-adv-x="1089" d="M80 529q0 155 42 259t108.5 169t149 92.5t164.5 27.5q107 0 192 -36.5t144.5 -102t90.5 -160t31 -210.5v-106h-671q0 -49 13 -95.5t41 -81.5t71 -56.5t100 -21.5q48 0 120.5 22.5t131.5 78.5q39 -43 71 -85t71 -85q-90 -82 -195.5 -116.5t-206.5 -34.5q-84 0 -167.5 24 t-150 85.5t-108.5 165t-42 267.5zM335 634h409q-6 109 -63 165.5t-139 56.5q-84 0 -140 -58t-67 -164zM426 1223l169 409l230 -73l-253 -389z" />
<glyph unicode="&#xea;" horiz-adv-x="1089" d="M80 529q0 155 42 259t108.5 169t149 92.5t164.5 27.5q107 0 192 -36.5t144.5 -102t90.5 -160t31 -210.5v-106h-671q0 -49 13 -95.5t41 -81.5t71 -56.5t100 -21.5q48 0 120.5 22.5t131.5 78.5q39 -43 71 -85t71 -85q-90 -82 -195.5 -116.5t-206.5 -34.5q-84 0 -167.5 24 t-150 85.5t-108.5 165t-42 267.5zM154 1247l322 331h167l314 -328l-103 -95l-300 226q-18 -13 -60 -45.5t-88.5 -67.5t-89.5 -67.5t-62 -45.5zM335 634h409q-6 109 -63 165.5t-139 56.5q-84 0 -140 -58t-67 -164z" />
<glyph unicode="&#xeb;" horiz-adv-x="1089" d="M80 529q0 155 42 259t108.5 169t149 92.5t164.5 27.5q107 0 192 -36.5t144.5 -102t90.5 -160t31 -210.5v-106h-671q0 -49 13 -95.5t41 -81.5t71 -56.5t100 -21.5q48 0 120.5 22.5t131.5 78.5q39 -43 71 -85t71 -85q-90 -82 -195.5 -116.5t-206.5 -34.5q-84 0 -167.5 24 t-150 85.5t-108.5 165t-42 267.5zM209 1254v234h255v-234h-255zM335 634h409q-6 109 -63 165.5t-139 56.5q-84 0 -140 -58t-67 -164zM638 1254v234h254v-234h-254z" />
<glyph unicode="&#xec;" horiz-adv-x="505" d="M-66 1555l232 77l176 -399l-145 -63zM129 0v1065h247v-1065h-247z" />
<glyph unicode="&#xed;" horiz-adv-x="505" d="M129 0v1065h247v-1065h-247zM154 1223l170 409l230 -73l-253 -389z" />
<glyph unicode="&#xee;" horiz-adv-x="715" d="M-43 1247l320 331h168l314 -328l-103 -95l-299 226q-19 -13 -61 -45.5t-88 -67.5t-89 -67.5t-63 -45.5zM230 0v1065h248v-1065h-248z" />
<glyph unicode="&#xef;" horiz-adv-x="597" d="M-43 1254v234h256v-234h-256zM176 0v1065h247v-1065h-247zM387 1254v234h253v-234h-253z" />
<glyph unicode="&#xf0;" horiz-adv-x="1104" d="M71 471q-4 91 12 177.5t50 151.5q54 103 151 163.5t245 60.5q35 0 73 -10t75 -27t68 -41.5t51 -57.5h4q2 0 4 2q-2 76 -19 163.5t-61 142.5q-30 -24 -59 -46.5t-58 -45.5l-71 94l109 86q-43 39 -108.5 68t-175.5 46l37 191q277 -25 423 -169l149 117l75 -88l-140 -115 q90 -128 111.5 -297t21.5 -368q0 -158 -34 -294.5t-116 -232.5q-62 -74 -153.5 -115.5t-221.5 -41.5q-122 0 -215 49.5t-146 125.5q-41 62 -59.5 140t-21.5 171zM318 476q0 -43 6.5 -82t21.5 -72q54 -116 183 -115q56 0 101 24.5t74 69.5q30 43 37.5 101t7.5 119q0 51 -7 84 t-15 58q-25 69 -74.5 104t-119.5 35q-62 0 -107.5 -29t-72.5 -81q-13 -26 -23 -74t-12 -142z" />
<glyph unicode="&#xf1;" horiz-adv-x="1137" d="M125 0v1067h243v-113h4q51 58 127.5 89.5t149.5 31.5q164 0 263 -93.5t99 -282.5v-699h-243v632q0 103 -46.5 159t-149.5 56q-88 0 -146 -56t-58 -159v-632h-243zM133 1299q50 103 114.5 160t146.5 57q41 0 80 -16t76 -35.5t70.5 -35.5t58.5 -16q37 0 69 24t69 77 l129 -76q-51 -111 -111.5 -162t-133.5 -51q-41 0 -80.5 15.5t-77.5 35t-73 34.5t-66 15q-36 0 -70.5 -20.5t-77.5 -77.5z" />
<glyph unicode="&#xf2;" horiz-adv-x="1106" d="M90 531q0 86 12 163.5t42 138.5q56 118 167 181t257 63q121 0 216.5 -46t153.5 -132q41 -62 60 -151.5t17 -199.5q0 -123 -18 -209.5t-55 -151.5q-62 -101 -167.5 -151.5t-232.5 -50.5q-121 0 -215.5 40.5t-152.5 126.5q-88 132 -84 379zM284 1555l233 77l175 -399 l-144 -63zM335 529q0 -62 7 -114t26 -91q24 -55 71 -86t109 -31q69 0 122.5 37t78.5 115q10 31 14.5 76t4.5 113q0 125 -28 187q-24 62 -73 92.5t-108 30.5q-62 0 -111.5 -32t-75.5 -89q-19 -43 -26.5 -94.5t-10.5 -113.5z" />
<glyph unicode="&#xf3;" horiz-adv-x="1106" d="M90 531q0 86 12 163.5t42 138.5q56 118 167 181t257 63q121 0 216.5 -46t153.5 -132q41 -62 60 -151.5t17 -199.5q0 -123 -18 -209.5t-55 -151.5q-62 -101 -167.5 -151.5t-232.5 -50.5q-121 0 -215.5 40.5t-152.5 126.5q-88 132 -84 379zM335 529q0 -62 7 -114t26 -91 q24 -55 71 -86t109 -31q69 0 122.5 37t78.5 115q10 31 14.5 76t4.5 113q0 125 -28 187q-24 62 -73 92.5t-108 30.5q-62 0 -111.5 -32t-75.5 -89q-19 -43 -26.5 -94.5t-10.5 -113.5zM466 1223l170 409l230 -73l-253 -389z" />
<glyph unicode="&#xf4;" horiz-adv-x="1106" d="M90 531q0 86 12 163.5t42 138.5q56 118 167 181t257 63q121 0 216.5 -46t153.5 -132q41 -62 60 -151.5t17 -199.5q0 -123 -18 -209.5t-55 -151.5q-62 -101 -167.5 -151.5t-232.5 -50.5q-121 0 -215.5 40.5t-152.5 126.5q-88 132 -84 379zM154 1247l322 331h167l314 -328 l-103 -95l-300 226q-18 -13 -60 -45.5t-88.5 -67.5t-89.5 -67.5t-62 -45.5zM335 529q0 -62 7 -114t26 -91q24 -55 71 -86t109 -31q69 0 122.5 37t78.5 115q10 31 14.5 76t4.5 113q0 125 -28 187q-24 62 -73 92.5t-108 30.5q-62 0 -111.5 -32t-75.5 -89q-19 -43 -26.5 -94.5 t-10.5 -113.5z" />
<glyph unicode="&#xf5;" horiz-adv-x="1106" d="M90 531q0 86 12 163.5t42 138.5q56 118 167 181t257 63q121 0 216.5 -46t153.5 -132q41 -62 60 -151.5t17 -199.5q0 -123 -18 -209.5t-55 -151.5q-62 -101 -167.5 -151.5t-232.5 -50.5q-121 0 -215.5 40.5t-152.5 126.5q-88 132 -84 379zM158 1299q49 103 113 160t146 57 q41 0 81 -16t76.5 -35.5t69.5 -35.5t60 -16q36 0 68 24t69 77l129 -76q-51 -111 -111.5 -162t-134.5 -51q-40 0 -80 15.5t-77.5 35t-73 34.5t-65.5 15q-36 0 -71 -20.5t-78 -77.5zM335 529q0 -62 7 -114t26 -91q24 -55 71 -86t109 -31q69 0 122.5 37t78.5 115q10 31 14.5 76 t4.5 113q0 125 -28 187q-24 62 -73 92.5t-108 30.5q-62 0 -111.5 -32t-75.5 -89q-19 -43 -26.5 -94.5t-10.5 -113.5z" />
<glyph unicode="&#xf6;" horiz-adv-x="1106" d="M90 531q0 86 12 163.5t42 138.5q56 118 167 181t257 63q121 0 216.5 -46t153.5 -132q41 -62 60 -151.5t17 -199.5q0 -123 -18 -209.5t-55 -151.5q-62 -101 -167.5 -151.5t-232.5 -50.5q-121 0 -215.5 40.5t-152.5 126.5q-88 132 -84 379zM209 1254v234h255v-234h-255z M335 529q0 -62 7 -114t26 -91q24 -55 71 -86t109 -31q69 0 122.5 37t78.5 115q10 31 14.5 76t4.5 113q0 125 -28 187q-24 62 -73 92.5t-108 30.5q-62 0 -111.5 -32t-75.5 -89q-19 -43 -26.5 -94.5t-10.5 -113.5zM638 1254v234h254v-234h-254z" />
<glyph unicode="&#xf7;" d="M49 540v193h1039v-193h-1039zM411 211q0 62 46 106t113 44q64 0 110.5 -44t46.5 -106t-46.5 -106.5t-110.5 -44.5q-66 0 -112.5 44t-46.5 107zM411 1051q0 62 46 107.5t113 45.5q64 0 110.5 -45.5t46.5 -107.5t-46.5 -106t-110.5 -44q-66 0 -112.5 44t-46.5 106z" />
<glyph unicode="&#xf8;" horiz-adv-x="1106" d="M90 531q0 86 12 163.5t42 138.5q56 118 167 181t257 63q170 0 286 -90l90 117l78 -61l-99 -125q6 -7 15 -19q41 -62 60 -151.5t17 -199.5q0 -123 -18 -209.5t-55 -151.5q-62 -101 -167.5 -151.5t-232.5 -50.5q-86 0 -160 21.5t-130 64.5l-84 -106l-74 59l91 114 q-9 8 -11 14q-88 132 -84 379zM335 529q0 -51 3.5 -94t16.5 -80l349 443q-29 30 -65.5 45t-79.5 15q-62 0 -111.5 -32t-75.5 -89q-19 -43 -26.5 -94.5t-10.5 -113.5zM404 265q58 -58 144 -58q69 0 122.5 37t78.5 115q10 31 14.5 75.5t4.5 113.5q0 90 -17 156z" />
<glyph unicode="&#xf9;" horiz-adv-x="1145" d="M127 365v700h241v-635q0 -109 45 -163t153 -54q86 0 145 57t59 160v635h243v-1065h-243v105h-7q-49 -60 -124 -89t-147 -29q-165 0 -265 92.5t-100 285.5zM284 1555l233 77l175 -399l-144 -63z" />
<glyph unicode="&#xfa;" horiz-adv-x="1145" d="M127 365v700h241v-635q0 -109 45 -163t153 -54q86 0 145 57t59 160v635h243v-1065h-243v105h-7q-49 -60 -124 -89t-147 -29q-165 0 -265 92.5t-100 285.5zM462 1223l170 409l230 -73l-253 -389z" />
<glyph unicode="&#xfb;" horiz-adv-x="1145" d="M127 365v700h241v-635q0 -109 45 -163t153 -54q86 0 145 57t59 160v635h243v-1065h-243v105h-7q-49 -60 -124 -89t-147 -29q-165 0 -265 92.5t-100 285.5zM166 1247l320 331h168l314 -328l-104 -95l-298 226q-19 -13 -61.5 -45.5t-88.5 -67.5t-89 -67.5t-62 -45.5z" />
<glyph unicode="&#xfc;" horiz-adv-x="1145" d="M127 365v700h241v-635q0 -109 45 -163t153 -54q86 0 145 57t59 160v635h243v-1065h-243v105h-7q-49 -60 -124 -89t-147 -29q-165 0 -265 92.5t-100 285.5zM211 1254v234h255v-234h-255zM640 1254v234h255v-234h-255z" />
<glyph unicode="&#xfd;" horiz-adv-x="1010" d="M0 1065h262l138 -392l105 -335h8l107 331l135 396h256l-469 -1280q-45 -123 -129 -169t-181 -46h-90v204h67q47 0 79 33t50 79l54 168zM421 1223l170 409l230 -73l-253 -389z" />
<glyph unicode="&#xfe;" horiz-adv-x="1126" d="M129 -430v1961h241v-561l6 -2q53 60 116.5 83.5t133.5 23.5q127 0 204 -51.5t120 -131t57.5 -177.5t14.5 -190t-17.5 -188.5t-63.5 -173.5t-127 -126.5t-210 -49.5t-230 101h-4v-518h-241zM370 529q0 -49 6.5 -105t26.5 -102.5t60 -76.5t107 -30q66 0 106 29t61.5 74 t27 101.5t5.5 109.5q0 52 -5.5 107.5t-26 103.5t-60.5 77.5t-108 29.5q-69 0 -109 -31t-60.5 -78.5t-25.5 -103t-5 -105.5z" />
<glyph unicode="&#xff;" horiz-adv-x="1010" d="M0 1065h262l138 -392l105 -335h8l107 331l135 396h256l-469 -1280q-45 -123 -129 -169t-181 -46h-90v204h67q47 0 79 33t50 79l54 168zM166 1254v234h255v-234h-255zM595 1254v234h254v-234h-254z" />
<glyph unicode="&#x131;" horiz-adv-x="505" d="M129 0v1065h247v-1065h-247z" />
<glyph unicode="&#x152;" horiz-adv-x="1820" d="M88 525v415q0 111 35 214.5t103.5 182t172.5 125t244 46.5q32 0 61 -3t59 -9h1002v-236h-741v-394h632v-226h-632v-406h741v-234h-987q-64 -13 -135 -13q-162 0 -269 43.5t-170.5 116t-89.5 170.5t-26 208zM349 550q0 -154 73 -237t221 -83q66 0 120 24v985 q-57 24 -120 23q-87 0 -143.5 -32t-90 -84t-47 -116t-13.5 -129v-351z" />
<glyph unicode="&#x153;" horiz-adv-x="1795" d="M84 513q0 93 10.5 172.5t40.5 145.5q54 118 163.5 181t255.5 63q105 0 196 -40t145 -124v-2q62 95 153 130.5t182 35.5q107 0 193.5 -36.5t146.5 -102.5t92.5 -159t32.5 -209v-106h-680q5 -125 65.5 -190t171.5 -65q47 0 114.5 22.5t125.5 76.5l151 -168 q-88 -82 -191.5 -116.5t-201.5 -34.5q-101 0 -198.5 37.5t-163.5 133.5q-57 -89 -152.5 -130t-197.5 -41q-121 0 -215.5 41t-150.5 124q-47 70 -67.5 160t-20.5 201zM327 527q0 -62 6.5 -113t25.5 -92q26 -55 72.5 -85t112.5 -30q69 0 123.5 37t79.5 115q10 31 13 74t3 98 q0 134 -30 204q-26 62 -75.5 92.5t-109.5 30.5q-64 0 -113.5 -32t-75.5 -89q-19 -43 -25.5 -95.5t-6.5 -114.5zM1022 634h416q-6 109 -64 166.5t-141 57.5q-84 0 -143.5 -58t-67.5 -166z" />
<glyph unicode="&#x178;" horiz-adv-x="1197" d="M8 1496h278l180 -369q35 -72 67.5 -144t63.5 -144h5l133 294l179 363h276q-117 -221 -233 -440t-235 -441v-615h-246v615q-119 222 -234 441t-234 440zM260 1628v239h261v-239h-261zM686 1628v239h258v-239h-258z" />
<glyph unicode="&#x192;" d="M15 -152l61 195q53 -21 87 -25.5t61 -4.5q71 0 107.5 68.5t53.5 191.5q2 24 10.5 85t18 131t17.5 131t12 86h-172l-2 210h205l16 135q11 78 35.5 157.5t72 146.5t123 109t184.5 42q52 -2 107 -13t98 -28l-52 -203q-43 15 -80.5 18.5t-74.5 3.5q-39 0 -68 -20.5t-48 -53 t-29.5 -74.5t-17.5 -85l-20 -135h213l3 -210h-241l-61 -448q-12 -96 -39 -182t-71 -148.5t-109.5 -99.5t-158.5 -37q-49 0 -119.5 16.5t-121.5 40.5z" />
<glyph unicode="&#x2c6;" horiz-adv-x="1083" d="M144 1247l320 331h168l314 -328l-103 -95l-299 226q-19 -13 -61 -45.5t-88 -67.5t-89.5 -67.5t-62.5 -45.5z" />
<glyph unicode="&#x2c7;" horiz-adv-x="1083" d="M144 1486l99 92q18 -12 62 -44t90 -68t88 -68.5t61 -45.5l299 226l103 -94l-314 -329h-168z" />
<glyph unicode="&#x2d8;" horiz-adv-x="1122" d="M254 1527h187q0 -21 9.5 -46.5t27 -46.5t42 -35t56.5 -14q35 0 61 14t43 35t25.5 46.5t8.5 46.5h185q-4 -45 -21.5 -100t-53.5 -102t-96.5 -79.5t-151.5 -32.5q-90 0 -150.5 32.5t-98 79.5t-54.5 102t-19 100z" />
<glyph unicode="&#x2d9;" horiz-adv-x="889" d="M322 1254v234h254v-234h-254z" />
<glyph unicode="&#x2da;" horiz-adv-x="1083" d="M353 1383q0 47 19.5 90t51.5 74t76 49.5t93 18.5q50 0 93 -18.5t75.5 -49.5t52 -74t19.5 -90t-19.5 -89t-52 -73t-75.5 -49.5t-93 -18.5q-49 0 -93 18.5t-76 49.5t-51.5 73t-19.5 89zM490 1383q0 -41 30 -70t73 -29t72.5 29t29.5 70q0 43 -29.5 71t-72.5 28t-73 -28 t-30 -71z" />
<glyph unicode="&#x2db;" horiz-adv-x="618" d="M123 -211q0 45 20.5 96t69.5 121h157l4 -6q-43 -60 -62 -102t-19 -76q0 -76 85 -76q24 0 56 7t75 23l50 -129q-43 -26 -98 -42t-110 -16q-101 0 -164.5 59t-63.5 141z" />
<glyph unicode="&#x2dc;" horiz-adv-x="1083" d="M146 1299q49 103 113.5 160t146.5 57q41 0 81 -16t76.5 -35.5t70 -35.5t58.5 -16q37 0 69.5 24t69.5 77l128 -76q-52 -111 -111.5 -162t-133.5 -51q-41 0 -81 15.5t-77 35t-73 34.5t-66 15q-37 0 -71 -20.5t-77 -77.5z" />
<glyph unicode="&#x2dd;" horiz-adv-x="1225" d="M324 1223l171 409l229 -73l-253 -389zM667 1223l168 409l230 -73l-252 -389z" />
<glyph unicode="&#x3a9;" horiz-adv-x="1297" d="M56 0v234h159q0 2 1 3t1 3q-39 29 -63.5 71t-38.5 90t-20.5 101.5t-6.5 106.5v331q0 111 35 214.5t103.5 182t172.5 125t244 46.5q129 0 232.5 -43t176.5 -119t111.5 -179.5t38.5 -226.5v-331q0 -114 -27.5 -208.5t-103.5 -164.5l2 -2h164v-234h-495v258q60 15 98 51.5 t60.5 87t31 108t8.5 112.5v335q0 64 -19.5 121.5t-57.5 100.5t-93.5 67.5t-126.5 24.5q-78 0 -133.5 -26.5t-91 -70.5t-52.5 -101t-17 -116v-335q0 -55 7 -111.5t29.5 -105.5t62.5 -87t102 -57v-256h-494z" />
<glyph unicode="&#x3c0;" horiz-adv-x="1151" d="M129 0v1065h888v-1065h-243v856h-402v-856h-243z" />
<glyph unicode="&#x401;" horiz-adv-x="1212" d="M158 0v1496h1001v-236h-742v-392h632v-228h-632v-404h742v-236h-1001zM316 1628v239h260v-239h-260zM742 1628v239h258v-239h-258z" />
<glyph unicode="&#x402;" horiz-adv-x="1597" d="M8 1270v226h1215v-226h-544v-380h7q32 29 72 52.5t85 38t92.5 23.5t90.5 9q94 0 180.5 -30.5t152 -93t104.5 -158t39 -226.5q0 -119 -32 -219.5t-97.5 -174.5t-168.5 -117t-247 -43h-32.5t-32.5 2v209q158 -2 251.5 78t93.5 255q0 135 -74.5 211t-194.5 76 q-71 0 -146 -31t-143 -99v-652h-260v1270h-411z" />
<glyph unicode="&#x403;" horiz-adv-x="1171" d="M158 0v1496h1001v-236h-742v-1260h-259zM439 1701l355 269l158 -181l-412 -209z" />
<glyph unicode="&#x404;" horiz-adv-x="1229" d="M103 556v384q0 111 34.5 214.5t103.5 182t174.5 125t244.5 46.5q198 0 332.5 -96t189.5 -253l-244 -96q-29 88 -98.5 142.5t-179.5 54.5q-75 0 -129.5 -25.5t-91.5 -70t-55.5 -100t-18.5 -114.5v-82h462v-228h-462v-88q0 -62 18.5 -119t55.5 -102t91.5 -72t129.5 -27 q108 0 178.5 57t99.5 150l246 -104q-55 -164 -191.5 -256t-332.5 -92q-139 0 -244.5 44.5t-174.5 120.5t-103.5 180.5t-34.5 223.5z" />
<glyph unicode="&#x405;" horiz-adv-x="1223" d="M10 193l158 203q97 -90 210.5 -128t238.5 -38t201.5 51.5t76.5 153.5q0 90 -68 136t-205 67q-97 13 -190.5 36t-167 69.5t-117.5 123.5t-44 202q0 111 43 194t114 137.5t162 82t189 27.5q144 0 269.5 -32.5t233.5 -107.5l-129 -215q-95 62 -191.5 86.5t-178.5 24.5 q-137 0 -195.5 -54.5t-58.5 -134.5q0 -47 20.5 -78t65.5 -53.5t114 -39t166 -33.5q81 -15 161 -40t142 -73t100 -124.5t38 -192.5q0 -109 -45.5 -194t-122.5 -143.5t-179.5 -88.5t-216.5 -30q-148 0 -304 44.5t-290 161.5z" />
<glyph unicode="&#x406;" horiz-adv-x="575" d="M160 0v1496h261v-1496h-261z" />
<glyph unicode="&#x407;" horiz-adv-x="575" d="M-66 1639v234h255v-234h-255zM160 0v1496h261v-1496h-261zM363 1639v234h254v-234h-254z" />
<glyph unicode="&#x408;" horiz-adv-x="1051" d="M10 174l185 170q48 -49 106 -82.5t112 -33.5q45 0 87 10t76.5 39t55 80t20.5 133v1006h259v-1014q0 -140 -40 -235t-108 -151.5t-157 -81t-187 -24.5q-123 0 -226 47t-183 137z" />
<glyph unicode="&#x409;" horiz-adv-x="2040" d="M24 187q80 21 133.5 56.5t86.5 97t47.5 155t14.5 231.5v769h853v-610h349q121 0 211.5 -36.5t153 -95.5t94 -136.5t31.5 -159.5q0 -112 -39 -197t-107.5 -143t-162 -88t-201.5 -30h-589v1264h-347v-533q0 -175 -24.5 -311t-81 -232t-148 -150.5t-227.5 -65.5zM1159 236 h329q116 0 179.5 59.5t63.5 153.5q0 39 -14 76t-43 66t-74 46t-108 17h-333v-418z" />
<glyph unicode="&#x40a;" horiz-adv-x="2023" d="M148 0v1496h260v-610h478v610h261v-610h335q120 0 213.5 -34.5t158 -92.5t97.5 -136.5t33 -166.5q0 -115 -38 -199.5t-106 -141.5t-162 -86t-201 -29h-591v649h-478v-649h-260zM1147 236h326q117 0 181 56.5t64 154.5q0 78 -60 140t-185 62h-326v-413z" />
<glyph unicode="&#x40b;" horiz-adv-x="1609" d="M10 1270v226h1215v-226h-546v-378h7q73 58 168.5 91.5t192.5 33.5q195 0 315 -102t120 -295v-620h-261v538q0 55 -10.5 101.5t-38.5 79t-75.5 51t-120.5 18.5q-69 0 -148 -34t-149 -96v-658h-260v1270h-409z" />
<glyph unicode="&#x40c;" horiz-adv-x="1321" d="M152 0v1496h261v-626h196q35 0 73 7t76 29.5t69 66.5t55 117l129 402h253l-135 -436q-33 -109 -87.5 -183.5t-125.5 -98.5q94 -31 146 -108t85 -186l143 -480h-270l-123 415q-24 73 -54 119.5t-65.5 71t-75 33t-82.5 8.5h-207v-647h-261zM445 1701l355 269l159 -181 l-413 -209z" />
<glyph unicode="&#x40e;" horiz-adv-x="1223" d="M41 1496h283l162 -472l138 -388h10l125 384l159 476h276l-435 -1165q-39 -103 -77.5 -173t-84 -112t-99 -59t-124.5 -17h-140v223h101q51 0 85 21.5t60 78.5l15 38zM308 1822h187q0 -21 9 -46.5t26.5 -47t42 -35.5t57.5 -14q35 0 60.5 14t43 35.5t26 46.5t8.5 47h184 q-4 -45 -21 -100.5t-53.5 -102.5t-97 -79t-150.5 -32t-150.5 32t-98 79t-54.5 102.5t-19 100.5z" />
<glyph unicode="&#x40f;" horiz-adv-x="1408" d="M158 0v1496h259v-1260h576v1260h259v-1496h-419v-368h-252v368h-423z" />
<glyph unicode="&#x410;" horiz-adv-x="1352" d="M4 0l566 1496h210l566 -1496h-275l-119 331h-554l-121 -331h-273zM474 552h402l-100 304l-99 307h-6l-97 -301z" />
<glyph unicode="&#x411;" horiz-adv-x="1295" d="M138 0v1496h948v-236h-688v-374h335q123 0 217.5 -34.5t158 -92.5t97 -136.5t33.5 -166.5q0 -115 -39 -199.5t-107.5 -141.5t-161 -86t-200.5 -29h-593zM398 234h329q116 0 180.5 57.5t64.5 153.5q0 39 -14 76.5t-44 65.5t-76 45t-111 17h-329v-415z" />
<glyph unicode="&#x412;" horiz-adv-x="1328" d="M158 0v1496h597q114 0 202 -30t147 -83.5t89 -129t30 -165.5q0 -43 -9.5 -86t-33 -82.5t-63.5 -76.5t-100 -63v-8q58 -17 102 -54t73 -84t44.5 -99.5t15.5 -104.5q0 -96 -36 -176t-96 -137t-139.5 -87t-167.5 -30h-655zM417 236h334q60 0 105 17.5t74 46.5t43 66.5 t14 78.5t-14 79t-43 67t-74 47t-105 18h-334v-420zM417 876h303q121 0 176.5 57.5t55.5 139.5t-55.5 136.5t-176.5 54.5h-303v-388z" />
<glyph unicode="&#x413;" horiz-adv-x="1171" d="M158 0v1496h1001v-236h-742v-1260h-259z" />
<glyph unicode="&#x414;" horiz-adv-x="1573" d="M43 209q35 6 69 13.5t71 15.5q51 39 81.5 86.5t48.5 120t27 174t15 249.5l25 628h988q0 -318 1 -633t1 -633h144v-563h-230v333h-1009v-333h-232v542zM480 230h630v1034h-501q-4 -103 -9 -200.5t-9 -201.5q-4 -99 -9.5 -191t-16.5 -173t-31.5 -150t-53.5 -118z" />
<glyph unicode="&#x415;" horiz-adv-x="1212" d="M158 0v1496h1001v-236h-742v-392h632v-228h-632v-404h742v-236h-1001z" />
<glyph unicode="&#x416;" horiz-adv-x="2048" d="M43 0l144 480q32 109 83.5 186.5t146.5 107.5q-72 24 -127.5 98t-84.5 184l-136 436h253l130 -402q20 -76 53 -118.5t69.5 -65t75 -29.5t74.5 -7h171v628h260v-628h170q35 0 74 7t76 29.5t69 65.5t54 118l129 402h253l-135 -436q-31 -109 -86.5 -183.5t-126.5 -98.5 q94 -31 146 -108t85 -186l144 -480h-271l-123 415q-24 73 -54 119.5t-65.5 71t-75 33t-82.5 8.5h-181v-647h-260v647h-181q-43 0 -83 -8.5t-75 -33t-65.5 -71t-53.5 -119.5l-123 -415h-271z" />
<glyph unicode="&#x417;" horiz-adv-x="1237" d="M35 324l240 109q15 -43 47.5 -80t74.5 -65t92.5 -44t103.5 -16q125 0 207 60.5t82 167.5q0 103 -65.5 161t-180.5 58h-174v222h178q101 0 164.5 52.5t63.5 136.5q0 88 -70.5 133t-171.5 45q-109 0 -192 -52.5t-124 -136.5l-228 115q64 146 201.5 233t342.5 87 q234 0 369.5 -104.5t135.5 -291.5q0 -39 -10.5 -84t-35.5 -88t-67 -82t-104 -64q0 -4 1 -5t1 -6q71 -21 116 -62.5t71 -89.5t36 -98.5t10 -91.5q0 -107 -43 -191t-119 -142.5t-177.5 -89t-218.5 -30.5q-203 0 -350 88t-206 246z" />
<glyph unicode="&#x418;" horiz-adv-x="1487" d="M158 0v1496h257v-1057q2 -2 6 -2l349 535l348 524h218v-1496h-261v1015h-6l-297 -459q-95 -139 -187.5 -277.5t-188.5 -278.5h-238z" />
<glyph unicode="&#x419;" horiz-adv-x="1487" d="M158 0v1496h257v-1057q2 -2 6 -2l349 535l348 524h218v-1496h-261v1015h-6l-297 -459q-95 -139 -187.5 -277.5t-188.5 -278.5h-238zM408 1851h187q0 -21 10 -45.5t27 -46t42 -36t57 -14.5q34 0 60 14.5t43.5 36t25.5 46t8 45.5h186q-4 -45 -21.5 -99.5t-54 -102t-97 -80 t-150.5 -32.5q-91 0 -150.5 32.5t-97.5 80t-55 102t-20 99.5z" />
<glyph unicode="&#x41a;" horiz-adv-x="1321" d="M152 0v1496h261v-626h196q35 0 73 7t76 29.5t69 66.5t55 117l129 402h253l-135 -436q-33 -109 -87.5 -183.5t-125.5 -98.5q94 -31 146 -108t85 -186l143 -480h-270l-123 415q-24 73 -54 119.5t-65.5 71t-75 33t-82.5 8.5h-207v-647h-261z" />
<glyph unicode="&#x41b;" horiz-adv-x="1436" d="M26 185q80 21 134.5 57.5t87.5 98t47.5 155t14.5 228.5v772h954v-1496h-258v1264h-452v-417q0 -217 -20.5 -375t-74 -265.5t-147 -164.5t-238.5 -70q-11 53 -23 106t-25 107z" />
<glyph unicode="&#x41c;" horiz-adv-x="1644" d="M158 0v1496h242l195 -427q62 -136 119.5 -269t116.5 -269h8l120 286l110 252l191 427h250v-1496h-260v888h-7l-80 -191l-109 -241l-116 -245h-209l-86 183l-142 314l-78 182l-6 -6v-884h-259z" />
<glyph unicode="&#x41d;" horiz-adv-x="1408" d="M158 0v1496h259v-628h576v628h259v-1496h-259v640h-576v-640h-259z" />
<glyph unicode="&#x41e;" horiz-adv-x="1311" d="M97 556v384q0 111 34.5 214.5t103 182t174 125t245.5 46.5q129 0 232 -43t176 -119t112 -179.5t39 -226.5v-384q0 -131 -40 -236t-113 -179.5t-176.5 -114t-229.5 -39.5q-140 0 -245.5 46.5t-174 124.5t-103 181.5t-34.5 216.5zM359 550q0 -62 18.5 -119t54.5 -102 t91.5 -72t130.5 -27q69 0 124 24.5t92 67.5t57.5 101.5t20.5 126.5v402q0 64 -20.5 120.5t-57.5 98.5t-92 66.5t-124 24.5q-75 0 -130.5 -25.5t-91.5 -70t-54.5 -100t-18.5 -114.5v-402z" />
<glyph unicode="&#x41f;" horiz-adv-x="1408" d="M158 0v1496h1094v-1496h-259v1264h-576v-1264h-259z" />
<glyph unicode="&#x420;" horiz-adv-x="1270" d="M158 0v1496h582q105 0 197.5 -30t162.5 -88t110 -146t40 -204q0 -90 -36 -172t-100.5 -144.5t-155 -100t-199.5 -37.5h-342v-574h-259zM417 811h325q115 0 178 66.5t63 156.5q0 117 -69 171.5t-181 54.5h-316v-449z" />
<glyph unicode="&#x421;" horiz-adv-x="1229" d="M103 556v384q0 111 34.5 214.5t103.5 182t174.5 125t244.5 46.5q198 0 332.5 -96t189.5 -253l-244 -96q-29 88 -98.5 142.5t-179.5 54.5q-75 0 -129.5 -25.5t-91.5 -70t-55.5 -100t-18.5 -114.5v-398q0 -62 18.5 -119t55.5 -102t91.5 -72t129.5 -27q108 0 178.5 57 t99.5 150l246 -104q-55 -164 -191.5 -256t-332.5 -92q-139 0 -244.5 44.5t-174.5 120.5t-103.5 180.5t-34.5 223.5z" />
<glyph unicode="&#x422;" horiz-adv-x="1120" d="M10 1264v232h1094v-232h-418v-1264h-260v1264h-416z" />
<glyph unicode="&#x423;" horiz-adv-x="1223" d="M41 1496h283l162 -472l138 -388h10l125 384l159 476h276l-435 -1165q-39 -103 -77.5 -173t-84 -112t-99 -59t-124.5 -17h-140v223h101q51 0 85 21.5t60 78.5l15 38z" />
<glyph unicode="&#x424;" horiz-adv-x="1629" d="M90 761q0 131 38 247.5t113 203.5t187 139.5t260 58.5v86h250v-86q159 -10 274 -60.5t188 -136.5t107 -201t34 -251q0 -131 -39 -244t-116 -198t-189.5 -135.5t-258.5 -54.5v-129h-250v129q-148 11 -260 61t-187 133t-113 194t-38 244zM342 763q0 -178 83.5 -293 t262.5 -132v864q-93 -8 -158.5 -45t-107.5 -96t-61 -135.5t-19 -162.5zM938 338q98 4 166 38.5t109 91.5t59 132t18 163q0 82 -17 159.5t-59 138.5t-110 99t-166 42v-864z" />
<glyph unicode="&#x425;" horiz-adv-x="1237" d="M0 0l484 765l-456 731h294l295 -515l297 515h292l-453 -731l484 -765h-293l-327 552l-324 -552h-293z" />
<glyph unicode="&#x426;" horiz-adv-x="1479" d="M158 0v1496h259v-1260h576v1260h259v-1264h178v-565h-230v333h-1042z" />
<glyph unicode="&#x427;" horiz-adv-x="1352" d="M119 1026v470h253v-440q0 -141 70.5 -209.5t200.5 -68.5q59 0 143 20.5t152 69.5v628h256v-1496h-258v652h-3q-81 -49 -173.5 -68.5t-183.5 -19.5q-98 0 -182 29t-145.5 85.5t-95.5 143.5t-34 204z" />
<glyph unicode="&#x428;" horiz-adv-x="1995" d="M150 0v1496h261v-1260h455v1260h263v-1260h458v1260h258v-1496h-1695z" />
<glyph unicode="&#x429;" horiz-adv-x="2070" d="M148 0v1496h260v-1260h456v1260h263v-1260h457v1260h261v-1264h176v-565h-230v333h-1643z" />
<glyph unicode="&#x42a;" horiz-adv-x="1592" d="M21 1260v236h708v-610h336q120 0 213.5 -34.5t158.5 -92.5t98 -136.5t33 -166.5q0 -115 -39 -199.5t-108 -141.5t-161 -86t-200 -29h-594v1260h-445zM727 236h329q117 0 180 56.5t63 154.5q0 39 -15.5 75.5t-45 64.5t-75 45t-107.5 17h-329v-413z" />
<glyph unicode="&#x42b;" horiz-adv-x="1808" d="M166 0v1496h260v-610h337q121 0 214.5 -34.5t157 -92.5t96.5 -136.5t33 -166.5q0 -115 -39 -199.5t-106.5 -141.5t-161 -86t-200.5 -29h-591zM426 236h329q117 0 180 56.5t63 154.5q0 78 -60 140t-183 62h-329v-413zM1400 0v1496h260v-1496h-260z" />
<glyph unicode="&#x42c;" horiz-adv-x="1283" d="M158 0v1496h259v-610h336q121 0 214 -34.5t158 -92.5t98 -136.5t33 -166.5q0 -115 -39 -199.5t-106.5 -141.5t-161 -86t-200.5 -29h-591zM417 236h330q116 0 179 56.5t63 154.5q0 39 -15 75.5t-45 64.5t-75.5 45t-106.5 17h-330v-413z" />
<glyph unicode="&#x42d;" horiz-adv-x="1270" d="M60 338l246 103q30 -92 99 -149.5t178 -57.5q80 0 136.5 27t92 72t52 102t16.5 119v102h-463v228h463v68q0 58 -13 113t-45 99.5t-87.5 71t-137.5 26.5q-102 0 -179.5 -54.5t-105.5 -142.5l-246 96q28 78 78.5 142.5t120.5 111t155 71t184 24.5q148 0 251.5 -46t166 -125 t90 -182t27.5 -215v-383q0 -121 -34 -225t-104 -180t-174.5 -120t-243.5 -44q-196 0 -331 92t-192 256z" />
<glyph unicode="&#x42e;" horiz-adv-x="1750" d="M148 0v1496h260v-628h181v70q0 111 31.5 214.5t96.5 183t165.5 126t237.5 46.5q138 0 238 -42t165.5 -119t97 -179.5t31.5 -225.5v-388q0 -129 -37 -234t-105.5 -179.5t-167.5 -114t-224 -39.5q-142 0 -242 46.5t-164.5 125.5t-93.5 181.5t-29 215.5v84h-181v-640h-260z M849 550q0 -62 13.5 -119t44.5 -102t82.5 -72t128.5 -27q72 0 123.5 24.5t83.5 67.5t47 101.5t15 126.5v400q0 60 -14 116t-46 99.5t-82.5 70t-124.5 26.5q-77 0 -128.5 -28t-83.5 -73t-45.5 -101t-13.5 -110v-400z" />
<glyph unicode="&#x42f;" horiz-adv-x="1358" d="M69 0l118 423q26 95 69 162t131 96q-71 19 -119.5 58t-79 90t-44 108.5t-13.5 113.5q0 99 34.5 182t96.5 141t147.5 90t187.5 32h607v-1496h-262v632h-207q-43 0 -82.5 -10.5t-76 -40t-67.5 -77.5t-53 -121l-112 -383h-275zM398 1047q0 -52 19.5 -88t53.5 -58.5 t81.5 -33.5t101.5 -11h288v410h-304q-111 0 -175.5 -57t-64.5 -162z" />
<glyph unicode="&#x430;" horiz-adv-x="1072" d="M76 310q0 64 23.5 122t68.5 102.5t113 70t156 25.5h287v78q0 30 -9 58t-33 48.5t-65 33t-104 12.5q-88 0 -147.5 -22.5t-105.5 -65.5l-129 164q78 77 181.5 108t214.5 31q90 0 169.5 -16t140 -57t96 -109t35.5 -171v-722h-244v94l-4 3q-43 -56 -119 -81.5t-158 -25.5 q-170 0 -268.5 82t-98.5 238zM306 327q0 -25 9 -48t32 -41.5t58.5 -30.5t89.5 -12q41 0 79.5 8t69.5 25t52.5 45t25.5 71q2 13 2 32.5v68.5h-246q-93 0 -132.5 -34.5t-39.5 -83.5z" />
<glyph unicode="&#x431;" horiz-adv-x="1106" d="M88 626q4 146 12.5 233t16.5 120q34 174 131.5 292t282.5 187q62 25 150.5 53t206.5 71l73 -184q-103 -44 -164.5 -65.5t-95.5 -33.5q-96 -37 -160.5 -70t-105.5 -75t-62.5 -97t-28.5 -134q2 0 5 -2q53 60 125.5 85.5t134.5 25.5q114 0 190.5 -39t129.5 -115 q47 -70 67.5 -158t20.5 -193q0 -219 -86 -353q-59 -96 -158.5 -142.5t-226.5 -46.5q-133 0 -217 37.5t-134 104.5q-55 71 -81 188.5t-26 310.5zM338 509q0 -64 9.5 -115.5t32.5 -90.5q26 -49 68 -72.5t106 -23.5t114 31t76 97q15 35 20.5 77t5.5 99q0 62 -8.5 113t-24.5 80 q-24 53 -65.5 82t-115.5 29q-61 0 -103 -25t-68 -68t-36.5 -100.5t-10.5 -112.5z" />
<glyph unicode="&#x432;" horiz-adv-x="1075" d="M121 0v1065h501q189 0 282.5 -85t93.5 -215q0 -57 -31 -117.5t-113 -97.5q86 -28 127 -95t41 -133q0 -71 -28 -130t-77 -102t-115.5 -66.5t-143.5 -23.5h-537zM365 215h252q87 0 122 35.5t35 82.5t-35 84t-122 37h-252v-239zM365 630h230q91 0 123.5 34.5t32.5 79.5 q0 50 -37 81t-119 31h-230v-226z" />
<glyph unicode="&#x433;" horiz-adv-x="941" d="M121 0v1065h817v-209h-575v-856h-242z" />
<glyph unicode="&#x434;" horiz-adv-x="1266" d="M37 193l123 24q36 29 58 59t37.5 74t23 103.5t14.5 148.5l29 463h779v-852h122v-510h-219v297h-746v-297h-221v490zM433 211h427v647h-333l-16 -243q-8 -133 -21.5 -236.5t-56.5 -167.5z" />
<glyph unicode="&#x435;" horiz-adv-x="1089" d="M80 529q0 155 42 259t108.5 169t149 92.5t164.5 27.5q107 0 192 -36.5t144.5 -102t90.5 -160t31 -210.5v-106h-671q0 -49 13 -95.5t41 -81.5t71 -56.5t100 -21.5q48 0 120.5 22.5t131.5 78.5q39 -43 71 -85t71 -85q-90 -82 -195.5 -116.5t-206.5 -34.5q-84 0 -167.5 24 t-150 85.5t-108.5 165t-42 267.5zM335 634h409q-6 109 -63 165.5t-139 56.5q-84 0 -140 -58t-67 -164z" />
<glyph unicode="&#x436;" horiz-adv-x="1640" d="M43 0q26 86 53 171t52 173q24 80 60.5 137t111.5 73q-60 17 -98.5 70t-61.5 131l-98 310h239l86 -280q15 -51 37.5 -82.5t49.5 -48t56 -20.5t57 -4h114v435h243v-435h110q62 0 117.5 39t90.5 146l78 250h238l-96 -310q-25 -78 -63 -130.5t-99 -70.5q75 -16 112 -73.5 t60 -136.5q26 -88 53 -173t53 -171h-248q-19 69 -39.5 137t-40.5 136q-34 103 -83.5 134.5t-115.5 31.5h-127v-439h-243v439h-159q-58 0 -100 -38t-72 -128q-19 -69 -39.5 -136.5t-40.5 -136.5h-247z" />
<glyph unicode="&#x437;" horiz-adv-x="981" d="M33 133l141 164q19 -19 49.5 -36.5t68 -30.5t79.5 -20t81 -7q96 0 150 38t54 97q0 64 -55 92t-121 28h-160v178h170q72 0 110 34t38 81q0 53 -46 81t-126 28q-32 0 -67.5 -5.5t-70.5 -14.5t-67.5 -25.5t-55.5 -38.5l-123 168q76 69 182 102t212 33q206 0 305 -81.5 t99 -217.5q0 -26 -9 -57t-27.5 -62t-48.5 -59t-71 -48v-4q52 -19 86.5 -45.5t54 -59t27 -64.5t7.5 -61q0 -75 -31 -135t-87.5 -104t-135.5 -67.5t-179 -23.5q-142 0 -247 32t-186 111z" />
<glyph unicode="&#x438;" horiz-adv-x="1182" d="M123 0v1065h238v-708h4q48 69 95 134t94 135q78 109 154.5 218.5t155.5 220.5h199v-1065h-242v673h-4q-54 -84 -112 -160t-114 -158l-251 -355h-217z" />
<glyph unicode="&#x439;" horiz-adv-x="1182" d="M123 0v1065h238v-708h4q48 69 95 134t94 135q78 109 154.5 218.5t155.5 220.5h199v-1065h-242v673h-4q-54 -84 -112 -160t-114 -158l-251 -355h-217zM293 1527h187q0 -21 9.5 -46.5t26.5 -46.5t42 -35t57 -14q35 0 60.5 14t42.5 35t26 46.5t9 46.5h185q-5 -45 -22 -100 t-54 -102t-96.5 -79.5t-150.5 -32.5q-90 0 -150.5 32.5t-98 79.5t-54.5 102t-19 100z" />
<glyph unicode="&#x43a;" horiz-adv-x="1087" d="M117 0v1063h242v-433h138q28 0 56 4t54.5 20.5t49 47.5t38.5 83l85 280h242l-97 -310q-24 -78 -63 -130.5t-99 -70.5q76 -16 112 -73.5t61 -136.5l105 -344h-249l-78 273q-35 103 -85 133.5t-118 30.5h-152v-437h-242z" />
<glyph unicode="&#x43b;" horiz-adv-x="1156" d="M28 160q66 18 109.5 43t69 71t35.5 120t10 189v482h772v-1065h-244v854h-309v-273q0 -293 -89 -440t-311 -162q-10 45 -21 90t-22 91z" />
<glyph unicode="&#x43c;" horiz-adv-x="1338" d="M119 0v1065h219q74 -136 115.5 -216.5t65 -125t33.5 -64t16 -31.5l103 -195q26 49 49.5 97.5t49.5 97.5q53 111 111.5 218.5t113.5 218.5h224v-1065h-238v581h-2q-37 -76 -74 -147t-72 -144l-76 -144h-174l-95 181q-34 61 -66 126.5t-63 129.5h-2v-583h-238z" />
<glyph unicode="&#x43d;" horiz-adv-x="1143" d="M121 0v1065h240v-433h424v433h239v-1065h-239v441h-424v-441h-240z" />
<glyph unicode="&#x43e;" horiz-adv-x="1106" d="M90 531q0 86 12 163.5t42 138.5q56 118 167 181t257 63q121 0 216.5 -46t153.5 -132q41 -62 60 -151.5t17 -199.5q0 -123 -18 -209.5t-55 -151.5q-62 -101 -167.5 -151.5t-232.5 -50.5q-121 0 -215.5 40.5t-152.5 126.5q-88 132 -84 379zM335 529q0 -62 7 -114t26 -91 q24 -55 71 -86t109 -31q69 0 122.5 37t78.5 115q10 31 14.5 76t4.5 113q0 125 -28 187q-24 62 -73 92.5t-108 30.5q-62 0 -111.5 -32t-75.5 -89q-19 -43 -26.5 -94.5t-10.5 -113.5z" />
<glyph unicode="&#x43f;" horiz-adv-x="1151" d="M129 0v1065h888v-1065h-243v856h-402v-856h-243z" />
<glyph unicode="&#x440;" horiz-adv-x="1108" d="M129 -430v1495h241v-95l6 -2q53 60 122.5 83.5t137.5 23.5q125 0 201.5 -50.5t117 -130t54 -176t13.5 -189.5q0 -92 -16.5 -188t-61.5 -174.5t-124.5 -129t-208.5 -50.5q-66 0 -131 25t-106 76h-4v-518h-241zM370 529q0 -49 5 -105t25.5 -102.5t60.5 -76.5t107 -30 q66 0 107 29t61.5 74t27 101.5t6.5 109.5q0 52 -4.5 107.5t-24 103.5t-59 77.5t-110.5 29.5q-69 0 -109 -31t-60 -78.5t-26.5 -103t-6.5 -105.5z" />
<glyph unicode="&#x441;" horiz-adv-x="960" d="M60 531q0 144 42 247.5t110.5 170t159 96.5t184.5 30q214 0 365 -150l-158 -170q-94 99 -201 99q-123 0 -187.5 -77.5t-64.5 -245.5q0 -166 63.5 -243t185.5 -77q53 0 107 28t99 73l160 -168q-78 -76 -172.5 -116.5t-204.5 -40.5q-96 0 -184.5 31t-156 97t-107.5 169 t-40 247z" />
<glyph unicode="&#x442;" horiz-adv-x="926" d="M15 856v209h890v-209h-324v-856h-243v856h-323z" />
<glyph unicode="&#x443;" horiz-adv-x="1010" d="M0 1065h262l138 -392l105 -335h8l107 331l135 396h256l-469 -1280q-45 -123 -129 -169t-181 -46h-90v204h67q47 0 79 33t50 79l54 168z" />
<glyph unicode="&#x444;" horiz-adv-x="1395" d="M92 531q2 86 15.5 162.5t40.5 137.5q26 53 71.5 99t101 78.5t121 50.5t132.5 18v486h241v-486q60 0 119 -13t112 -37.5t95.5 -59t71.5 -75.5q88 -133 88 -365q0 -211 -80 -336q-62 -101 -173.5 -152.5t-232.5 -55.5v-404h-239v404q-122 2 -227.5 46.5t-165.5 124.5 q-50 70 -70.5 164.5t-20.5 212.5zM338 529q0 -62 7.5 -114t26.5 -91q26 -55 82.5 -89.5t119.5 -34.5v656q-62 0 -119 -31t-83 -88q-19 -43 -25.5 -94.5t-8.5 -113.5zM815 200q71 0 133.5 43t85.5 118q11 35 15.5 75t4.5 95q0 132 -30 202q-24 60 -82 90.5t-127 32.5v-656z " />
<glyph unicode="&#x445;" horiz-adv-x="1077" d="M24 0l387 544l-370 521h290l207 -345l209 345h289l-369 -523l387 -542h-293l-223 359l-222 -359h-292z" />
<glyph unicode="&#x446;" horiz-adv-x="1227" d="M129 0v1065h241v-848h420v848h238v-848h156v-514h-218v297h-837z" />
<glyph unicode="&#x447;" horiz-adv-x="1067" d="M80 720v347h242v-306q0 -96 41 -138t136 -42q41 0 106.5 15t116.5 44v427h237v-1067h-237v439h-2q-69 -37 -138 -52t-130 -15q-78 0 -146 18t-118 60t-79 109t-29 161z" />
<glyph unicode="&#x448;" horiz-adv-x="1695" d="M129 0v1065h236v-846h364v846h237v-846h365v846h237v-1065h-1439z" />
<glyph unicode="&#x449;" horiz-adv-x="1767" d="M129 0v1065h236v-846h364v846h239v-846h363v846h237v-848h156v-514h-220v297h-1375z" />
<glyph unicode="&#x44a;" horiz-adv-x="1281" d="M26 856v209h585v-370h257q103 0 176.5 -29.5t120 -75.5t68 -106.5t21.5 -124.5q0 -75 -24 -140t-72 -114t-120 -77t-172 -28h-496v856h-344zM609 217h240q80 0 118.5 37t38.5 95q0 47 -34 89t-123 42l-240 2v-265z" />
<glyph unicode="&#x44b;" horiz-adv-x="1467" d="M117 0v1065h238v-370h258q103 0 176 -29.5t119 -75.5t68 -106.5t22 -124.5q0 -75 -24 -140t-72 -114t-120 -77t-171 -28h-494zM353 217h240q80 0 119 37t39 95q0 47 -35 89t-123 42l-240 2v-265zM1108 0v1065h238v-1065h-238z" />
<glyph unicode="&#x44c;" horiz-adv-x="1032" d="M114 0v1065h241v-370h256q103 0 176 -29.5t120 -75.5t69 -106.5t22 -124.5q0 -75 -24 -140t-72 -114t-121 -77t-170 -28h-497zM353 217h238q80 0 120 37t40 95q0 47 -36 89t-124 42l-238 2v-265z" />
<glyph unicode="&#x44d;" horiz-adv-x="997" d="M41 125l135 178q50 -43 104.5 -67.5t111.5 -24.5q116 0 184.5 60t79.5 181h-336v176h338q-6 107 -66.5 165.5t-170.5 58.5q-49 0 -110 -23t-108 -68l-137 172q74 72 169.5 107t203.5 35q99 0 186 -27.5t150.5 -91.5t99.5 -162.5t36 -241.5q0 -148 -42 -255.5t-112.5 -175 t-162 -99.5t-190.5 -32q-215 0 -363 135z" />
<glyph unicode="&#x44e;" horiz-adv-x="1472" d="M119 0v1065h242v-435h131q5 56 17 108t31 95q53 118 158.5 182t243.5 64q116 0 209.5 -44t149.5 -132q43 -69 61.5 -164.5t18.5 -211.5q0 -211 -74 -338q-60 -105 -162 -154.5t-218 -49.5t-206.5 43t-146.5 126q-34 50 -55.5 124.5t-26.5 164.5h-131v-443h-242zM731 529 q0 -62 8 -116t22 -89q27 -55 68 -85t104 -30q67 0 115 36t72 114q17 64 17 174q0 67 -6 120t-21 87q-24 62 -70.5 91t-101.5 29q-60 0 -104 -32t-71 -91q-14 -32 -23 -89t-9 -119z" />
<glyph unicode="&#x44f;" horiz-adv-x="1102" d="M60 0l78 275q16 62 47.5 113t91.5 72q-96 30 -138 102t-45 156q0 78 26 141.5t73 109.5t114 71t149 25h523v-1065h-244v413h-171q-62 -2 -111 -32t-73 -121l-66 -260h-254zM335 718q0 -64 43 -92.5t114 -28.5h243v261h-249q-60 0 -105.5 -34t-45.5 -106z" />
<glyph unicode="&#x451;" horiz-adv-x="1089" d="M80 529q0 155 42 259t108.5 169t149 92.5t164.5 27.5q107 0 192 -36.5t144.5 -102t90.5 -160t31 -210.5v-106h-671q0 -49 13 -95.5t41 -81.5t71 -56.5t100 -21.5q48 0 120.5 22.5t131.5 78.5q39 -43 71 -85t71 -85q-90 -82 -195.5 -116.5t-206.5 -34.5q-84 0 -167.5 24 t-150 85.5t-108.5 165t-42 267.5zM203 1268v236h255v-236h-255zM335 634h409q-6 109 -63 165.5t-139 56.5q-84 0 -140 -58t-67 -164zM632 1268v236h254v-236h-254z" />
<glyph unicode="&#x452;" horiz-adv-x="1246" d="M19 1215v170h149v176h240v-176h448v-170h-445v-265l8 -2q60 58 131.5 87.5t146.5 29.5q209 0 325.5 -129.5t116.5 -406.5q0 -114 -27.5 -216t-87.5 -177.5t-156 -119.5t-230 -44q-16 0 -29.5 1t-29.5 3v213q10 -2 23 -2h24q73 0 124.5 24.5t82.5 70t45 106.5t14 135 q0 64 -12 122.5t-40.5 103.5t-78 70.5t-125.5 25.5q-39 0 -79 -15t-72.5 -49t-53 -87.5t-20.5 -127.5q0 -142 -1.5 -283t-1.5 -283h-240v1215h-149z" />
<glyph unicode="&#x453;" horiz-adv-x="941" d="M121 0v1065h817v-209h-575v-856h-242zM380 1223l170 409l230 -73l-253 -389z" />
<glyph unicode="&#x454;" horiz-adv-x="960" d="M54 521q0 146 43 251.5t112.5 173t160 98.5t186.5 31q110 0 195.5 -34.5t162.5 -104.5l-138 -173q-45 45 -102 68t-108 23q-109 0 -174 -59.5t-80 -170.5h337v-177h-339q10 -118 78 -177t178 -59q56 0 110.5 24.5t103.5 67.5l138 -178q-78 -69 -164.5 -102t-197.5 -33 q-94 0 -184.5 28.5t-161 93t-113.5 165.5t-43 244z" />
<glyph unicode="&#x455;" horiz-adv-x="995" d="M35 148l131 174q76 -69 160.5 -98t180.5 -29q78 0 131.5 32.5t53.5 90.5q0 56 -45 83t-144 38q-71 8 -143 21.5t-130 45.5t-94.5 87.5t-36.5 148.5q0 82 32.5 144t86 104t125.5 63.5t154 21.5q123 0 221.5 -26.5t186.5 -94.5l-115 -184q-76 49 -150 70.5t-139 21.5 q-86 0 -129 -33t-43 -80q0 -54 60 -78t194 -39q64 -6 127.5 -24.5t111.5 -52.5t78.5 -90.5t30.5 -140.5q0 -79 -34.5 -141t-93.5 -106t-137.5 -67t-168.5 -23q-119 0 -236 32t-226 129z" />
<glyph unicode="&#x456;" horiz-adv-x="530" d="M144 0v1065h243v-1065h-243zM144 1273v223h243v-223h-243z" />
<glyph unicode="&#x457;" horiz-adv-x="505" d="M-101 1254v234h255v-234h-255zM129 0v1065h247v-1065h-247zM329 1254v234h254v-234h-254z" />
<glyph unicode="&#x458;" horiz-adv-x="569" d="M-17 -217h60q69 0 95 35.5t26 91.5v1157h244v-1194q0 -138 -78 -222t-236 -84h-111v216zM164 1273v223h244v-223h-244z" />
<glyph unicode="&#x459;" horiz-adv-x="1627" d="M35 162q66 19 109 45.5t68.5 73t35.5 120t10 182.5v482h692v-370h256q103 0 176 -29.5t120 -75.5t68.5 -106.5t21.5 -124.5q0 -75 -24 -140t-72.5 -114t-120.5 -77t-171 -28h-494v854h-230v-271q0 -146 -21.5 -256t-69 -184t-125 -115t-186.5 -49zM948 217h242 q79 0 117.5 37t38.5 95q0 47 -34 90t-122 43h-242v-265z" />
<glyph unicode="&#x45a;" horiz-adv-x="1621" d="M111 0v1065h244v-384h340v384h243v-381h256q103 0 176 -28t119 -74t67.5 -105.5t21.5 -123.5q0 -74 -23.5 -138.5t-72 -111.5t-120.5 -75t-170 -28h-497v468h-340v-468h-244zM936 213h242q80 0 118 36t38 93q0 48 -34 87t-122 39l-242 3v-258z" />
<glyph unicode="&#x45b;" horiz-adv-x="1184" d="M30 1206v173h146v182h243v-182h428v-173h-428v-266l7 -2q50 53 128 84.5t158 31.5q76 0 140 -24t110.5 -71.5t73.5 -118t27 -163.5v-677h-244v611q0 103 -46 157.5t-145 54.5q-90 0 -149.5 -59.5t-59.5 -163.5v-600h-243v1206h-146z" />
<glyph unicode="&#x45c;" horiz-adv-x="1087" d="M117 0v1063h242v-433h138q28 0 56 4t54.5 20.5t49 47.5t38.5 83l85 280h242l-97 -310q-24 -78 -63 -130.5t-99 -70.5q76 -16 112 -73.5t61 -136.5l105 -344h-249l-78 273q-35 103 -85 133.5t-118 30.5h-152v-437h-242zM402 1223l170 409l230 -73l-254 -389z" />
<glyph unicode="&#x45e;" horiz-adv-x="1010" d="M0 1065h262l138 -392l105 -335h8l107 331l135 396h256l-469 -1280q-45 -123 -129 -169t-181 -46h-90v204h67q47 0 79 33t50 79l54 168zM193 1527h187q0 -21 10 -46.5t27.5 -46.5t42 -35t57.5 -14q34 0 59.5 14t42.5 35t26 46.5t9 46.5h185q-4 -45 -21.5 -100t-54 -102 t-96.5 -79.5t-150 -32.5q-91 0 -151 32.5t-98 79.5t-55.5 102t-19.5 100z" />
<glyph unicode="&#x45f;" horiz-adv-x="1130" d="M121 0v1065h234v-846h423v846h233v-1065h-330v-320h-232v320h-328z" />
<glyph unicode="&#x490;" horiz-adv-x="1171" d="M158 0v1496h778v263h223v-499h-742v-1260h-259z" />
<glyph unicode="&#x491;" horiz-adv-x="941" d="M121 0v1065h610v221h207v-430h-577v-856h-240z" />
<glyph unicode="&#x4d9;" horiz-adv-x="1089" d="M80 495v107h673q4 114 -57.5 184t-170.5 70q-45 0 -113 -22.5t-128 -76.5l-151 168q91 84 195.5 118t204.5 34q84 0 169.5 -23.5t152 -85t108 -165.5t41.5 -267q0 -155 -41.5 -260.5t-108 -169t-149.5 -91.5t-167 -28q-108 0 -193 36.5t-144 102t-90 159t-31 210.5z M338 428q8 -109 64 -165t140 -56q82 0 137.5 57.5t67.5 163.5h-409z" />
<glyph unicode="&#x2013;" horiz-adv-x="1102" d="M43 482v217h1017v-217h-1017z" />
<glyph unicode="&#x2014;" horiz-adv-x="2203" d="M43 482v217h2118v-217h-2118z" />
<glyph unicode="&#x2018;" horiz-adv-x="541" d="M117 991v287l164 294h134l-75 -284h68v-297h-291z" />
<glyph unicode="&#x2019;" horiz-adv-x="541" d="M117 991l74 282h-68v299h292v-288l-165 -293h-133z" />
<glyph unicode="&#x201a;" horiz-adv-x="593" d="M146 -284l76 284h-70v299h285v-289l-166 -294h-125z" />
<glyph unicode="&#x201c;" horiz-adv-x="806" d="M62 991v287l166 294h133l-75 -284h69v-297h-293zM439 991v287l165 294h133l-74 -284h68v-297h-292z" />
<glyph unicode="&#x201d;" horiz-adv-x="806" d="M74 991l74 282h-68v299h292v-288l-165 -293h-133zM449 991l76 282h-69v299h293v-288l-166 -293h-134z" />
<glyph unicode="&#x201e;" horiz-adv-x="979" d="M146 -284l76 284h-70v299h295v-289l-166 -294h-135zM525 -284l75 284h-69v299h292v-289l-165 -294h-133z" />
<glyph unicode="&#x2020;" horiz-adv-x="1048" d="M45 802v198h361v496h239v-496h359v-198h-359v-1182h-239v1182h-361z" />
<glyph unicode="&#x2021;" horiz-adv-x="1048" d="M45 248v197h361v357h-361v198h361v496h239v-496h359v-198h-359v-357h359v-197h-359v-628h-239v628h-361z" />
<glyph unicode="&#x2022;" horiz-adv-x="952" d="M183 589q0 64 23.5 121.5t65.5 99.5t99 66.5t121 24.5t121.5 -24.5t99.5 -66.5t66.5 -99t24.5 -122q0 -64 -24.5 -121t-66.5 -99t-99.5 -67t-121.5 -25t-121 25t-99 67t-65.5 99t-23.5 121z" />
<glyph unicode="&#x2026;" horiz-adv-x="1976" d="M181 0v297h293v-297h-293zM843 0v297h292v-297h-292zM1490 0v297h293v-297h-293z" />
<glyph unicode="&#x2030;" horiz-adv-x="2405" d="M64 860v375q0 64 25 113.5t66.5 84t96 53t111.5 18.5q58 0 113 -18.5t97 -53t67 -84t25 -113.5v-375q0 -64 -25 -113.5t-67 -83t-97 -52t-113 -18.5q-57 0 -111.5 18.5t-96 52t-66.5 83t-25 113.5zM254 866q0 -53 30 -80t79 -27q50 0 81.5 27t31.5 80v364 q0 51 -31.5 79.5t-81.5 28.5q-49 0 -79 -28t-30 -80v-364zM297 -37l914 1570h193l-916 -1570h-191zM1034 260v374q0 64 25 114t67 84t95.5 52.5t112.5 18.5q57 0 112.5 -18.5t96.5 -52.5t66 -83.5t25 -114.5v-374q0 -64 -25 -113.5t-66 -83t-96.5 -51.5t-112.5 -18 q-58 0 -112 18t-96 51.5t-67 82.5t-25 114zM1223 267q0 -54 30.5 -80.5t80.5 -26.5q49 0 80 26.5t31 80.5v363q0 51 -31 79t-80 28q-50 0 -80.5 -28t-30.5 -79v-363zM1744 260v374q0 64 24.5 114t66.5 84t95.5 52.5t112.5 18.5q58 0 112.5 -18.5t96.5 -52.5t67 -83.5 t25 -114.5v-374q0 -64 -25 -113.5t-67 -83t-96.5 -51.5t-112.5 -18q-57 0 -111.5 18t-96.5 51.5t-66.5 82.5t-24.5 114zM1933 267q0 -54 30 -80.5t80 -26.5t81 26.5t31 80.5v363q0 51 -31 79t-81 28q-49 0 -79.5 -28t-30.5 -79v-363z" />
<glyph unicode="&#x2039;" horiz-adv-x="756" d="M99 490l295 431h234l-286 -431l286 -430h-234z" />
<glyph unicode="&#x203a;" horiz-adv-x="756" d="M99 60l286 430l-286 431h234l293 -431l-293 -430h-234z" />
<glyph unicode="&#x2044;" horiz-adv-x="316" d="M-396 -37l915 1570h193l-917 -1570h-191z" />
<glyph unicode="&#x20ac;" d="M33 548v151h88v86h-88v151h88q0 18 1 36.5t3 36.5q8 107 49 197.5t106.5 156t154 102.5t195.5 37q174 0 295.5 -86.5t180.5 -241.5l-236 -95q-32 82 -95 129.5t-143 47.5q-69 0 -116.5 -27t-76 -72t-44 -103.5t-19.5 -117.5h404v-151h-406v-86h406v-151h-404 q2 -64 18.5 -123.5t48 -102.5t78.5 -68.5t111 -25.5q88 0 148.5 47t101.5 138l234 -91q-69 -154 -186 -244.5t-300 -90.5q-219 0 -352.5 125.5t-152.5 361.5q-2 18 -3 36.5t-1 37.5h-88z" />
<glyph unicode="&#x2116;" horiz-adv-x="2074" d="M154 0v1496h244l355 -636l199 -365h5v1001h260v-1496h-241l-387 697l-168 325h-4v-1022h-263zM1329 1153q0 56 8.5 105t30.5 90q37 80 115 122t181 42q82 0 151 -30.5t110 -90.5q30 -41 42.5 -99.5t12.5 -130.5q0 -69 -12.5 -130t-40.5 -104q-43 -66 -115 -101.5 t-165 -35.5q-86 0 -152.5 28.5t-105.5 84.5q-35 47 -48.5 108.5t-11.5 141.5zM1370 533v157h571v-157h-571zM1518 1151q0 -39 4.5 -70.5t16.5 -54.5q31 -72 113 -72q90 0 125 91q12 39 12 116q0 76 -17 117q-32 70 -114 70t-117 -70q-12 -24 -17.5 -58t-5.5 -69z" />
<glyph unicode="&#x2122;" horiz-adv-x="1840" d="M80 1331v165h714v-165h-267v-722h-181v722h-266zM897 609v887h157l253 -556l244 556h156v-887h-166v495l-171 -373h-133l-170 379v-501h-170z" />
<glyph unicode="&#x2202;" horiz-adv-x="1139" d="M66 478q0 114 36 206t98 156.5t145 99t180 34.5q71 0 141.5 -22.5t146.5 -71.5q-7 99 -35.5 186t-77 151.5t-115 100.5t-150.5 36q-31 0 -74 -3t-103 -20l-2 194q103 26 196 26q168 0 285 -65.5t191 -175.5t107.5 -254.5t33.5 -300.5q0 -193 -41 -338.5t-112 -242 t-168.5 -146t-214.5 -49.5q-98 0 -183 32t-148.5 95.5t-99.5 156t-36 215.5zM312 482q0 -80 18.5 -136t50.5 -92.5t73 -53.5t86 -17q71 0 122.5 42t84.5 108.5t50.5 148.5t21.5 161q-78 77 -152 107t-129 30q-52 0 -94 -26.5t-71 -68.5t-45 -95.5t-16 -107.5z" />
<glyph unicode="&#x220f;" horiz-adv-x="1408" d="M158 -172v1668h1094v-1668h-259v1436h-576v-1436h-259z" />
<glyph unicode="&#x2211;" horiz-adv-x="1132" d="M66 64l347 601l-347 608v223h975v-232h-665l344 -597l-344 -598h693v-239h-1003v234z" />
<glyph unicode="&#x221a;" horiz-adv-x="1264" d="M49 802l357 114l261 -690l335 1481h233l-453 -1877h-197l-327 847l-144 -43z" />
<glyph unicode="&#x221e;" horiz-adv-x="1601" d="M92 591q0 72 28 134.5t76.5 110.5t114 76t138.5 28q54 0 106 -18.5t98 -48.5t84.5 -67.5t68.5 -74.5q74 92 158.5 150.5t209.5 58.5q73 0 135.5 -26t109 -72t72 -110.5t25.5 -140.5q0 -71 -27.5 -134t-76.5 -111.5t-114 -77t-141 -28.5q-53 0 -103 18.5t-94 47.5 t-82.5 67t-73.5 76q-36 -43 -75 -80.5t-83 -65.5t-96.5 -45.5t-114.5 -17.5q-72 0 -134.5 26.5t-108.5 72.5t-73 110t-27 142zM290 593q0 -71 46.5 -119t108.5 -48q72 0 132.5 48.5t103.5 114.5q-18 28 -44 58t-55.5 52.5t-63.5 38t-69 15.5q-30 0 -59 -13t-51.5 -34.5 t-35.5 -50.5t-13 -62zM925 593q56 -66 111.5 -116.5t124.5 -50.5q62 0 109.5 49.5t47.5 115.5q0 69 -46.5 115.5t-105.5 46.5q-70 0 -127.5 -45t-113.5 -115z" />
<glyph unicode="&#x222b;" horiz-adv-x="679" d="M-92 -286l47 159q71 -13 103 -13q30 0 55 8.5t44 34.5t32.5 72t19.5 122q6 55 10.5 133t7.5 180.5t5 235t2 298.5q0 73 4.5 162.5t13.5 153.5q30 209 115 305.5t233 96.5q32 0 82.5 -8.5t87.5 -21.5l-41 -163q-35 6 -62 10.5t-45 4.5q-33 0 -59.5 -13t-48.5 -49.5 t-36 -100t-20 -162.5q-4 -51 -5 -147t-2.5 -206.5t-1.5 -220t-2 -187.5q-4 -117 -10.5 -209t-21.5 -168q-35 -185 -116.5 -263t-222.5 -78q-33 0 -81.5 8.5t-86.5 25.5z" />
<glyph unicode="&#x2248;" d="M69 372q62 114 136 169.5t173 55.5q49 0 99 -20.5t96.5 -44t89.5 -44t81 -20.5q50 0 87 32.5t83 92.5l144 -96q-62 -117 -133 -172.5t-166 -55.5q-47 0 -95.5 19.5t-96.5 44t-94.5 44t-85.5 19.5q-51 0 -89 -27t-87 -90q-37 24 -71.5 47t-70.5 46zM69 763 q62 115 136 170.5t173 55.5q49 0 99 -20.5t96.5 -45t89.5 -44t81 -19.5q50 0 87 32.5t83 92.5l144 -97q-62 -118 -133 -174t-166 -56q-47 0 -95.5 19.5t-96.5 44.5t-94.5 44t-85.5 19q-51 0 -89 -26t-87 -88q-37 24 -71.5 46.5t-70.5 45.5z" />
<glyph unicode="&#x2260;" d="M49 314v193h312l179 261h-491v191h624l150 219h190l-151 -219h215v-191h-348l-179 -261h527v-193h-660l-133 -195l-187 4l131 191h-179z" />
<glyph unicode="&#x2264;" d="M51 647v172q259 90 513.5 182.5t512.5 182.5v-214l-709 -237l709 -220v-216zM54 2v193h1023v-193h-1023z" />
<glyph unicode="&#x2265;" d="M51 0v193h1026v-193h-1026zM54 295v216q178 56 354.5 110t354.5 110l-709 237v214q258 -90 511.5 -182.5t511.5 -182.5v-172z" />
<glyph unicode="&#x25ca;" horiz-adv-x="1139" d="M101 681q19 39 49.5 97.5t65 126t73 139.5t73 140t64.5 126t50 96h162l371 -725l-373 -722h-160zM320 684q21 -41 53.5 -106t67.5 -132.5t67 -131.5t51 -105q21 43 52.5 106t65 129.5t63.5 130t52 106.5l-238 478q-21 -43 -52 -106.5t-64.5 -131t-64.5 -131t-53 -106.5z " />
<glyph unicode="&#x25fc;" horiz-adv-x="1063" d="M0 0v1065h1065v-1065h-1065z" />
</font>
</defs>
</svg>
